<?xml version="1.0" standalone="no"?>
<!DOCTYPE svg PUBLIC "-//W3C//DTD SVG 1.1//EN" "http://www.w3.org/Graphics/SVG/1.1/DTD/svg11.dtd" >
<svg xmlns="http://www.w3.org/2000/svg" xmlns:xlink="http://www.w3.org/1999/xlink" version="1.1">
<metadata></metadata>
<defs>
<font id="ltuniversbasicregularitalic" horiz-adv-x="1187" >
<font-face units-per-em="2048" ascent="1638" descent="-410" />
<missing-glyph horiz-adv-x="593" />
<glyph horiz-adv-x="0" />
<glyph horiz-adv-x="682" />
<glyph unicode=" "  horiz-adv-x="593" />
<glyph unicode="&#x09;" horiz-adv-x="593" />
<glyph unicode="&#xa0;" horiz-adv-x="593" />
<glyph unicode="!" horiz-adv-x="610" d="M10 0l58 195h202l-55 -195h-205zM139 358l297 1123h219l-368 -1123h-148z" />
<glyph unicode="&#x22;" horiz-adv-x="894" d="M324 1481h161l-26 -553h-109zM639 1481h162l-27 -553h-108z" />
<glyph unicode="#" d="M-2 432l35 137h227l107 338h-215l32 135h228l143 439h152l-142 -439h256l142 439h153l-143 -439h215l-35 -135h-225l-109 -338h215l-35 -137h-225l-141 -432h-152l142 432h-258l-140 -432h-153l141 432h-215zM412 569h258l106 338h-258z" />
<glyph unicode="$" d="M0 336q0 43 2 61h188q-6 -30 -6 -51q0 -87 57 -145.5t160 -75.5l154 561q-11 7 -67.5 39t-86.5 53q-172 119 -172 289q0 128 74 224t197.5 144t277.5 48l53 178h99l-56 -186q145 -17 228.5 -96.5t83.5 -200.5q0 -31 -6 -64h-185q4 28 4 39q0 145 -161 184l-144 -522 q23 -15 64.5 -38t74.5 -43.5t60 -43.5q117 -95 117 -244q0 -95 -30.5 -173.5t-82.5 -132.5t-122.5 -91.5t-150 -54.5t-165.5 -17l-56 -194h-100l57 201q-136 17 -237 92q-60 46 -89.5 107.5t-33.5 152.5zM418 1087q0 -86 88 -153q82 -62 100 -74l135 486q-115 -3 -202 -58 q-56 -35 -88.5 -89t-32.5 -112zM500 121q90 3 180 57q59 34 94 97t35 139q0 83 -47 133q-36 38 -119 94z" />
<glyph unicode="%" horiz-adv-x="1873" d="M139 991q0 99 34 196.5t95 170.5q118 143 301 143q127 0 199 -72t72 -190q0 -97 -35 -196t-96 -175q-57 -70 -134.5 -109.5t-166.5 -39.5q-128 0 -198.5 74.5t-70.5 197.5zM291 991q0 -67 36 -108t101 -41q109 0 178 110q80 124 80 275q0 68 -35.5 109.5t-101.5 41.5 q-70 0 -131 -59.5t-94 -148t-33 -179.5zM381 -49l971 1540h133l-969 -1540h-135zM1036 246q0 102 35 201t98 174q117 139 299 139q128 0 197.5 -71t69.5 -193q0 -98 -34 -197.5t-93 -173.5q-119 -148 -303 -148q-129 0 -199 73t-70 196zM1188 250q0 -68 35.5 -109t99.5 -41 q107 0 178 113q80 124 80 272q0 68 -36 111t-101 43q-70 0 -130.5 -60t-93 -149t-32.5 -180z" />
<glyph unicode="&#x26;" horiz-adv-x="1564" d="M37 352q0 170 123 287.5t323 148.5q-62 26 -92 50q-88 67 -88 206q0 136 81 241.5t216.5 160.5t300.5 55q140 0 260 -26l-41 -136q-136 25 -192 25q-187 0 -320 -91.5t-133 -236.5q0 -114 111 -162q64 -26 180 -26h285l82 301h174l-82 -301h280l-39 -135h-280l-201 -713 h-463q-109 0 -179.5 12.5t-129.5 42.5q-85 43 -130.5 119t-45.5 178zM221 369q0 -68 34 -121t91 -78q88 -39 260 -39h240l166 582h-240q-131 0 -208.5 -12.5t-145.5 -45.5q-92 -43 -144.5 -118t-52.5 -168z" />
<glyph unicode="'" horiz-adv-x="579" d="M324 1481h161l-26 -553h-109z" />
<glyph unicode="(" horiz-adv-x="626" d="M63 197q0 241 52 421q53 183 169 381t326 482h127q-176 -272 -317 -570q-73 -155 -113 -264.5t-65 -238.5q-16 -96 -25 -234q-11 -152 -8 -324q0 -126 2 -153h-117q0 3 -2 26t-4 60q-2 33 -7.5 100.5t-9 109t-6 99t-2.5 105.5z" />
<glyph unicode=")" horiz-adv-x="624" d="M-166 -303q69 103 152 242q138 229 205.5 379t109.5 325q39 168 51 344q10 163 10 262q0 39 -1 116t-1 116h117q12 -102 19 -217q12 -160 12 -289q0 -217 -47 -400q-44 -172 -163.5 -378t-336.5 -500h-127z" />
<glyph unicode="*" horiz-adv-x="1105" d="M260 1040l10 148l308 -31l-168 254l131 72l112 -281l144 283l125 -76l-201 -252l311 31l-6 -148l-309 33l168 -254l-133 -74l-109 285l-147 -285l-121 74l198 254z" />
<glyph unicode="+" horiz-adv-x="1290" d="M74 436v146h442v436h156v-436h440v-146h-440v-436h-156v436h-442z" />
<glyph unicode="," horiz-adv-x="593" d="M-207 -252l268 447h222l-334 -447h-156z" />
<glyph unicode="-" horiz-adv-x="718" d="M29 477l39 133h528l-39 -133h-528z" />
<glyph unicode="." horiz-adv-x="561" d="M-49 0l57 207h203l-57 -207h-203z" />
<glyph unicode="/" horiz-adv-x="763" d="M-158 -25l965 1530h151l-960 -1530h-156z" />
<glyph unicode="0" d="M55 383q0 148 52 346.5t124 341.5q101 204 232 316t307 112q183 0 270.5 -109.5t87.5 -287.5q0 -156 -45.5 -362.5t-130.5 -381.5q-187 -383 -499 -383q-197 0 -297.5 111t-100.5 297zM238 371q0 -122 57.5 -189t163.5 -67q54 0 103 25t86 64t72 97.5t60 115.5t51 128 q51 139 83 301t32 260q0 129 -51 193.5t-147 64.5q-131 0 -227.5 -117.5t-182.5 -355.5q-100 -279 -100 -520z" />
<glyph unicode="1" d="M340 1073l49 178q112 45 199 92q76 41 118.5 68.5t94.5 69.5h170l-422 -1481h-187l365 1262q-42 -30 -127 -78q-114 -64 -260 -111z" />
<glyph unicode="2" d="M-90 0l41 152q3 2 52.5 41.5t120.5 96t139.5 111.5t122 98.5t56.5 45.5q14 12 93 74t129.5 104t89.5 78q92 86 145 178t53 176q0 93 -60 149t-159 56q-165 0 -252 -125q-46 -67 -65 -160h-189q29 150 117 256q142 170 410 170q174 0 282.5 -87.5t108.5 -242.5 q0 -211 -180 -397q-43 -45 -94.5 -89.5t-138 -113t-120.5 -96.5q-16 -14 -203 -166t-198 -159h698l-39 -150h-960z" />
<glyph unicode="3" d="M-6 326q0 10 8 80h186q-4 -41 -4 -70q0 -99 72.5 -158t189.5 -59q175 0 273 98q47 47 73.5 114.5t26.5 137.5q0 111 -79.5 173t-209.5 60q-5 0 -21.5 -1t-21.5 -1l39 142q31 -4 86 -4q173 0 269 71q51 37 79.5 98t28.5 132q0 107 -67.5 168t-182.5 61q-212 0 -297 -174 q-29 -60 -45 -115h-184q23 133 100.5 229.5t190 144.5t246.5 48q189 0 305 -89.5t116 -254.5q0 -102 -46 -186t-132 -142q-95 -62 -211 -75q114 -34 170 -107.5t56 -175.5q0 -144 -77 -258t-207.5 -175t-289.5 -61q-190 0 -315 94.5t-125 254.5z" />
<glyph unicode="4" d="M-31 334l49 170l891 977h238l-287 -1012h238l-45 -135h-234l-96 -334h-178l96 334h-672zM172 469h508l244 838z" />
<glyph unicode="5" d="M37 295q0 43 14 98h191q-13 -43 -13 -86q0 -87 63 -138.5t165 -51.5q160 0 270 135q55 69 86 155.5t31 172.5q0 105 -63 170t-171 65q-200 0 -297 -192h-184l277 858h796l-47 -148h-620l-162 -508q64 72 136.5 102.5t166.5 30.5q161 0 257.5 -102.5t96.5 -247.5 q0 -132 -47 -256.5t-133 -214.5q-153 -162 -404 -162q-185 0 -297 86t-112 234z" />
<glyph unicode="6" d="M78 436q0 162 60.5 371t146.5 356q98 169 225.5 253.5t304.5 84.5q168 0 268.5 -88.5t100.5 -238.5q0 -41 -4 -72h-185q2 8 2 57q1 100 -54.5 154.5t-156.5 54.5q-110 0 -202.5 -82t-163.5 -233q-50 -108 -90 -244q81 83 159.5 119.5t184.5 36.5q167 0 266.5 -103.5 t99.5 -269.5q0 -125 -45 -244t-121 -205q-71 -81 -171.5 -123.5t-217.5 -42.5q-196 0 -301.5 122t-105.5 337zM256 371q0 -111 68 -184.5t176 -73.5q71 0 134.5 34.5t108.5 94.5q55 70 85 160.5t30 181.5q0 108 -62.5 177.5t-170.5 69.5q-107 0 -192.5 -64.5t-131 -169 t-45.5 -226.5z" />
<glyph unicode="7" d="M51 0l932 1329h-752l45 152h947l-45 -158l-906 -1323h-221z" />
<glyph unicode="8" d="M8 348q0 121 61.5 217.5t159 152t215.5 70.5q-200 80 -200 281q0 125 69.5 224.5t188.5 153.5t266 54q188 0 306 -89t118 -243q0 -102 -50.5 -192t-135.5 -148q-81 -55 -201 -75q215 -76 215 -283q0 -110 -44.5 -204t-120 -157.5t-176 -99t-212.5 -35.5q-208 0 -333.5 98 t-125.5 275zM193 360q0 -111 76 -180t202 -69q158 0 261.5 102.5t103.5 247.5q0 109 -70.5 173t-198.5 64q-165 0 -269.5 -93t-104.5 -245zM424 1067q0 -105 71 -171.5t185 -66.5q137 0 235.5 91t98.5 227q0 101 -70 163t-184 62q-147 0 -241.5 -87t-94.5 -218z" />
<glyph unicode="9" d="M10 289q0 49 6 96h187q-6 -53 -6 -70q0 -91 60 -143.5t169 -52.5t188.5 59.5t147.5 188.5q80 147 131 340q-142 -154 -340 -154q-163 0 -266 104t-103 271q0 164 71.5 295.5t195 204.5t274.5 73q199 0 304.5 -110.5t105.5 -307.5q0 -142 -50.5 -338t-126.5 -362 q-94 -205 -226 -304t-322 -99q-178 0 -289 86t-111 223zM362 942q0 -113 63.5 -184.5t176.5 -71.5q69 0 133 31t109 84q54 63 84 147.5t30 171.5q0 111 -65.5 179.5t-173.5 68.5q-71 0 -136.5 -32.5t-111.5 -88.5q-51 -62 -80 -142.5t-29 -162.5z" />
<glyph unicode=":" horiz-adv-x="593" d="M-20 0l57 207h205l-60 -207h-202zM223 825l60 207h202l-59 -207h-203z" />
<glyph unicode=";" horiz-adv-x="591" d="M-205 -252l268 447h222l-336 -447h-154zM225 825l58 207h202l-59 -207h-201z" />
<glyph unicode="&#x3c;" horiz-adv-x="1290" d="M74 430v154l1038 413v-157l-856 -334l856 -330v-158z" />
<glyph unicode="=" horiz-adv-x="1290" d="M74 233v144h1038v-144h-1038zM74 637v143h1038v-143h-1038z" />
<glyph unicode="&#x3e;" horiz-adv-x="1288" d="M74 18v158l856 330l-856 334v157l1036 -413v-154z" />
<glyph unicode="?" horiz-adv-x="1069" d="M147 0l60 195h203l-58 -195h-205zM279 358q47 184 71 240q12 28 49.5 67.5t68.5 66t80 65.5t52 41q117 97 160 144q103 111 104 200q0 86 -62.5 133t-164.5 47q-112 0 -246 -41l43 149q146 33 252 33q171 0 274 -69.5t103 -202.5q0 -53 -23 -112t-57.5 -109.5t-83 -103.5 t-91.5 -92t-91 -77l-135 -108q-50 -40 -72 -68t-39 -76q-24 -70 -37 -127h-155z" />
<glyph unicode="@" horiz-adv-x="1656" d="M90 715q0 147 47 274q49 132 142 238q121 137 282 205q169 73 365 73q159 0 295 -51q133 -50 229 -143q80 -77 125 -189q45 -109 45 -231q0 -129 -51 -246q-48 -114 -133 -190q-59 -52 -115 -74q-61 -25 -127 -25q-39 0 -78 17q-30 13 -55 45q-24 30 -27 76v24q0 7 8 43 q-22 -43 -57 -90q-25 -32 -59 -59q-76 -58 -185 -58q-107 0 -178 68q-47 47 -69 104q-25 64 -25 140q0 96 37 194q41 103 104 172q56 59 127 94q74 33 142 33q57 0 100 -14q41 -13 82 -49q46 -43 61 -115l43 147h135q-1 -3 -20.5 -65.5t-40.5 -130.5t-40.5 -133t-22.5 -80 q-17 -60 -29 -125q-8 -59 -6 -72q3 -28 14 -41q22 -32 78 -32q90 0 166 96q59 74 90 174q40 117 31 233q-6 88 -47 172q-36 76 -105 142q-75 69 -192 112q-115 41 -250 41q-184 0 -346 -78q-158 -74 -258 -211q-76 -104 -111 -239q-31 -127 -23 -232q9 -114 54 -217 q45 -102 127 -184q52 -49 114 -88q61 -37 131 -61q133 -48 283 -48q208 0 397 91q101 50 181 106l47 -65q-93 -68 -174 -109q-208 -109 -461 -109q-172 0 -318.5 54.5t-255.5 158.5q-105 99 -166 240q-57 136 -57 287zM625 657q0 -87 39 -145q44 -63 118 -63q61 0 111 38 q49 37 86 101q33 54 63 155q25 83 25 148q0 78 -41 125q-43 49 -115 49q-106 0 -188 -115q-47 -67 -70 -139q-28 -82 -28 -154z" />
<glyph unicode="A" horiz-adv-x="1417" d="M-184 0l1020 1481h215l184 -1481h-193l-43 391h-718l-261 -391h-204zM375 535h606l-80 788z" />
<glyph unicode="B" horiz-adv-x="1361" d="M-2 0l434 1481h463q115 0 188.5 -19.5t124.5 -62.5q97 -84 97 -228q0 -98 -40 -181t-112 -138q-89 -68 -227 -92q113 -33 175 -104.5t62 -180.5q0 -119 -61 -223t-164 -168q-73 -45 -161.5 -64.5t-221.5 -19.5h-557zM231 150h342q103 0 167 18.5t116 64.5q53 46 84 114 t31 140q0 92 -64.5 147.5t-179.5 55.5h-338zM430 831h279q178 0 286 80q56 42 87.5 103t31.5 131q0 124 -102 166q-55 20 -160 20h-274z" />
<glyph unicode="C" horiz-adv-x="1361" d="M76 467q0 198 77 409t209 357q243 268 578 268q208 0 331.5 -93t123.5 -255q0 -29 -9 -82h-202q6 58 6 74q0 97 -73.5 153t-194.5 56q-126 0 -238 -65.5t-199 -188.5q-96 -137 -150 -304t-54 -329q0 -67 20 -126.5t60 -108t107 -77t153 -28.5q160 0 266 100 q60 54 100 146h207q-49 -146 -156 -242q-168 -151 -424 -151q-133 0 -237.5 38.5t-169 105.5t-98 154t-33.5 189z" />
<glyph unicode="D" horiz-adv-x="1536" d="M-2 0l436 1481h432q105 0 194 -18t164.5 -57t129 -97t83 -142.5t29.5 -189.5q0 -282 -137 -543q-68 -132 -172.5 -229t-234.5 -146q-153 -59 -412 -59h-512zM236 150h249q108 0 162.5 4.5t110.5 19.5q129 34 220.5 107.5t158.5 199.5q60 109 94.5 237t34.5 245 q0 103 -33 176.5t-95.5 114.5t-141.5 59t-183 18h-231z" />
<glyph unicode="E" horiz-adv-x="1267" d="M-2 0l434 1481h928l-47 -152h-731l-148 -493h696l-43 -146h-694l-160 -538h758l-45 -152h-948z" />
<glyph unicode="F" horiz-adv-x="1177" d="M-2 0l434 1481h873l-45 -152h-678l-150 -495h647l-41 -148h-647l-203 -686h-190z" />
<glyph unicode="G" horiz-adv-x="1449" d="M76 479q0 193 73.5 393t196.5 349q231 282 602 282q201 0 324 -90t123 -258q0 -21 -9 -80h-204q6 39 6 70q0 98 -73 154.5t-195 56.5q-250 0 -428 -238q-100 -135 -156.5 -304.5t-56.5 -328.5q0 -170 96 -260q104 -96 305 -96q146 0 283 47l131 445h-346l40 143h533 l-205 -701q-121 -44 -231 -63.5t-242 -19.5q-278 0 -432 151q-135 135 -135 348z" />
<glyph unicode="H" horiz-adv-x="1572" d="M-2 0l434 1481h193l-189 -643h758l188 643h193l-436 -1481h-193l203 688h-756l-203 -688h-192z" />
<glyph unicode="I" horiz-adv-x="622" d="M-2 0l434 1481h193l-435 -1481h-192z" />
<glyph unicode="J" horiz-adv-x="1124" d="M-61 270q0 55 20 111h197q-17 -53 -17 -86q0 -77 45.5 -121.5t139.5 -44.5q156 0 247 133q46 64 84 184l310 1035h190l-321 -1084q-48 -162 -129 -258q-141 -162 -402 -162q-166 0 -265 80t-99 213z" />
<glyph unicode="K" horiz-adv-x="1327" d="M-2 0l434 1481h193l-435 -1481h-192zM434 809l785 672h254l-832 -693l502 -788h-236z" />
<glyph unicode="L" horiz-adv-x="1107" d="M-2 0l432 1481h193l-390 -1329h719l-43 -152h-911z" />
<glyph unicode="M" horiz-adv-x="2000" d="M-2 0l436 1481h307l109 -1260l844 1260h311l-438 -1481h-189l398 1341l-904 -1341h-182l-117 1341l-391 -1341h-184z" />
<glyph unicode="N" horiz-adv-x="1617" d="M6 0l432 1481h271l346 -1317l381 1317h184l-438 -1481h-271l-342 1313l-379 -1313h-184z" />
<glyph unicode="O" horiz-adv-x="1552" d="M76 485q0 185 64.5 370.5t176.5 334.5q236 309 629 309q250 0 393.5 -135.5t143.5 -368.5q0 -175 -64.5 -358t-165.5 -324q-119 -166 -273 -252t-362 -86q-248 0 -395 136.5t-147 373.5zM272 494q0 -167 97 -268t266 -101q122 0 232.5 61t197.5 170q103 132 160 299 t57 328q0 171 -91.5 270t-262.5 99q-308 0 -498 -322q-72 -121 -115 -268t-43 -268z" />
<glyph unicode="P" horiz-adv-x="1292" d="M-2 0l434 1481h451q200 0 303 -66q135 -86 135 -268q0 -135 -69.5 -247t-190.5 -177q-76 -40 -166.5 -58t-222.5 -18h-295l-189 -647h-190zM422 791h246q198 0 307 69q67 44 109 119t42 158q0 121 -94 166q-58 28 -196 28h-254z" />
<glyph unicode="Q" horiz-adv-x="1552" d="M76 481q0 186 65 374t178 337q237 307 621 307q256 0 399.5 -135t143.5 -367q0 -174 -66.5 -360t-181.5 -334q-78 -104 -199 -184q106 22 181 26q128 7 178 9l-52 -154h-264q-48 0 -219 -6q-4 0 -43 -2t-63 -4q-84 -8 -150 -8q-246 0 -387 136t-141 365zM272 494 q0 -168 97.5 -268.5t267.5 -100.5q122 0 232.5 61t195.5 170q103 132 160 300t57 329q0 173 -90 271t-266 98q-309 0 -498 -324q-71 -120 -113.5 -267.5t-42.5 -268.5z" />
<glyph unicode="R" horiz-adv-x="1386" d="M-2 0l434 1481h445q177 0 276 -41q83 -36 129.5 -107t46.5 -166q0 -107 -50.5 -193.5t-139.5 -142.5q-104 -63 -238 -81q98 -21 142 -68t44 -139q0 -38 -14 -185q-14 -126 -14 -217q0 -86 6 -141h-195q-4 39 -4 90q0 67 21 248q12 122 12 176q0 57 -14.5 92t-48.5 56 q-27 17 -55.5 21.5t-98.5 4.5h-291l-201 -688h-192zM432 825h299q98 0 165 17.5t122 58.5q56 41 87.5 103t31.5 131q0 124 -115 172q-61 24 -168 24h-274z" />
<glyph unicode="S" horiz-adv-x="1273" d="M-2 311q0 62 20 131h191q-3 -10 -7.5 -24.5t-6.5 -21.5t-4.5 -17.5t-3.5 -17t-2 -15.5t-1 -18q0 -57 25.5 -100t68.5 -67t93 -35t106 -11q189 0 295 90q47 41 74.5 97t27.5 116q0 30 -10.5 58.5t-26 50.5t-42 44.5t-49.5 38t-58.5 34.5t-59 30t-60 28t-54.5 25 q-105 53 -152 94q-106 92 -106 246q0 128 77.5 227t209 151t293.5 52q200 0 315 -82.5t115 -222.5q0 -22 -5 -51t-6 -43h-190q8 39 8 71q0 91 -70 141t-192 50q-148 0 -252 -78t-104 -195q0 -33 8 -61t26.5 -51.5t35.5 -40.5t49.5 -36t52 -29t58.5 -29t56 -27 q14 -7 72 -35.5t88 -46.5q83 -50 130.5 -115t47.5 -159q0 -103 -46.5 -196t-125.5 -157q-161 -127 -444 -127q-221 0 -343 87t-122 247z" />
<glyph unicode="T" horiz-adv-x="1087" d="M139 1327l45 154h1133l-43 -154h-471l-393 -1327h-193l393 1327h-471z" />
<glyph unicode="U" horiz-adv-x="1540" d="M102 377q0 137 52 303l237 801h195l-258 -881q-37 -121 -37 -201q0 -127 83 -200.5t240 -73.5q130 0 232 54.5t164 154.5q63 102 123 309l245 838h193l-266 -897q-55 -177 -101 -265q-88 -169 -245 -255.5t-375 -86.5q-225 0 -353.5 107.5t-128.5 292.5z" />
<glyph unicode="V" horiz-adv-x="1329" d="M205 1481h196l86 -1286l828 1286h213l-987 -1481h-224z" />
<glyph unicode="W" horiz-adv-x="2158" d="M233 0l5 1481h198l-24 -1293l741 1293h215l62 -1295l663 1295h209l-795 -1481h-252l-53 1251l-725 -1251h-244z" />
<glyph unicode="X" horiz-adv-x="1275" d="M-211 0l739 791l-299 690h211l238 -582l504 582h235l-669 -715l335 -766h-217l-270 651l-578 -651h-229z" />
<glyph unicode="Y" d="M141 1481h209l264 -709l584 709h223l-755 -867l-181 -614h-192l188 633z" />
<glyph unicode="Z" horiz-adv-x="1175" d="M-137 0l37 160l1132 1169h-815l47 152h1043l-39 -148l-1147 -1181h901l-49 -152h-1110z" />
<glyph unicode="[" horiz-adv-x="624" d="M-133 -303l526 1784h357l-35 -109h-205l-461 -1565h207l-33 -110h-356z" />
<glyph unicode="\" horiz-adv-x="763" d="M61 1505h150l502 -1530h-158z" />
<glyph unicode="]" horiz-adv-x="626" d="M-195 -303l33 110h205l459 1565h-207l33 109h354l-520 -1784h-357z" />
<glyph unicode="^" horiz-adv-x="1290" d="M242 621l350 860h145l353 -860h-164l-262 675l-258 -675h-164z" />
<glyph unicode="_" horiz-adv-x="1058" d="M2 -154h1024v-102h-1024v102z" />
<glyph unicode="`" horiz-adv-x="544" d="M219 1483h205l154 -297h-132z" />
<glyph unicode="a" horiz-adv-x="1099" d="M-51 238q0 107 58.5 189.5t160.5 129.5q119 55 356 70q24 2 47 2.5t71 1t103 2.5l15 57q14 55 14 96q0 154 -190 154q-103 0 -169.5 -47t-86.5 -133h-178q23 142 142.5 217.5t305.5 75.5q163 0 256.5 -63.5t93.5 -182.5q0 -76 -35 -201q-23 -86 -71 -237 q-37 -127 -51 -185q-20 -87 -37 -184h-172q0 9 10 68.5t14 76.5q-153 -163 -360 -163q-131 0 -214 66.5t-83 189.5zM131 256q0 -77 46 -117.5t130 -40.5q163 0 291 176q46 61 84 158q3 7 8.5 23.5t24.5 68.5q-24 -1 -73 -3t-73 -3q-208 -14 -303 -63q-64 -34 -99.5 -85.5 t-35.5 -113.5z" />
<glyph unicode="b" horiz-adv-x="1204" d="M-61 0q63 194 77 254l365 1227h180l-180 -596q149 170 360 170q163 0 249.5 -98.5t86.5 -262.5q0 -136 -44 -266.5t-122 -230.5q-172 -215 -419 -215q-112 0 -195 50.5t-125 151.5l-57 -184h-176zM242 340q0 -103 64.5 -169.5t170.5 -66.5q186 0 311 195 q50 77 79.5 177.5t29.5 191.5q0 119 -56 188.5t-157 69.5q-99 0 -188 -58t-150 -166q-104 -190 -104 -362z" />
<glyph unicode="c" horiz-adv-x="1077" d="M0 344q0 150 60 293.5t163 245.5q170 170 428 170q156 0 252 -67t96 -189q0 -46 -16 -117h-176q14 55 14 94q0 77 -48 119.5t-138 42.5q-105 0 -195 -62.5t-153 -171.5q-48 -81 -76.5 -177.5t-28.5 -182.5q0 -112 61 -176t175 -64q108 0 185.5 59t113.5 163h184 q-55 -161 -185.5 -251.5t-316.5 -90.5q-188 0 -293.5 98.5t-105.5 263.5z" />
<glyph unicode="d" horiz-adv-x="1220" d="M0 350q0 148 59 295t160 248q164 164 387 164q115 0 195.5 -50t118.5 -149l186 623h178l-366 -1231q-33 -117 -60 -250h-176l31 145q-84 -87 -169 -125t-196 -38q-164 0 -256 99.5t-92 268.5zM186 356q0 -113 59 -179t167 -66q107 0 195 61.5t147 173.5q44 81 71 178.5 t27 177.5q0 108 -61 168t-170 60q-183 0 -308 -178q-127 -181 -127 -396z" />
<glyph unicode="e" horiz-adv-x="1105" d="M0 315q0 148 63 306t164 264q163 172 406 172q161 0 256.5 -83.5t95.5 -232.5q0 -124 -49 -256h-733q-25 -89 -25 -161q0 -108 57.5 -167t170.5 -59q105 0 174.5 50t124.5 159h186q-137 -330 -481 -330q-190 0 -300 91.5t-110 246.5zM240 602h546q23 78 23 133 q0 91 -47.5 144t-143.5 53q-173 0 -286 -150q-49 -64 -92 -180z" />
<glyph unicode="f" horiz-adv-x="632" d="M-14 0l266 905h-211l37 127h211l47 152q54 172 131 241.5t229 69.5q74 0 154 -18l-41 -125q-47 12 -96 12q-48 0 -81 -12.5t-56 -43t-37 -63.5t-33 -92l-37 -121h225l-37 -127h-225l-270 -905h-176z" />
<glyph unicode="g" horiz-adv-x="1200" d="M-115 -147q0 3 4 49h181v-39q3 -164 211 -164q91 0 155 26t103.5 71.5t74.5 121.5q13 27 26 60.5t20.5 57t20.5 64.5t19 60q-138 -158 -342 -158q-160 0 -255 100t-95 267q0 243 150 448q82 111 192 175.5t230 64.5q119 0 201.5 -50.5t117.5 -150.5l51 176h180 q-2 -8 -24.5 -80t-43 -138.5t-24.5 -82.5l-194 -663q-42 -147 -88.5 -236t-108.5 -145q-123 -109 -381 -109q-175 0 -272 66q-48 33 -78.5 90t-30.5 119zM197 377q0 -109 59.5 -177.5t165.5 -68.5q84 0 158.5 40.5t126.5 111.5q60 83 95.5 192t35.5 199q0 112 -63.5 182 t-170.5 70q-90 0 -170 -51t-137 -140q-100 -156 -100 -358z" />
<glyph unicode="h" horiz-adv-x="1193" d="M-59 0l436 1481h182l-182 -617q174 189 377 189q132 0 208 -67t76 -181q0 -67 -43 -217l-174 -588h-180l180 602q33 111 33 170q0 70 -42.5 109t-119.5 39q-131 0 -254 -117q-111 -108 -162 -281l-155 -522h-180z" />
<glyph unicode="i" horiz-adv-x="491" d="M-59 0l301 1032h180l-301 -1032h-180zM305 1278l53 176h201l-53 -176h-201z" />
<glyph unicode="j" horiz-adv-x="495" d="M-369 -395l35 127q58 -4 62 -4q72 0 112 39.5t68 134.5l334 1130h180l-342 -1167q-24 -82 -50.5 -127t-68.5 -78q-82 -61 -209 -61q-62 0 -121 6zM303 1278l53 176h203l-53 -176h-203z" />
<glyph unicode="k" horiz-adv-x="1062" d="M-59 0l436 1481h178l-438 -1481h-176zM295 588l569 446h236l-611 -459l381 -575h-215z" />
<glyph unicode="l" horiz-adv-x="491" d="M-59 0l436 1481h178l-434 -1481h-180z" />
<glyph unicode="m" horiz-adv-x="1857" d="M-59 0l217 723q12 40 82 309h176l-47 -182q174 203 395 203q110 0 179 -58t73 -164q173 222 405 222q139 0 210 -68t71 -176q0 -71 -43 -217l-178 -592h-181l179 592q32 110 32 184q0 66 -38 106t-107 40q-85 0 -167.5 -49t-141.5 -132q-65 -91 -117 -268l-141 -473h-178 l174 586q39 129 39 190q0 62 -37.5 104t-110.5 42q-132 0 -245 -113.5t-162 -278.5l-158 -530h-180z" />
<glyph unicode="n" horiz-adv-x="1193" d="M-59 0l229 766q45 149 72 266h180l-45 -168q174 189 377 189q132 0 208 -67t76 -181q0 -71 -43 -217l-174 -588h-180l180 602q33 112 33 172q0 67 -42.5 106.5t-119.5 39.5q-134 0 -254 -117q-110 -107 -162 -281l-155 -522h-180z" />
<glyph unicode="o" horiz-adv-x="1167" d="M0 358q0 140 48.5 271t133.5 227q177 201 455 201q189 0 298 -99.5t109 -267.5q0 -131 -44.5 -261.5t-120.5 -233.5q-156 -215 -465 -215q-197 0 -305.5 102t-108.5 276zM182 350q0 -116 66.5 -182t183.5 -66q109 0 196.5 62t143.5 178q86 177 86 340q0 252 -242 252 q-198 0 -329 -215q-50 -84 -77.5 -181t-27.5 -188z" />
<glyph unicode="p" horiz-adv-x="1204" d="M-176 -387l344 1145q53 175 78 274h178l-37 -133q161 156 352 156q168 0 253 -101t85 -270q0 -135 -43 -265.5t-121 -228.5q-170 -210 -415 -210q-114 0 -198 50.5t-126 153.5l-172 -571h-178zM242 340q0 -103 65.5 -170.5t171.5 -67.5q185 0 309 197q50 77 79.5 177.5 t29.5 189.5q0 122 -52.5 191t-158.5 69q-101 0 -190 -57.5t-150 -166.5q-104 -187 -104 -362z" />
<glyph unicode="q" horiz-adv-x="1236" d="M4 350q0 148 59 295t160 248q78 78 178 121t209 43q115 0 195.5 -50t118.5 -149l55 174h182q-62 -178 -96 -301l-336 -1118h-180l160 524q-81 -83 -165 -119t-192 -36q-164 0 -256 99.5t-92 268.5zM190 356q0 -113 59 -179t167 -66q107 0 194.5 61t147.5 172 q44 82 71 177t27 175q0 109 -61.5 171.5t-169.5 62.5q-184 0 -310 -180q-125 -181 -125 -394z" />
<glyph unicode="r" horiz-adv-x="772" d="M-59 0l233 807q8 28 15.5 59.5t19 80t20.5 85.5h172l-47 -188q78 105 164 154t191 49q13 0 34.5 -2t32.5 -3l-43 -163q-55 10 -86 10q-131 0 -225.5 -92.5t-147.5 -270.5l-157 -526h-176z" />
<glyph unicode="s" horiz-adv-x="944" d="M-76 283v30h174q-2 -19 2 -47q12 -82 72 -124t154 -42q103 0 176 50.5t73 134.5q0 53 -27.5 87t-92.5 64l-136 62q-120 54 -169.5 109t-49.5 143q0 95 57 165.5t151.5 106t211.5 35.5q102 0 184 -31.5t121 -87.5q45 -62 45 -168v-20h-178v11q0 84 -44 129q-48 48 -148 48 q-95 0 -159.5 -44.5t-64.5 -113.5q0 -48 33 -81t105 -68l118 -56q110 -52 154 -92q70 -67 70 -168q0 -108 -63.5 -185t-164.5 -113.5t-227 -36.5q-57 0 -110 11t-102 35t-85.5 59t-58 86t-21.5 112z" />
<glyph unicode="t" horiz-adv-x="659" d="M35 905l39 127h211l55 191l203 86l-80 -277h246l-39 -127h-246l-166 -565q-27 -89 -27 -127q0 -88 115 -88q51 0 117 14l-35 -127q-87 -20 -149 -20q-232 0 -232 184q0 64 31 166l170 563h-213z" />
<glyph unicode="u" horiz-adv-x="1189" d="M4 227q0 71 43 217l174 588h178l-178 -602q-33 -120 -33 -174q0 -68 40 -105.5t120 -37.5q137 0 256 116q106 104 160 281l158 522h180l-230 -766q-13 -43 -71 -266h-180l43 168q-89 -96 -179.5 -142t-195.5 -46q-134 0 -209.5 66t-75.5 181z" />
<glyph unicode="v" horiz-adv-x="1042" d="M63 1032h195l74 -876l553 876h200l-700 -1032h-192z" />
<glyph unicode="w" horiz-adv-x="1738" d="M80 1032h196l23 -860l541 860h209l10 -846l516 846h203l-682 -1032h-187l-16 850l-541 -850h-200z" />
<glyph unicode="x" horiz-adv-x="1017" d="M-182 0l522 539l-240 493h213l164 -387l357 387h210l-497 -510l244 -522h-199l-182 418l-383 -418h-209z" />
<glyph unicode="y" horiz-adv-x="1036" d="M10 -387l238 379l-193 1042h199l119 -856l520 854h186l-663 -1046l-219 -373h-187z" />
<glyph unicode="z" horiz-adv-x="911" d="M-113 0l35 135l733 772h-567l37 125h776l-39 -131l-729 -776h602l-39 -125h-809z" />
<glyph unicode="{" horiz-adv-x="759" d="M0 539l29 100q180 12 262 106q32 37 61.5 108.5t62 176t42.5 131.5q42 115 100.5 179t159.5 102q88 33 227 39l-26 -97q-132 -6 -213 -75q-47 -40 -83.5 -110t-55 -135.5t-45.5 -149t-52 -134.5q-47 -94 -116 -140t-187 -56q83 -20 133 -70q51 -51 51 -131 q0 -17 -5.5 -53t-6.5 -41q-7 -47 -44.5 -170t-37.5 -185q0 -40 22 -71.5t60 -48.5q40 -18 108 -23l-28 -96q-1 0 -11.5 1t-11.5 1q-138 7 -211 69.5t-73 161.5q0 83 47 236.5t47 214.5q0 78 -82 125q-49 27 -123 35z" />
<glyph unicode="|" horiz-adv-x="514" d="M178 -438v2048h156v-2048h-156z" />
<glyph unicode="}" horiz-adv-x="759" d="M-252 -305l29 96q149 8 237 103q49 55 83 141.5t65.5 192t62.5 167.5q47 94 116.5 140.5t186.5 56.5q-82 21 -131 67q-51 48 -51 142q0 73 46 219.5t46 216.5q0 73 -50 107t-138 42l26 95h19q128 0 209.5 -62.5t81.5 -163.5q0 -79 -47 -237t-47 -221q0 -64 36 -97 q52 -49 166 -61l-28 -100q-82 -5 -139.5 -25t-97.5 -59.5t-65 -87t-49 -121.5q-6 -18 -24.5 -77.5t-26 -79.5t-25 -67.5t-30.5 -70.5t-34 -57t-44.5 -58t-52.5 -45q-118 -88 -330 -96z" />
<glyph unicode="~" horiz-adv-x="1290" d="M37 352q13 59 33 105t41 78q44 64 102 92q57 26 119 26q126 -16 194 -39q17 -6 52 -19.5t53 -19.5q46 -18 90 -32q67 -23 100 -29q20 -4 60 -4t67 12q31 12 60 49q29 40 41 93h104q-8 -42 -29 -97q-10 -28 -39 -75q-44 -67 -104 -99q-54 -28 -121 -28q-52 0 -121 16 q-21 5 -151 51q-46 17 -109 39q-107 39 -170 39q-39 0 -67 -14q-37 -18 -62 -54q-31 -47 -39 -90h-104z" />
<glyph unicode="&#xa1;" horiz-adv-x="610" d="M-117 -403l367 1122h147l-295 -1122h-219zM266 883l58 194h204l-59 -194h-203z" />
<glyph unicode="&#xa2;" d="M66 344q0 150 60 293.5t163 245.5q170 170 428 170q44 0 108 -11l105 183h112l-120 -211q143 -65 143 -217q0 -46 -16 -117h-177q15 59 15 94q0 88 -33 121l-446 -782q37 -11 75 -11q108 0 185.5 59t113.5 163h185q-55 -161 -185.5 -251.5t-316.5 -90.5q-59 0 -127 14 l-107 -186h-108l125 217q-89 44 -135.5 126t-46.5 191zM248 342q0 -131 76 -188l438 776q-23 6 -62 6q-106 0 -195 -62.5t-153 -171.5q-48 -80 -76 -176.5t-28 -183.5z" />
<glyph unicode="&#xa3;" d="M-78 0l41 143h127l172 598h-160l41 136h154q22 73 43 133.5t52 127t64.5 118t78.5 99.5t96.5 79.5t118 50t141.5 18.5q102 0 188 -35.5t133 -97.5q51 -67 54 -164q0 -33 -6 -63h-185q6 27 6 45q0 78 -55.5 128t-146.5 50q-61 0 -116 -29t-96 -78.5t-71.5 -105 t-52.5 -119.5q-8 -23 -24.5 -76t-26.5 -81h327l-39 -136h-325l-174 -598h651l-43 -143h-967z" />
<glyph unicode="&#xa4;" d="M111 1124l96 95l131 -132q59 38 90 50q75 34 164 34q94 0 172 -34q35 -14 90 -50l131 130l92 -93l-129 -133q43 -61 64 -125q20 -61 20 -133q0 -85 -35 -166q-11 -27 -51 -90l133 -131l-94 -96l-133 133q-44 -32 -84 -49q-78 -37 -170 -37q-88 0 -166 35q-40 17 -45 20 q-9 5 -25.5 16.5t-21.5 14.5l-133 -133l-94 96l131 131q-40 63 -51 90q-33 76 -33 170q0 78 33 162q14 32 20 43q11 23 31 49zM301 733q0 -48 21 -106q18 -52 55 -92q39 -45 100 -70q62 -27 119 -27q48 0 106 21q52 19 91 55q46 40 71 98q27 62 27 121q0 61 -25 119 q-22 54 -71 100q-45 41 -93 58q-50 18 -106 18q-54 0 -104 -18q-51 -18 -95 -58q-47 -41 -71 -100q-25 -58 -25 -119z" />
<glyph unicode="&#xa5;" d="M106 375l35 117h305q5 22 41 141h-305l35 119h236l-230 729h207l197 -688l581 688h215l-641 -729h236l-35 -119h-305q-12 -37 -41 -141h305l-35 -117h-303l-108 -375h-191l109 375h-308z" />
<glyph unicode="&#xa6;" horiz-adv-x="514" d="M178 -182v512h156v-512h-156zM178 842v512h156v-512h-156z" />
<glyph unicode="&#xa7;" horiz-adv-x="1216" d="M84 27l39 131q139 -60 278 -60q119 0 193 49q82 55 82 138q0 56 -62 100q-27 20 -145 84q-131 71 -168 113q-51 57 -51 127q0 133 137 219q70 44 180 78q-137 90 -137 208q0 88 56 155t143.5 100.5t189.5 33.5q128 0 289 -49l-37 -129q-142 51 -252 51q-79 0 -143 -39.5 t-64 -99.5q0 -30 17.5 -53.5t60.5 -53.5q5 -7 91 -64.5t93 -68.5q67 -48 95 -91t28 -99q0 -59 -29 -112.5t-81 -90.5q-56 -41 -162 -86q49 -30 74 -53q63 -54 63 -146q0 -110 -63 -190t-163 -118t-224 -38q-188 0 -328 54zM436 743q0 -58 60 -104q52 -34 106 -64 q86 34 135 70q78 56 78 131q0 51 -53 98q-11 10 -22 18.5t-31.5 23t-36.5 26.5q-94 -34 -146 -65q-90 -54 -90 -134z" />
<glyph unicode="&#xa8;" horiz-adv-x="544" d="M147 1276l58 180h172l-58 -180h-172zM520 1276l58 180h172l-58 -180h-172z" />
<glyph unicode="&#xa9;" horiz-adv-x="1636" d="M53 741q0 162 68 314q71 154 186 258q103 92 240 147q128 49 276 49q144 0 277 -51q130 -52 237 -145q122 -110 187 -258q67 -150 67 -314q0 -141 -51 -274q-55 -137 -147 -240q-108 -120 -258 -186q-147 -66 -312 -66q-166 0 -313 66q-147 64 -258 188q-96 106 -148 238 q-51 133 -51 274zM141 741q0 -123 45 -241q48 -121 131 -213q96 -107 230 -166q136 -60 276 -60q139 0 275 60q132 59 229 166q84 93 131 211q45 118 45 243q0 148 -57 277t-168 229q-93 84 -211 131q-118 45 -244 45q-127 0 -245 -45q-121 -48 -211 -129 q-111 -100 -168 -229q-58 -132 -58 -279zM451 743q0 100 22 183q24 87 80 153q50 60 125 90q68 27 153 27q81 0 150 -29q73 -30 115 -94q32 -53 32 -110h-112q-3 28 -15 49q-8 19 -26 37q-30 30 -66 41q-37 12 -80 12q-113 0 -182 -82q-41 -50 -59 -123q-19 -71 -19 -149 q0 -167 76 -271q22 -32 57 -53q32 -18 60 -25q40 -8 67 -8q37 0 84 15q40 15 68 43q34 34 43 86h113q-7 -42 -17 -66q-12 -34 -33 -61q-40 -54 -118 -84q-73 -27 -148 -27q-97 0 -170 37q-105 52 -155 168q-45 106 -45 241z" />
<glyph unicode="&#xaa;" horiz-adv-x="698" d="M143 1024q0 77 50.5 133t134.5 80q69 19 221 23h55q12 47 12 49q5 25 5 39q0 31 -25.5 49t-69.5 18q-106 0 -143 -88h-131q21 68 84 117q76 57 203 57q202 0 202 -147q0 -47 -22 -111q-4 -13 -51 -162q-3 -11 -37 -143l-10 -55h-119l14 63q-58 -40 -102 -57t-97 -17 q-78 0 -126 41.5t-48 110.5zM266 1036q0 -38 25 -59t67 -21q90 0 150 70q22 25 36 55.5t31 92.5q-51 2 -55 2q-119 0 -186.5 -34.5t-67.5 -105.5z" />
<glyph unicode="&#xab;" horiz-adv-x="1009" d="M78 567l325 351h150l-315 -377l79 -420h-141zM475 567l324 351h147l-313 -379l80 -418h-142z" />
<glyph unicode="&#xac;" horiz-adv-x="1290" d="M74 637v143h1038v-547h-149v404h-889z" />
<glyph unicode="&#xad;" horiz-adv-x="718" d="M29 477l39 133h528l-39 -133h-528z" />
<glyph unicode="&#xae;" horiz-adv-x="978" d="M233 1120q0 160 111.5 271.5t271.5 111.5t272.5 -111.5t112.5 -271.5t-112.5 -272.5t-272.5 -112.5t-271.5 112.5t-111.5 272.5zM303 1120q0 -134 90 -228.5t223 -94.5t224.5 94.5t91.5 228.5t-91.5 228t-224.5 94t-223 -94t-90 -228zM479 926v397h144q73 0 102 -23 q35 -25 35 -77q0 -38 -23 -64q-19 -22 -55 -31q39 -8 53 -34q6 -12 10 -28.5t5.5 -28.5t3 -32t2.5 -28q4 -34 14 -51h-70q-7 14 -10 53q-6 73 -14 90q-7 18 -18.5 23.5t-32.5 5.5h-84v-172h-62zM541 1145h57q45 0 70.5 13.5t25.5 53.5q0 64 -86 64h-67v-131z" />
<glyph unicode="&#xaf;" horiz-adv-x="542" d="M135 1266l23 104h571l-24 -104h-570z" />
<glyph unicode="&#xb0;" horiz-adv-x="845" d="M248 1188q0 73 26 129q25 58 78 104q44 41 99 62q50 20 112 20q63 0 113 -20q53 -20 98 -62q49 -43 76 -104q29 -63 29 -129t-29 -129q-27 -62 -76 -105t-98 -61q-61 -21 -113 -21q-119 0 -211 82q-52 46 -78 105q-26 56 -26 129zM377 1188q0 -38 12 -68q13 -31 35 -57 q33 -33 63 -45q39 -17 76 -17t76 17q36 14 63 45q22 26 35 57q13 32 13 68q0 35 -17 74q-15 38 -45 65q-26 22 -57 35q-30 12 -68 12q-37 0 -67 -12q-33 -13 -58 -35q-33 -30 -47 -65q-14 -32 -14 -74z" />
<glyph unicode="&#xb1;" horiz-adv-x="1290" d="M74 -31v146h1038v-146h-1038zM74 551v143h442v353h156v-353h440v-143h-440v-348h-156v348h-442z" />
<glyph unicode="&#xb2;" horiz-adv-x="784" d="M61 631l29 104q78 50 103 64q234 145 350 250q153 138 153 245q0 47 -34.5 77t-88.5 30q-62 0 -109.5 -39t-74.5 -109h-137q30 115 124.5 181.5t217.5 66.5q108 0 172.5 -51t64.5 -141q0 -91 -61.5 -174t-179.5 -187q-102 -89 -303 -211h395l-31 -106h-590z" />
<glyph unicode="&#xb3;" horiz-adv-x="784" d="M94 823q0 6 1 14t2.5 18t2.5 15h133q-2 -8 -2 -28q0 -59 41.5 -92t112.5 -33q90 0 151.5 52t61.5 134q0 58 -46.5 88.5t-125.5 30.5h-33l29 100h51q103 0 166 43t63 125q0 56 -39.5 84.5t-107.5 28.5q-139 0 -190 -148h-134q33 122 123 184t219 62q113 0 187 -52.5 t74 -145.5q0 -88 -60.5 -153.5t-152.5 -84.5q106 -45 106 -158q0 -129 -104 -210t-248 -81q-123 0 -202 55.5t-79 151.5z" />
<glyph unicode="&#xb4;" horiz-adv-x="542" d="M262 1186l256 297h213l-332 -297h-137z" />
<glyph unicode="&#xb6;" horiz-adv-x="1286" d="M166 913q0 106 38.5 198.5t105 159.5t155 115t190 71.5t207.5 23.5h426l-440 -1481h-150l402 1358h-240l-403 -1358h-150l182 606q-146 14 -234.5 92.5t-88.5 214.5z" />
<glyph unicode="&#xb7;" horiz-adv-x="593" d="M150 553l57 207h203l-58 -207h-202z" />
<glyph unicode="&#xb8;" horiz-adv-x="542" d="M-125 -375l33 66q68 -41 164 -41q54 0 87.5 24.5t33.5 69.5q0 36 -28.5 57t-72.5 21q-32 0 -78 -17l-34 29l151 180h78l-113 -135q41 8 72 8q68 0 111 -35t43 -94q0 -84 -73.5 -131t-180.5 -47q-102 0 -193 45z" />
<glyph unicode="&#xb9;" horiz-adv-x="782" d="M313 1227l37 121q131 48 252 135h119l-256 -854h-131l211 700q-85 -52 -232 -102z" />
<glyph unicode="&#xba;" horiz-adv-x="763" d="M174 1077q0 42 10 97q31 146 136.5 237.5t242.5 91.5q108 0 173 -57t65 -154q0 -99 -90 -248q-108 -176 -299 -176q-110 0 -174 55.5t-64 153.5zM301 1087q0 -58 33.5 -93.5t93.5 -35.5q126 0 205 172q37 81 37 150q0 131 -121 131q-99 0 -176 -115q-72 -104 -72 -209z " />
<glyph unicode="&#xbb;" horiz-adv-x="1011" d="M-43 121l315 379l-77 418h137l100 -447l-328 -350h-147zM352 121l318 377l-82 420h143l96 -447l-323 -350h-152z" />
<glyph unicode="&#xbc;" horiz-adv-x="1880" d="M305 1227l37 121q131 48 252 135h119l-256 -854h-131l211 700q-85 -52 -232 -102zM371 -49l966 1540h138l-969 -1540h-135zM1001 186l33 117l543 553h160l-172 -573h145l-33 -97h-143l-53 -186h-127l55 186h-408zM1153 283h285l133 432z" />
<glyph unicode="&#xbd;" horiz-adv-x="1880" d="M301 1227l37 121q131 48 252 135h119l-256 -854h-131l210 700q-86 -53 -231 -102zM354 -49l971 1540h129l-965 -1540h-135zM977 0l31 104q145 86 282 181q324 224 324 377q0 47 -34.5 77.5t-88.5 30.5q-63 0 -111.5 -38.5t-74.5 -108.5h-136q30 116 124.5 181.5 t217.5 65.5q109 0 173.5 -51t64.5 -141q0 -62 -35 -127.5t-83 -117t-124 -116.5q-129 -107 -303 -213h393l-30 -104h-590z" />
<glyph unicode="&#xbe;" horiz-adv-x="1880" d="M88 823q0 15 4 47h133q-2 -8 -2 -28q0 -59 41.5 -92t112.5 -33q90 0 151.5 52t61.5 134q0 58 -45.5 88.5t-124.5 30.5h-35l29 100h51q103 0 166 43t63 125q0 56 -38.5 84.5t-106.5 28.5q-142 0 -193 -148h-133q33 121 123.5 183.5t220.5 62.5q113 0 185.5 -52t72.5 -146 q0 -88 -60.5 -153.5t-152.5 -84.5q52 -22 80.5 -62.5t28.5 -95.5q0 -129 -105 -210t-249 -81q-123 0 -201 55.5t-78 151.5zM399 -49q162 257 485.5 770t485.5 770h133q-441 -704 -968 -1540h-136zM1028 186l33 117l543 553h159l-172 -573h148l-33 -97h-141l-58 -186h-127 l56 186h-408zM1180 283h286l131 432z" />
<glyph unicode="&#xbf;" horiz-adv-x="1067" d="M-80 -150q0 46 12 91t28.5 80.5t49 75t56.5 65.5t69.5 62.5t69.5 55t74.5 54.5t68.5 49q73 53 105.5 91.5t52.5 96.5q23 71 41 148h158q-48 -190 -72 -240q-20 -43 -57.5 -81.5t-98.5 -86.5q-25 -20 -76 -57.5t-82.5 -62t-73.5 -63.5t-66.5 -72t-42 -76.5t-17.5 -88.5 q0 -88 65.5 -132t163.5 -44q111 0 242 41l-41 -151q-154 -33 -252 -33q-60 0 -113.5 9t-102.5 29.5t-84 52t-56 79.5t-21 108zM571 883l60 194h205l-62 -194h-203z" />
<glyph unicode="&#xc0;" horiz-adv-x="1417" d="M-184 0l1020 1481h215l184 -1481h-193l-43 391h-718l-261 -391h-204zM375 535h606l-80 788zM735 1862h205l154 -297h-131z" />
<glyph unicode="&#xc1;" horiz-adv-x="1417" d="M-184 0l1020 1481h215l184 -1481h-193l-43 391h-718l-261 -391h-204zM375 535h606l-80 788zM797 1565l256 297h213l-332 -297h-137z" />
<glyph unicode="&#xc2;" horiz-adv-x="1417" d="M-184 0l1020 1481h215l184 -1481h-193l-43 391h-718l-261 -391h-204zM375 535h606l-80 788zM635 1565l293 293h174l162 -293h-144l-121 202l-211 -202h-153z" />
<glyph unicode="&#xc3;" horiz-adv-x="1417" d="M-184 0l1020 1481h215l184 -1481h-193l-43 391h-718l-261 -391h-204zM375 535h606l-80 788zM600 1589q25 100 86 158.5t143 58.5q45 0 82 -18q5 -1 41.5 -19.5t40.5 -19.5q41 -19 55 -25.5t31 -11t33 -4.5q67 0 100 96h99q-25 -96 -86 -156.5t-138 -60.5q-52 0 -116 33 q-4 1 -38 18.5t-36 18.5q-59 29 -94 29q-70 0 -107 -97h-96z" />
<glyph unicode="&#xc4;" horiz-adv-x="1417" d="M-184 0l1020 1481h215l184 -1481h-193l-43 391h-718l-261 -391h-204zM375 535h606l-80 788zM698 1655l58 180h172l-58 -180h-172zM1071 1655l57 180h172l-57 -180h-172z" />
<glyph unicode="&#xc5;" horiz-adv-x="1417" d="M-184 0l1020 1481h215l184 -1481h-193l-43 391h-718l-261 -391h-204zM375 535h606l-80 788zM766 1745q0 86 61 145.5t146 59.5q88 0 147.5 -59.5t59.5 -145.5t-60.5 -146.5t-146.5 -60.5q-85 0 -146 60.5t-61 146.5zM844 1745q0 -53 38 -91t91 -38q54 0 90.5 37.5 t36.5 91.5q0 53 -37.5 91t-89.5 38q-53 0 -91 -37.5t-38 -91.5z" />
<glyph unicode="&#xc6;" horiz-adv-x="1980" d="M-203 0l1186 1481h1090l-48 -152h-763l-72 -493h653l-45 -148h-631l-75 -536h612l-45 -152h-780l55 383h-619l-303 -383h-215zM424 526h534l121 834l4 6l-1 -1v-1l-1 -1l-1 -2q-138 -175 -656 -835z" />
<glyph unicode="&#xc7;" horiz-adv-x="1361" d="M76 465q0 197 77.5 408t208.5 360q237 268 578 268q210 0 332.5 -91.5t122.5 -256.5q0 -33 -9 -86h-202q6 59 6 78q0 97 -73.5 153t-194.5 56q-126 0 -238 -65.5t-199 -188.5q-96 -137 -150 -304t-54 -329q0 -67 20 -126.5t60 -108t107 -77t153 -28.5q125 0 222 65.5 t144 180.5h207q-78 -207 -231.5 -300t-397.5 -93l-84 -101q41 8 72 8q68 0 111 -35t43 -94q0 -84 -73 -131t-181 -47q-102 0 -193 45l35 66q68 -41 162 -41q54 0 88.5 25t34.5 69q0 36 -29.5 57t-75.5 21q-30 0 -76 -17l-34 29l131 154q-209 34 -314.5 163.5t-105.5 313.5z " />
<glyph unicode="&#xc8;" horiz-adv-x="1267" d="M-2 0l434 1481h928l-47 -152h-731l-148 -493h696l-43 -146h-694l-160 -538h758l-45 -152h-948zM719 1862h205l153 -297h-131z" />
<glyph unicode="&#xc9;" horiz-adv-x="1267" d="M-2 0l434 1481h928l-47 -152h-731l-148 -493h696l-43 -146h-694l-160 -538h758l-45 -152h-948zM776 1565l256 297h213l-332 -297h-137z" />
<glyph unicode="&#xca;" horiz-adv-x="1267" d="M-2 0l434 1481h928l-47 -152h-731l-148 -493h696l-43 -146h-694l-160 -538h758l-45 -152h-948zM602 1565l293 293h174l162 -293h-144l-120 202l-211 -202h-154z" />
<glyph unicode="&#xcb;" horiz-adv-x="1267" d="M-2 0l434 1481h928l-47 -152h-731l-148 -493h696l-43 -146h-694l-160 -538h758l-45 -152h-948zM653 1655l58 180h172l-58 -180h-172zM1026 1655l57 180h172l-57 -180h-172z" />
<glyph unicode="&#xcc;" horiz-adv-x="622" d="M-2 0l434 1481h193l-435 -1481h-192zM338 1862h205l153 -297h-131z" />
<glyph unicode="&#xcd;" horiz-adv-x="622" d="M-2 0l434 1481h193l-435 -1481h-192zM410 1565l256 297h213l-332 -297h-137z" />
<glyph unicode="&#xce;" horiz-adv-x="622" d="M-2 0l434 1481h193l-435 -1481h-192zM231 1565l293 293h174l162 -293h-143l-121 202l-211 -202h-154z" />
<glyph unicode="&#xcf;" horiz-adv-x="622" d="M-2 0l434 1481h193l-435 -1481h-192zM293 1655l57 180h172l-57 -180h-172zM666 1655l57 180h172l-57 -180h-172z" />
<glyph unicode="&#xd0;" horiz-adv-x="1536" d="M-2 0l223 756h-141l33 116h143l178 609h432q105 0 194 -18t164.5 -57t129 -97t83 -142.5t29.5 -189.5q0 -282 -137 -543q-68 -132 -172.5 -229t-234.5 -146q-153 -59 -412 -59h-512zM236 150h249q108 0 162.5 4.5t110.5 19.5q129 34 220.5 107.5t158.5 199.5 q60 109 94.5 237t34.5 245q0 103 -33 176.5t-95.5 114.5t-141.5 59t-183 18h-231l-136 -459h410l-33 -116h-409z" />
<glyph unicode="&#xd1;" horiz-adv-x="1617" d="M6 0l432 1481h271l346 -1317l381 1317h184l-438 -1481h-271l-342 1313l-379 -1313h-184zM725 1589q25 99 86.5 158t142.5 59q45 0 82 -18q8 -2 82 -39q41 -19 55 -25.5t31 -11t33 -4.5q67 0 100 96h99q-25 -96 -86 -156.5t-138 -60.5q-52 0 -116 33q-4 1 -38 18.5 t-36 18.5q-59 29 -94 29q-70 0 -107 -97h-96z" />
<glyph unicode="&#xd2;" horiz-adv-x="1552" d="M76 485q0 185 64.5 370.5t176.5 334.5q236 309 629 309q250 0 393.5 -135.5t143.5 -368.5q0 -176 -64.5 -359t-165.5 -323q-119 -166 -273 -252t-362 -86q-248 0 -395 136.5t-147 373.5zM272 494q0 -167 97 -268t266 -101q122 0 232.5 61t197.5 170q103 132 160 299 t57 328q0 171 -91.5 270t-262.5 99q-308 0 -498 -322q-72 -121 -115 -268t-43 -268zM817 1862h205l154 -297h-132z" />
<glyph unicode="&#xd3;" horiz-adv-x="1552" d="M76 485q0 185 64.5 370.5t176.5 334.5q236 309 629 309q250 0 393.5 -135.5t143.5 -368.5q0 -176 -64.5 -359t-165.5 -323q-119 -166 -273 -252t-362 -86q-248 0 -395 136.5t-147 373.5zM272 494q0 -167 97 -268t266 -101q122 0 232.5 61t197.5 170q103 132 160 299 t57 328q0 171 -91.5 270t-262.5 99q-308 0 -498 -322q-72 -121 -115 -268t-43 -268zM872 1565l256 297h213l-331 -297h-138z" />
<glyph unicode="&#xd4;" horiz-adv-x="1552" d="M76 485q0 185 64.5 370.5t176.5 334.5q236 309 629 309q250 0 393.5 -135.5t143.5 -368.5q0 -176 -64.5 -359t-165.5 -323q-119 -166 -273 -252t-362 -86q-248 0 -395 136.5t-147 373.5zM272 494q0 -167 97 -268t266 -101q122 0 232.5 61t197.5 170q103 132 160 299 t57 328q0 171 -91.5 270t-262.5 99q-308 0 -498 -322q-72 -121 -115 -268t-43 -268zM698 1565l293 293h174l162 -293h-143l-121 202l-211 -202h-154z" />
<glyph unicode="&#xd5;" horiz-adv-x="1552" d="M76 485q0 185 64.5 370.5t176.5 334.5q236 309 629 309q250 0 393.5 -135.5t143.5 -368.5q0 -176 -64.5 -359t-165.5 -323q-119 -166 -273 -252t-362 -86q-248 0 -395 136.5t-147 373.5zM272 494q0 -167 97 -268t266 -101q122 0 232.5 61t197.5 170q103 132 160 299 t57 328q0 171 -91.5 270t-262.5 99q-308 0 -498 -322q-72 -121 -115 -268t-43 -268zM686 1589q27 100 87.5 158.5t141.5 58.5q47 0 82 -18q7 -1 82 -39q7 -3 20.5 -9.5t18 -8.5t14.5 -6.5t14 -5.5t11 -4t10.5 -3.5t9.5 -1.5t10.5 -1.5t10.5 -0.5q67 0 100 96h99 q-24 -96 -84.5 -156.5t-138.5 -60.5q-49 0 -117 33q-2 1 -36 18.5t-38 18.5q-57 29 -94 29q-70 0 -107 -97h-96z" />
<glyph unicode="&#xd6;" horiz-adv-x="1552" d="M76 485q0 185 64.5 370.5t176.5 334.5q236 309 629 309q250 0 393.5 -135.5t143.5 -368.5q0 -176 -64.5 -359t-165.5 -323q-119 -166 -273 -252t-362 -86q-248 0 -395 136.5t-147 373.5zM272 494q0 -167 97 -268t266 -101q122 0 232.5 61t197.5 170q103 132 160 299 t57 328q0 171 -91.5 270t-262.5 99q-308 0 -498 -322q-72 -121 -115 -268t-43 -268zM750 1655l57 180h172l-57 -180h-172zM1122 1655l58 180h172l-58 -180h-172z" />
<glyph unicode="&#xd7;" horiz-adv-x="1290" d="M96 121l389 387l-389 387l109 106l385 -387l387 385l106 -104l-385 -387l385 -387l-104 -107l-389 387l-385 -385z" />
<glyph unicode="&#xd8;" horiz-adv-x="1552" d="M-49 25l194 180q-69 120 -69 280q0 186 64 371t177 334q236 309 623 309q273 0 424 -160l197 183l65 -78l-205 -189q62 -118 62 -262q0 -174 -64.5 -356.5t-165.5 -323.5q-243 -338 -637 -338q-257 0 -407 150l-193 -178zM272 494q0 -80 27 -150l926 868 q-94 142 -297 142q-307 0 -500 -324q-71 -120 -113.5 -267.5t-42.5 -268.5zM344 250q98 -125 291 -125q122 0 231.5 60.5t196.5 170.5q103 132 161 300t58 327q0 55 -20 127z" />
<glyph unicode="&#xd9;" horiz-adv-x="1540" d="M102 377q0 137 52 303l237 801h195l-258 -881q-37 -121 -37 -201q0 -127 83 -200.5t240 -73.5q130 0 232 54.5t164 154.5q63 102 123 309l245 838h193l-266 -897q-55 -177 -101 -265q-88 -169 -245 -255.5t-375 -86.5q-225 0 -353.5 107.5t-128.5 292.5zM805 1862h205 l153 -297h-131z" />
<glyph unicode="&#xda;" horiz-adv-x="1540" d="M102 377q0 137 52 303l237 801h195l-258 -881q-37 -121 -37 -201q0 -127 83 -200.5t240 -73.5q130 0 232 54.5t164 154.5q63 102 123 309l245 838h193l-266 -897q-55 -177 -101 -265q-88 -169 -245 -255.5t-375 -86.5q-225 0 -353.5 107.5t-128.5 292.5zM852 1565 l256 297h213l-332 -297h-137z" />
<glyph unicode="&#xdb;" horiz-adv-x="1540" d="M102 377q0 137 52 303l237 801h195l-258 -881q-37 -121 -37 -201q0 -127 83 -200.5t240 -73.5q130 0 232 54.5t164 154.5q63 102 123 309l245 838h193l-266 -897q-55 -177 -101 -265q-88 -169 -245 -255.5t-375 -86.5q-225 0 -353.5 107.5t-128.5 292.5zM682 1565 l293 293h174l162 -293h-144l-120 202l-211 -202h-154z" />
<glyph unicode="&#xdc;" horiz-adv-x="1540" d="M102 377q0 137 52 303l237 801h195l-258 -881q-37 -121 -37 -201q0 -127 83 -200.5t240 -73.5q130 0 232 54.5t164 154.5q63 102 123 309l245 838h193l-266 -897q-55 -177 -101 -265q-88 -169 -245 -255.5t-375 -86.5q-225 0 -353.5 107.5t-128.5 292.5zM739 1655l58 180 h172l-58 -180h-172zM1112 1655l57 180h172l-57 -180h-172z" />
<glyph unicode="&#xdd;" d="M141 1481h209l264 -709l584 709h223l-755 -867l-181 -614h-192l188 633zM643 1565l256 297h213l-332 -297h-137z" />
<glyph unicode="&#xde;" horiz-adv-x="1292" d="M-2 0l434 1481h191l-78 -267h303q184 0 298 -86.5t114 -248.5q0 -138 -66.5 -255t-179.5 -184q-68 -41 -155.5 -58t-225.5 -17h-338l-107 -365h-190zM340 514h313q109 0 173 18.5t116 65.5q119 106 119 254q0 130 -105 182q-59 29 -194 29h-262z" />
<glyph unicode="&#xdf;" horiz-adv-x="1280" d="M-59 0q108 352 180.5 594t90.5 308l19 65q22 71 42 125.5t48.5 112t60 99t75.5 80t95.5 62t118.5 37.5t146 14q171 0 266 -74q105 -77 105 -215q0 -79 -44.5 -143t-119.5 -102q-3 -5 -56.5 -29.5t-56.5 -28.5q-46 -23 -66 -51.5t-20 -71.5q0 -54 47 -98 q108 -108 142 -145q47 -51 68.5 -99.5t21.5 -111.5q0 -104 -59 -183.5t-156.5 -121t-216.5 -41.5q-143 0 -235.5 61.5t-92.5 165.5q0 41 16 96h181q-19 -58 -19 -86q0 -52 46.5 -84.5t115.5 -32.5q112 0 178 55.5t66 145.5q0 55 -24 92.5t-95 110.5q-3 4 -40.5 40.5 t-39.5 41.5q-52 53 -72 93.5t-20 92.5q0 143 170 225q2 3 33.5 16.5t33.5 16.5q69 33 100.5 74t31.5 102q0 77 -56 124.5t-155 47.5q-108 0 -181 -58.5t-127 -160.5q-12 -24 -34 -80.5t-31 -87.5q-225 -745 -301 -993h-180z" />
<glyph unicode="&#xe0;" horiz-adv-x="1099" d="M-51 238q0 107 58.5 189.5t160.5 129.5q119 55 356 70q24 2 47 2.5t71 1t103 2.5l15 57q14 55 14 96q0 154 -190 154q-103 0 -169.5 -47t-86.5 -133h-178q23 142 142.5 217.5t305.5 75.5q163 0 256.5 -63.5t93.5 -182.5q0 -76 -35 -201q-23 -86 -71 -237 q-37 -127 -51 -185q-20 -87 -37 -184h-172q0 9 10 68.5t14 76.5q-153 -163 -360 -163q-131 0 -214 66.5t-83 189.5zM131 256q0 -77 46 -117.5t130 -40.5q163 0 291 176q46 61 84 158q3 7 8.5 23.5t24.5 68.5q-24 -1 -73 -3t-73 -3q-208 -14 -303 -63q-64 -34 -99.5 -85.5 t-35.5 -113.5zM455 1483h204l154 -297h-131z" />
<glyph unicode="&#xe1;" horiz-adv-x="1099" d="M-51 238q0 107 58.5 189.5t160.5 129.5q119 55 356 70q24 2 47 2.5t71 1t103 2.5l15 57q14 55 14 96q0 154 -190 154q-103 0 -169.5 -47t-86.5 -133h-178q23 142 142.5 217.5t305.5 75.5q163 0 256.5 -63.5t93.5 -182.5q0 -76 -35 -201q-23 -86 -71 -237 q-37 -127 -51 -185q-20 -87 -37 -184h-172q0 9 10 68.5t14 76.5q-153 -163 -360 -163q-131 0 -214 66.5t-83 189.5zM131 256q0 -77 46 -117.5t130 -40.5q163 0 291 176q46 61 84 158q3 7 8.5 23.5t24.5 68.5q-24 -1 -73 -3t-73 -3q-208 -14 -303 -63q-64 -34 -99.5 -85.5 t-35.5 -113.5zM537 1186l256 297h213l-332 -297h-137z" />
<glyph unicode="&#xe2;" horiz-adv-x="1099" d="M-51 238q0 107 58.5 189.5t160.5 129.5q119 55 356 70q24 2 47 2.5t71 1t103 2.5l15 57q14 55 14 96q0 154 -190 154q-103 0 -169.5 -47t-86.5 -133h-178q23 142 142.5 217.5t305.5 75.5q163 0 256.5 -63.5t93.5 -182.5q0 -76 -35 -201q-23 -86 -71 -237 q-37 -127 -51 -185q-20 -87 -37 -184h-172q0 9 10 68.5t14 76.5q-153 -163 -360 -163q-131 0 -214 66.5t-83 189.5zM131 256q0 -77 46 -117.5t130 -40.5q163 0 291 176q46 61 84 158q3 7 8.5 23.5t24.5 68.5q-24 -1 -73 -3t-73 -3q-208 -14 -303 -63q-64 -34 -99.5 -85.5 t-35.5 -113.5zM356 1186l293 293h174l162 -293h-143l-121 203l-211 -203h-154z" />
<glyph unicode="&#xe3;" horiz-adv-x="1099" d="M-51 238q0 107 58.5 189.5t160.5 129.5q119 55 356 70q24 2 47 2.5t71 1t103 2.5l15 57q14 55 14 96q0 154 -190 154q-103 0 -169.5 -47t-86.5 -133h-178q23 142 142.5 217.5t305.5 75.5q163 0 256.5 -63.5t93.5 -182.5q0 -76 -35 -201q-23 -86 -71 -237 q-37 -127 -51 -185q-20 -87 -37 -184h-172q0 9 10 68.5t14 76.5q-153 -163 -360 -163q-131 0 -214 66.5t-83 189.5zM131 256q0 -77 46 -117.5t130 -40.5q163 0 291 176q46 61 84 158q3 7 8.5 23.5t24.5 68.5q-24 -1 -73 -3t-73 -3q-208 -14 -303 -63q-64 -34 -99.5 -85.5 t-35.5 -113.5zM338 1210q25 99 86.5 158t142.5 59q39 0 82 -18q4 -1 41 -19.5t41 -19.5q51 -26 73 -33.5t46 -7.5q69 0 100 96h99q-25 -97 -86 -157t-138 -60q-52 0 -116 33q-5 1 -37 17t-37 20q-59 29 -94 29q-70 0 -107 -97h-96z" />
<glyph unicode="&#xe4;" horiz-adv-x="1099" d="M-51 238q0 107 58.5 189.5t160.5 129.5q119 55 356 70q24 2 47 2.5t71 1t103 2.5l15 57q14 55 14 96q0 154 -190 154q-103 0 -169.5 -47t-86.5 -133h-178q23 142 142.5 217.5t305.5 75.5q163 0 256.5 -63.5t93.5 -182.5q0 -76 -35 -201q-23 -86 -71 -237 q-37 -127 -51 -185q-20 -87 -37 -184h-172q0 9 10 68.5t14 76.5q-153 -163 -360 -163q-131 0 -214 66.5t-83 189.5zM131 256q0 -77 46 -117.5t130 -40.5q163 0 291 176q46 61 84 158q3 7 8.5 23.5t24.5 68.5q-24 -1 -73 -3t-73 -3q-208 -14 -303 -63q-64 -34 -99.5 -85.5 t-35.5 -113.5zM418 1276l57 180h172l-57 -180h-172zM791 1276l57 180h172l-57 -180h-172z" />
<glyph unicode="&#xe5;" horiz-adv-x="1099" d="M-51 238q0 107 58.5 189.5t160.5 129.5q119 55 356 70q24 2 47 2.5t71 1t103 2.5l15 57q14 55 14 96q0 154 -190 154q-103 0 -169.5 -47t-86.5 -133h-178q23 142 142.5 217.5t305.5 75.5q163 0 256.5 -63.5t93.5 -182.5q0 -76 -35 -201q-23 -86 -71 -237 q-37 -127 -51 -185q-20 -87 -37 -184h-172q0 9 10 68.5t14 76.5q-153 -163 -360 -163q-131 0 -214 66.5t-83 189.5zM131 256q0 -77 46 -117.5t130 -40.5q163 0 291 176q46 61 84 158q3 7 8.5 23.5t24.5 68.5q-24 -1 -73 -3t-73 -3q-208 -14 -303 -63q-64 -34 -99.5 -85.5 t-35.5 -113.5zM504 1370q0 86 61 145.5t146 59.5q88 0 147.5 -59.5t59.5 -145.5t-60.5 -146.5t-146.5 -60.5q-85 0 -146 60.5t-61 146.5zM582 1370q0 -52 38 -90.5t91 -38.5q54 0 90.5 37.5t36.5 91.5q0 53 -37 91t-90 38t-91 -38.5t-38 -90.5z" />
<glyph unicode="&#xe6;" horiz-adv-x="1742" d="M-51 246q0 70 21.5 125.5t54.5 92t84.5 63.5t99.5 41t111.5 22t109 10t102.5 2h189q12 39 18 57q21 73 21 121q0 73 -45 116.5t-129 43.5q-87 0 -153.5 -48.5t-94.5 -129.5h-188q23 94 90.5 161.5t161.5 100.5t206 33q131 0 208.5 -50t88.5 -135q131 185 373 185 q165 0 254.5 -86t89.5 -248q0 -105 -41 -236h-721q-21 -67 -27 -94.5t-6 -60.5q0 -101 62.5 -165.5t165.5 -64.5q94 0 167.5 56t104.5 149h197q-55 -156 -181 -241.5t-294 -85.5q-136 0 -219.5 54t-124.5 175q-132 -229 -422 -229q-148 0 -241 68.5t-93 197.5zM133 248 q0 -72 49.5 -113t132.5 -41q87 0 150.5 47t124.5 140q34 51 55 92.5t45 113.5h-151q-42 0 -70.5 -1t-74.5 -6t-78.5 -13.5t-69.5 -26.5t-59.5 -42.5t-38 -63t-15.5 -86.5zM897 602h530q21 96 21 141q0 86 -52 137.5t-143 51.5q-149 0 -249 -127q-59 -78 -107 -203z" />
<glyph unicode="&#xe7;" horiz-adv-x="1064" d="M0 344q0 149 60.5 293.5t162.5 245.5q176 170 428 170q156 0 252 -67t96 -189q0 -46 -16 -117h-176q14 55 14 94q0 77 -48 119.5t-138 42.5q-105 0 -195 -62.5t-153 -171.5q-48 -81 -76.5 -177.5t-28.5 -182.5q0 -112 61 -176t175 -64q109 0 185 57t112 160h182 q-55 -158 -179.5 -247.5t-299.5 -89.5h-25l-86 -103q41 8 70 8q68 0 110.5 -35t42.5 -94q0 -84 -73 -131t-181 -47q-101 0 -192 45l35 66q68 -41 162 -41q54 0 88 24.5t34 69.5q0 36 -28.5 57t-73.5 21q-30 0 -76 -17l-35 29l129 152q-153 21 -236 116t-83 242z" />
<glyph unicode="&#xe8;" horiz-adv-x="1105" d="M0 315q0 148 63 306t164 264q163 172 406 172q161 0 256.5 -83.5t95.5 -232.5q0 -124 -49 -256h-733q-25 -89 -25 -161q0 -108 57.5 -167t170.5 -59q105 0 174.5 50t124.5 159h186q-137 -330 -481 -330q-190 0 -300 91.5t-110 246.5zM240 602h546q23 78 23 133 q0 91 -47.5 144t-143.5 53q-173 0 -286 -150q-49 -64 -92 -180zM477 1483h205l154 -297h-131z" />
<glyph unicode="&#xe9;" horiz-adv-x="1105" d="M0 315q0 148 63 306t164 264q163 172 406 172q161 0 256.5 -83.5t95.5 -232.5q0 -124 -49 -256h-733q-25 -89 -25 -161q0 -108 57.5 -167t170.5 -59q105 0 174.5 50t124.5 159h186q-137 -330 -481 -330q-190 0 -300 91.5t-110 246.5zM240 602h546q23 78 23 133 q0 91 -47.5 144t-143.5 53q-173 0 -286 -150q-49 -64 -92 -180zM575 1186l256 297h213l-331 -297h-138z" />
<glyph unicode="&#xea;" horiz-adv-x="1105" d="M0 315q0 148 63 306t164 264q163 172 406 172q161 0 256.5 -83.5t95.5 -232.5q0 -124 -49 -256h-733q-25 -89 -25 -161q0 -108 57.5 -167t170.5 -59q105 0 174.5 50t124.5 159h186q-137 -330 -481 -330q-190 0 -300 91.5t-110 246.5zM240 602h546q23 78 23 133 q0 91 -47.5 144t-143.5 53q-173 0 -286 -150q-49 -64 -92 -180zM389 1186l293 293h174l162 -293h-144l-120 203l-211 -203h-154z" />
<glyph unicode="&#xeb;" horiz-adv-x="1105" d="M0 315q0 148 63 306t164 264q163 172 406 172q161 0 256.5 -83.5t95.5 -232.5q0 -124 -49 -256h-733q-25 -89 -25 -161q0 -108 57.5 -167t170.5 -59q105 0 174.5 50t124.5 159h186q-137 -330 -481 -330q-190 0 -300 91.5t-110 246.5zM240 602h546q23 78 23 133 q0 91 -47.5 144t-143.5 53q-173 0 -286 -150q-49 -64 -92 -180zM459 1276l57 180h172l-57 -180h-172zM831 1276l58 180h172l-57 -180h-173z" />
<glyph unicode="&#xec;" horiz-adv-x="491" d="M-59 0l301 1032h180l-301 -1032h-180zM190 1483h205l154 -297h-131z" />
<glyph unicode="&#xed;" horiz-adv-x="491" d="M-59 0l301 1032h180l-301 -1032h-180zM254 1186l256 297h213l-332 -297h-137z" />
<glyph unicode="&#xee;" horiz-adv-x="491" d="M-59 0l301 1032h180l-301 -1032h-180zM61 1186l293 293h174l162 -293h-143l-121 203l-211 -203h-154z" />
<glyph unicode="&#xef;" horiz-adv-x="491" d="M-59 0l301 1032h180l-301 -1032h-180zM123 1276l57 180h172l-57 -180h-172zM496 1276l57 180h172l-57 -180h-172z" />
<glyph unicode="&#xf0;" horiz-adv-x="1167" d="M0 385q0 121 43 234.5t118 200.5t185.5 139.5t237.5 52.5q253 0 311 -232q3 63 0 101q-19 274 -223 419l-203 -114l-63 63l182 103q-71 39 -176 67l80 115l2 2q135 -34 243 -94l199 114l68 -61l-187 -104q252 -185 252 -539q0 -176 -50.5 -348t-150.5 -297 q-184 -230 -465 -230q-192 0 -297.5 106.5t-105.5 301.5zM184 358q0 -116 65 -185t177 -69q97 0 182.5 55t145.5 150q44 73 70 162.5t26 169.5q0 118 -67.5 185t-188.5 67q-99 0 -181.5 -52t-136.5 -143q-42 -73 -67 -165.5t-25 -174.5z" />
<glyph unicode="&#xf1;" horiz-adv-x="1193" d="M-59 0l229 766q45 149 72 266h180l-45 -168q174 189 377 189q132 0 208 -67t76 -181q0 -71 -43 -217l-174 -588h-180l180 602q33 112 33 172q0 67 -42.5 106.5t-119.5 39.5q-134 0 -254 -117q-110 -107 -162 -281l-155 -522h-180zM399 1210q27 99 88 158t142 59 q41 0 82 -18q4 -1 41 -19.5t41 -19.5q9 -4 23 -10.5t19.5 -9t15.5 -7t14.5 -6t11.5 -3.5t11.5 -3t10.5 -1.5t12 -0.5q70 0 101 96h98q-24 -96 -84.5 -156.5t-138.5 -60.5q-49 0 -117 33q-4 1 -37 18.5t-37 18.5q-57 29 -94 29q-69 0 -106 -97h-97z" />
<glyph unicode="&#xf2;" horiz-adv-x="1167" d="M0 358q0 140 48.5 271t133.5 227q177 201 455 201q189 0 298 -99.5t109 -267.5q0 -131 -44.5 -261.5t-120.5 -233.5q-156 -215 -465 -215q-197 0 -305.5 102t-108.5 276zM182 350q0 -116 66.5 -182t183.5 -66q109 0 196.5 62t143.5 178q86 177 86 340q0 252 -242 252 q-198 0 -329 -215q-50 -84 -77.5 -181t-27.5 -188zM508 1483h205l153 -297h-131z" />
<glyph unicode="&#xf3;" horiz-adv-x="1167" d="M0 358q0 140 48.5 271t133.5 227q177 201 455 201q189 0 298 -99.5t109 -267.5q0 -131 -44.5 -261.5t-120.5 -233.5q-156 -215 -465 -215q-197 0 -305.5 102t-108.5 276zM182 350q0 -116 66.5 -182t183.5 -66q109 0 196.5 62t143.5 178q86 177 86 340q0 252 -242 252 q-198 0 -329 -215q-50 -84 -77.5 -181t-27.5 -188zM584 1186l256 297h213l-332 -297h-137z" />
<glyph unicode="&#xf4;" horiz-adv-x="1167" d="M0 358q0 140 48.5 271t133.5 227q177 201 455 201q189 0 298 -99.5t109 -267.5q0 -131 -44.5 -261.5t-120.5 -233.5q-156 -215 -465 -215q-197 0 -305.5 102t-108.5 276zM182 350q0 -116 66.5 -182t183.5 -66q109 0 196.5 62t143.5 178q86 177 86 340q0 252 -242 252 q-198 0 -329 -215q-50 -84 -77.5 -181t-27.5 -188zM393 1186l293 293h174l162 -293h-143l-121 203l-211 -203h-154z" />
<glyph unicode="&#xf5;" horiz-adv-x="1167" d="M0 358q0 140 48.5 271t133.5 227q177 201 455 201q189 0 298 -99.5t109 -267.5q0 -131 -44.5 -261.5t-120.5 -233.5q-156 -215 -465 -215q-197 0 -305.5 102t-108.5 276zM182 350q0 -116 66.5 -182t183.5 -66q109 0 196.5 62t143.5 178q86 177 86 340q0 252 -242 252 q-198 0 -329 -215q-50 -84 -77.5 -181t-27.5 -188zM385 1210q27 100 87.5 158.5t141.5 58.5q38 0 82 -18q4 -1 41 -19.5t41 -19.5q41 -19 55 -25.5t31 -11t33 -4.5q69 0 100 96h99q-24 -95 -85.5 -156t-138.5 -61q-52 0 -116 33q-4 1 -37 18.5t-37 18.5q-57 29 -94 29 q-70 0 -107 -97h-96z" />
<glyph unicode="&#xf6;" horiz-adv-x="1167" d="M0 358q0 140 48.5 271t133.5 227q177 201 455 201q189 0 298 -99.5t109 -267.5q0 -131 -44.5 -261.5t-120.5 -233.5q-156 -215 -465 -215q-197 0 -305.5 102t-108.5 276zM182 350q0 -116 66.5 -182t183.5 -66q109 0 196.5 62t143.5 178q86 177 86 340q0 252 -242 252 q-198 0 -329 -215q-50 -84 -77.5 -181t-27.5 -188zM465 1276l57 180h172l-57 -180h-172zM838 1276l57 180h172l-57 -180h-172z" />
<glyph unicode="&#xf7;" horiz-adv-x="1290" d="M76 436v144h1038v-144h-1038zM502 23v229h186v-229h-186zM502 762v229h186v-229h-186z" />
<glyph unicode="&#xf8;" horiz-adv-x="1167" d="M-80 2l143 133q-63 94 -63 223q0 140 48.5 271t133.5 227q177 201 455 201q197 0 305 -105l143 133l68 -65l-154 -141q45 -82 45 -189q0 -131 -44.5 -261.5t-120.5 -233.5q-156 -215 -465 -215q-181 0 -289 88l-141 -129zM182 350q0 -48 13 -92l626 582q-60 94 -205 94 q-198 0 -329 -215q-50 -84 -77.5 -181t-27.5 -188zM242 176q68 -74 190 -74q109 0 196.5 62t143.5 178q86 177 86 340q0 25 -4 61z" />
<glyph unicode="&#xf9;" horiz-adv-x="1189" d="M4 227q0 71 43 217l174 588h178l-178 -602q-33 -120 -33 -174q0 -68 40 -105.5t120 -37.5q137 0 256 116q106 104 160 281l158 522h180l-230 -766q-13 -43 -71 -266h-180l43 168q-89 -96 -179.5 -142t-195.5 -46q-134 0 -209.5 66t-75.5 181zM502 1483h205l153 -297h-131 z" />
<glyph unicode="&#xfa;" horiz-adv-x="1189" d="M4 227q0 71 43 217l174 588h178l-178 -602q-33 -120 -33 -174q0 -68 40 -105.5t120 -37.5q137 0 256 116q106 104 160 281l158 522h180l-230 -766q-13 -43 -71 -266h-180l43 168q-89 -96 -179.5 -142t-195.5 -46q-134 0 -209.5 66t-75.5 181zM571 1186l256 297h213 l-331 -297h-138z" />
<glyph unicode="&#xfb;" horiz-adv-x="1189" d="M4 227q0 71 43 217l174 588h178l-178 -602q-33 -120 -33 -174q0 -68 40 -105.5t120 -37.5q137 0 256 116q106 104 160 281l158 522h180l-230 -766q-13 -43 -71 -266h-180l43 168q-89 -96 -179.5 -142t-195.5 -46q-134 0 -209.5 66t-75.5 181zM387 1186l293 293h174 l162 -293h-144l-120 203l-211 -203h-154z" />
<glyph unicode="&#xfc;" horiz-adv-x="1189" d="M4 227q0 71 43 217l174 588h178l-178 -602q-33 -120 -33 -174q0 -68 40 -105.5t120 -37.5q137 0 256 116q106 104 160 281l158 522h180l-230 -766q-13 -43 -71 -266h-180l43 168q-89 -96 -179.5 -142t-195.5 -46q-134 0 -209.5 66t-75.5 181zM446 1276l58 180h172 l-58 -180h-172zM819 1276l58 180h172l-58 -180h-172z" />
<glyph unicode="&#xfd;" horiz-adv-x="1036" d="M10 -387l238 379l-193 1042h199l119 -856l520 854h186l-663 -1046l-219 -373h-187zM463 1192l256 297h213l-332 -297h-137z" />
<glyph unicode="&#xfe;" horiz-adv-x="1204" d="M-176 -387l551 1868h178l-170 -586q166 160 356 160q168 0 253 -101t85 -270q0 -135 -43 -265.5t-121 -228.5q-170 -210 -415 -210q-114 0 -198 50.5t-126 153.5l-170 -571h-180zM242 340q0 -103 65.5 -170.5t171.5 -67.5q185 0 309 197q50 77 79.5 177.5t29.5 189.5 q0 122 -52.5 191t-158.5 69q-101 0 -190 -57.5t-150 -166.5q-104 -187 -104 -362z" />
<glyph unicode="&#xff;" horiz-adv-x="1036" d="M10 -387l238 379l-193 1042h199l119 -856l520 854h186l-663 -1046l-219 -373h-187zM346 1276l57 180h172l-57 -180h-172zM719 1276l57 180h172l-57 -180h-172z" />
<glyph unicode="&#x152;" horiz-adv-x="2011" d="M86 465q0 154 49 325t131 300q121 192 308.5 301.5t422.5 109.5q48 0 103.5 -3t123 -8t103.5 -7q33 -2 100 -2h680l-49 -152h-655l-146 -493h619l-43 -148h-619l-157 -536h682l-47 -152h-715q-5 0 -158 -6q-177 -6 -178 -6q-262 0 -408.5 118t-146.5 359zM283 471 q0 -162 103.5 -250t287.5 -88q80 0 192 17l353 1187q-114 19 -218 19q-285 0 -466 -193q-124 -132 -188 -315.5t-64 -376.5z" />
<glyph unicode="&#x153;" horiz-adv-x="1867" d="M0 324q0 142 49 274.5t134.5 234t211.5 163t271 61.5q231 0 311 -174q11 -23 16 -39q63 98 169.5 155.5t236.5 57.5q155 0 256 -88q92 -80 92 -242q0 -105 -39 -242h-723q-29 -88 -29 -163q0 -99 56.5 -158.5t161.5 -59.5q95 0 168.5 54t113.5 149h195 q-64 -159 -188.5 -243t-291.5 -84q-275 0 -348 206q-186 -206 -432 -206q-181 0 -286 96t-105 248zM180 319q0 -95 60 -156t155 -61q97 0 186 61t156 171q56 91 88.5 193t32.5 186q0 101 -55 160t-154 59q-160 0 -295 -160q-78 -94 -126 -220.5t-48 -232.5zM1022 604h528 q19 69 19 125q0 94 -45.5 146.5t-137.5 52.5q-70 0 -133.5 -30.5t-109.5 -84.5q-68 -80 -121 -209z" />
<glyph unicode="&#x178;" d="M141 1481h209l264 -709l584 709h223l-755 -867l-181 -614h-192l188 633zM541 1655l57 180h172l-57 -180h-172zM913 1655l58 180h172l-58 -180h-172z" />
<glyph unicode="&#x2c6;" horiz-adv-x="542" d="M90 1186l293 293h174l162 -293h-144l-120 203l-211 -203h-154z" />
<glyph unicode="&#x2dc;" horiz-adv-x="544" d="M80 1210q27 100 87.5 158.5t141.5 58.5q41 0 82 -18q4 -1 41 -19.5t41 -19.5q41 -19 55 -25.5t31 -11t33 -4.5q69 0 100 96h99q-24 -96 -85 -156.5t-139 -60.5q-52 0 -116 33q-4 1 -37 18.5t-37 18.5q-57 29 -94 29q-70 0 -107 -97h-96z" />
<glyph unicode="&#x2000;" horiz-adv-x="975" />
<glyph unicode="&#x2001;" horiz-adv-x="1950" />
<glyph unicode="&#x2002;" horiz-adv-x="975" />
<glyph unicode="&#x2003;" horiz-adv-x="1950" />
<glyph unicode="&#x2004;" horiz-adv-x="650" />
<glyph unicode="&#x2005;" horiz-adv-x="487" />
<glyph unicode="&#x2006;" horiz-adv-x="325" />
<glyph unicode="&#x2007;" horiz-adv-x="325" />
<glyph unicode="&#x2008;" horiz-adv-x="243" />
<glyph unicode="&#x2009;" horiz-adv-x="390" />
<glyph unicode="&#x200a;" horiz-adv-x="108" />
<glyph unicode="&#x2010;" horiz-adv-x="718" d="M29 477l39 133h528l-39 -133h-528z" />
<glyph unicode="&#x2011;" horiz-adv-x="718" d="M29 477l39 133h528l-39 -133h-528z" />
<glyph unicode="&#x2012;" horiz-adv-x="718" d="M29 477l39 133h528l-39 -133h-528z" />
<glyph unicode="&#x2013;" horiz-adv-x="1058" d="M-88 481l16 127h1024l-16 -127h-1024z" />
<glyph unicode="&#x2014;" horiz-adv-x="2082" d="M203 481l37 127h1513l-37 -127h-1513z" />
<glyph unicode="&#x2018;" horiz-adv-x="618" d="M215 1044l324 437h151l-260 -437h-215z" />
<glyph unicode="&#x2019;" horiz-adv-x="618" d="M244 1044l262 437h213l-324 -437h-151z" />
<glyph unicode="&#x201a;" horiz-adv-x="618" d="M-158 -240l262 435h215l-327 -435h-150z" />
<glyph unicode="&#x201c;" horiz-adv-x="1019" d="M215 1044l326 437h149l-260 -437h-215zM616 1044l322 437h154l-261 -437h-215z" />
<glyph unicode="&#x201d;" horiz-adv-x="1019" d="M244 1044l260 437h215l-324 -437h-151zM645 1044l260 437h215l-325 -437h-150z" />
<glyph unicode="&#x201e;" horiz-adv-x="1013" d="M-158 -240l258 435h213l-321 -435h-150zM242 -240l260 435h213l-322 -435h-151z" />
<glyph unicode="&#x2022;" horiz-adv-x="1058" d="M160 733q0 74 33 148q28 67 88 123q50 47 114 71q64 25 131 25t131 -25q65 -24 115 -71q63 -60 90 -123q31 -70 31 -148q0 -67 -25 -131q-26 -69 -69 -115q-56 -60 -123 -88q-72 -32 -150 -32q-80 0 -147 30q-72 30 -125 90q-46 49 -70 113q-24 61 -24 133z" />
<glyph unicode="&#x2026;" horiz-adv-x="2082" d="M39 0l57 207h203l-57 -207h-203zM721 0l59 207h203l-59 -207h-203zM1405 0l57 207h203l-57 -207h-203z" />
<glyph unicode="&#x202f;" horiz-adv-x="390" />
<glyph unicode="&#x2039;" horiz-adv-x="616" d="M78 565l328 353h147l-315 -379l79 -418h-141z" />
<glyph unicode="&#x203a;" horiz-adv-x="616" d="M-43 121l315 379l-79 418h141l98 -445l-328 -352h-147z" />
<glyph unicode="&#x205f;" horiz-adv-x="487" />
<glyph unicode="&#x20ac;" d="M41 549l65 135h164q4 27 21 85t28 85h-186l66 135h170q51 114 93.5 190t96.5 141.5t115.5 102t143 56.5t186.5 20q196 0 294 -115l-71 -145q-76 117 -248 117q-62 0 -112.5 -10.5t-90.5 -36t-69 -52.5t-58.5 -74.5t-49 -87.5t-48.5 -106h551l-66 -135h-536 q-42 -138 -47 -170h495l-65 -135h-455q-14 -82 -14 -182q0 -130 60 -189t194 -59q156 0 297 108v-157q-62 -43 -149 -69t-181 -26q-200 0 -304 110t-104 290q0 87 17 174h-203z" />
<glyph unicode="&#x2122;" horiz-adv-x="1785" d="M109 1389v92h612v-92h-250v-639h-115v639h-247zM801 750v731h174l207 -576l209 576h168v-731h-103v634l-229 -634h-94l-230 634v-634h-102z" />
<glyph unicode="&#x25fc;" horiz-adv-x="1034" d="M0 0v1034h1034v-1034h-1034z" />
<glyph unicode="&#xfb01;" horiz-adv-x="1122" d="M-14 0l266 905h-211l37 127h211l47 152q54 172 131 241.5t229 69.5q74 0 154 -18l-41 -125q-47 12 -96 12q-48 0 -81 -12.5t-56 -43t-37 -63.5t-33 -92l-37 -121h225l-37 -127h-225l-270 -905h-176zM571 0l303 1032h179l-301 -1032h-181zM936 1278l53 176h201l-53 -176 h-201z" />
<glyph unicode="&#xfb02;" horiz-adv-x="1122" d="M-14 0l266 905h-211l37 127h211l47 152q54 172 131 241.5t229 69.5q74 0 154 -18l-41 -125q-47 12 -96 12q-48 0 -81 -12.5t-56 -43t-37 -63.5t-33 -92l-37 -121h225l-37 -127h-225l-270 -905h-176zM569 0l437 1481h178l-434 -1481h-181z" />
</font>
</defs>
</svg>
