<?xml version="1.0" standalone="no"?>
<!DOCTYPE svg PUBLIC "-//W3C//DTD SVG 1.1//EN" "http://www.w3.org/Graphics/SVG/1.1/DTD/svg11.dtd" >
<svg xmlns="http://www.w3.org/2000/svg" xmlns:xlink="http://www.w3.org/1999/xlink" version="1.1">
<metadata></metadata>
<defs>
<font id="ltuniversbasiclight" horiz-adv-x="1146" >
<font-face units-per-em="2048" ascent="1638" descent="-410" />
<missing-glyph horiz-adv-x="573" />
<glyph horiz-adv-x="0" />
<glyph horiz-adv-x="682" />
<glyph unicode=" "  horiz-adv-x="573" />
<glyph unicode="&#x09;" horiz-adv-x="573" />
<glyph unicode="&#xa0;" horiz-adv-x="573" />
<glyph unicode="!" horiz-adv-x="655" d="M246 0v176h164v-176h-164zM246 1481h164l-25 -1135h-115z" />
<glyph unicode="&#x22;" horiz-adv-x="733" d="M143 1481h138l-19 -471h-100zM455 1481h135l-17 -471h-102z" />
<glyph unicode="#" d="M39 446v111h248l61 348h-227v113h246l84 463h120l-82 -463h275l82 463h121l-82 -463h225v-113h-246l-61 -348h227v-111h-246l-79 -446h-121l78 446h-275l-80 -446h-121l80 446h-227zM408 557h274l61 348h-274z" />
<glyph unicode="$" d="M86 377h139q0 -271 314 -281v590q-52 16 -89 28.5t-85 33.5t-80.5 42t-67 52.5t-55 67t-34 83t-13.5 103.5q0 72 24 133t64.5 104.5t95 74.5t115 48t125.5 21v165h90v-167q84 -6 150 -26t122 -58t90 -102t41 -152h-139q-7 113 -77 164t-187 63v-576q172 -53 242 -92 q154 -85 180 -240q6 -35 6 -75q0 -94 -35.5 -167t-97 -118t-135.5 -70.5t-160 -33.5v-168h-90v166q-77 1 -142.5 13.5t-124 41.5t-99 72t-64 109.5t-23.5 150.5zM252 1100q0 -50 17.5 -91.5t44 -70.5t66.5 -53t77 -38.5t82 -27.5v545q-120 -7 -203.5 -75t-83.5 -189zM629 98 q124 15 206.5 85.5t82.5 195.5q0 37 -9.5 69t-23.5 55.5t-39 45t-45.5 35t-55.5 28.5t-56.5 22.5t-59.5 20.5v-557z" />
<glyph unicode="%" horiz-adv-x="1873" d="M74 1116q0 103 34.5 190t110 144t180.5 57q109 0 183.5 -55.5t106.5 -141t32 -192.5q0 -106 -33 -191t-108 -140.5t-183 -55.5q-105 0 -180 55.5t-109 141t-34 188.5zM193 1114q0 -53 10.5 -102t33.5 -93t65.5 -71t98.5 -27q57 0 98.5 27.5t63.5 73.5t31.5 95t9.5 103 q0 51 -9.5 99t-30.5 93.5t-61.5 73t-96.5 27.5q-59 0 -102.5 -26.5t-66.5 -71.5t-33.5 -95t-10.5 -106zM418 -51l905 1589h115l-901 -1589h-119zM1153 373q0 76 20.5 145t60 124.5t103 88.5t142.5 33q82 0 145.5 -31.5t101 -86.5t56 -123.5t18.5 -147.5q0 -78 -19.5 -146.5 t-57.5 -123t-101 -86t-145 -31.5q-79 0 -142.5 32t-102 86t-59 122.5t-20.5 144.5zM1272 371q0 -53 11 -102t34 -93t65.5 -71t98.5 -27q57 0 98.5 27.5t63 73.5t31 95t9.5 103q0 51 -9.5 99t-30.5 93.5t-61.5 73t-96.5 27.5q-59 0 -102.5 -26.5t-66.5 -71.5t-33.5 -95 t-10.5 -106z" />
<glyph unicode="&#x26;" horiz-adv-x="1419" d="M96 410q0 85 28 152.5t78.5 112.5t113 73.5t137.5 42.5v6q-142 34 -214.5 113t-72.5 227q0 77 30 141t79 106t113 71t130.5 41.5t134.5 12.5q104 0 269 -30v-125q-151 43 -263 43q-69 0 -129.5 -15t-113 -46.5t-83 -88t-30.5 -133.5q0 -60 20.5 -106t57.5 -75t79.5 -48 t97.5 -28t98 -12t94 -3h256v338h129v-338h262v-105h-262v-737h-457q-59 0 -113.5 4.5t-114 17t-110 32.5t-96.5 52t-78 74t-51 100.5t-19 129.5zM238 430q0 -66 20.5 -117.5t47.5 -84t78.5 -55.5t89.5 -34t105.5 -17t101 -6.5t100.5 -0.5h30h195v622h-265q-53 0 -93 -1.5 t-95.5 -8.5t-96 -19t-84 -35t-71 -54.5t-45.5 -80t-18 -108.5z" />
<glyph unicode="'" horiz-adv-x="423" d="M143 1481h138l-19 -471h-100z" />
<glyph unicode="(" horiz-adv-x="598" d="M156 588q0 58 6.5 120t13 108.5t26.5 119t28.5 105.5t38.5 116.5t37.5 103.5t44 114.5t40.5 105.5h88q-40 -127 -57 -182.5t-49 -170.5t-46 -189t-26 -174.5t-12 -191.5q0 -179 55.5 -415t134.5 -459h-90q-115 298 -150 411q-83 267 -83 478z" />
<glyph unicode=")" horiz-adv-x="598" d="M119 -301q12 40 43 140.5t45.5 149.5t38 138t34.5 151t20 142t9 153q0 91 -12 191.5t-26 174.5t-46 189t-49 170.5t-57 182.5h88q46 -117 58 -148t50.5 -136t52.5 -158t36 -141t30 -162t8 -148q0 -107 -19 -221t-58 -238.5t-70.5 -210.5t-85.5 -219h-90z" />
<glyph unicode="*" horiz-adv-x="899" d="M74 1061v119l315 -23l-184 258l106 60l140 -281l137 281l104 -58l-180 -260l313 23v-119l-311 24l176 -266l-106 -53l-133 281l-140 -287l-102 59l178 264z" />
<glyph unicode="+" horiz-adv-x="1384" d="M180 444v111h451v442h123v-442h450v-111h-450v-444h-123v444h-451z" />
<glyph unicode="," horiz-adv-x="573" d="M111 -246l104 422h170l-164 -422h-110z" />
<glyph unicode="-" horiz-adv-x="673" d="M78 494v108h518v-108h-518z" />
<glyph unicode="." horiz-adv-x="573" d="M205 0v176h164v-176h-164z" />
<glyph unicode="/" horiz-adv-x="600" d="M-6 -23l485 1530h127l-483 -1530h-129z" />
<glyph unicode="0" d="M102 770q0 68 6 135.5t21.5 142t39 139.5t61.5 124.5t86.5 102t116 68t147.5 25.5q111 0 196 -48t134 -122t80 -177t41.5 -198t10.5 -200q0 -74 -5.5 -145t-20 -150.5t-37 -148t-59.5 -132t-85 -108t-116 -71.5t-150 -27q-467 0 -467 790zM240 743q0 -53 2.5 -105 t11.5 -119.5t23 -125.5t39 -116t58 -99t82 -66.5t109 -25.5q62 0 113 24.5t85.5 64t61 96t41 114t24 124.5t12.5 120.5t3 109.5q0 55 -2.5 107t-11 120.5t-22 126.5t-38.5 116t-58 98.5t-82.5 66t-110.5 25.5q-63 0 -114 -24.5t-86 -64t-61 -96.5t-40.5 -114.5t-23.5 -125 t-12 -121t-3 -110.5z" />
<glyph unicode="1" d="M250 1122v127q176 78 330 232h118v-1481h-127v1335q-49 -44 -99.5 -80t-87 -57.5t-134.5 -75.5z" />
<glyph unicode="2" d="M106 0v141q123 112 244 233.5t252.5 278.5t192.5 271q47 86 47 190q0 130 -78 205.5t-205 75.5q-134 0 -216 -84t-81 -224h-139q3 197 124.5 308.5t313.5 111.5q186 0 303 -98.5t117 -282.5q0 -61 -19 -126t-41 -111.5t-69.5 -113t-71.5 -96.5t-80 -97q-33 -39 -72 -82 t-69.5 -76t-79.5 -82t-74 -73.5t-81 -79t-74 -72.5h749v-117h-893z" />
<glyph unicode="3" d="M78 391h137q0 -138 99.5 -220.5t234.5 -82.5q142 0 242 86t100 232q0 98 -48 170t-124 106.5t-168 34.5q-39 0 -80 -6v120q41 -6 82 -6q130 0 219.5 75.5t89.5 207.5q0 136 -92.5 212.5t-226.5 76.5q-137 0 -216 -73.5t-96 -215.5h-135q5 126 68.5 218t161.5 136.5 t217 44.5q91 0 171 -23.5t144 -70t101.5 -123.5t37.5 -176q0 -127 -75 -216t-197 -124q139 -27 224 -129t85 -248q0 -83 -28 -153t-76 -118.5t-111.5 -82.5t-134.5 -50t-145 -16q-198 0 -324.5 107t-136.5 307z" />
<glyph unicode="4" d="M61 332v143l633 1006h166v-1037h227v-112h-227v-332h-133v332h-666zM178 444h551v895z" />
<glyph unicode="5" d="M127 362h147q4 -128 86.5 -200t208.5 -72q159 0 245.5 111.5t86.5 281.5q0 103 -33 185t-104 133t-172 51q-110 0 -192.5 -60.5t-108.5 -170.5h-135l32 864h781v-119h-654l-24 -551q61 79 133.5 115.5t173.5 36.5q206 0 324 -136t118 -352q0 -221 -131 -361.5 t-342 -140.5q-91 0 -168 23t-137 69t-95.5 121t-39.5 172z" />
<glyph unicode="6" d="M106 702q0 127 13.5 237t48.5 217.5t90 183t144 122t204 45.5q102 -1 183.5 -31t133 -82t78.5 -119.5t27 -146.5h-145q-11 132 -78 198.5t-199 66.5q-68 0 -122.5 -24.5t-91.5 -63t-65 -97t-43.5 -115t-25.5 -129t-13 -126.5t-5 -119q53 119 149.5 179t226.5 60 q134 0 232.5 -65t147 -173.5t48.5 -246.5q0 -135 -55.5 -247t-158 -179t-232.5 -67q-492 0 -492 722zM268 469q0 -155 88 -263t234 -108q103 0 175.5 52.5t106 136.5t33.5 190q0 104 -31 186t-101 134.5t-171 52.5q-154 0 -244 -108.5t-90 -272.5z" />
<glyph unicode="7" d="M102 1364v117h904v-131l-553 -1350h-154l588 1364h-785z" />
<glyph unicode="8" d="M90 391q0 150 82 246t225 133q-131 31 -208.5 114.5t-77.5 217.5q0 98 39.5 177t106 128t149 74.5t172.5 25.5q86 0 166.5 -24.5t145.5 -71t104.5 -122.5t39.5 -171q0 -267 -284 -346q136 -27 220.5 -123t84.5 -237q0 -83 -26.5 -154.5t-72 -122t-107 -87t-132 -54 t-146.5 -17.5q-95 0 -179.5 24.5t-153 73.5t-108.5 130t-40 186zM227 401q0 -148 96.5 -229.5t241.5 -81.5q144 0 247 83.5t103 229.5q0 77 -28.5 137.5t-77.5 98t-110.5 57t-131.5 19.5q-144 0 -242 -83.5t-98 -230.5zM244 1104q0 -73 27.5 -128.5t74.5 -88t105 -48.5 t124 -16q85 0 158 31.5t121.5 99t48.5 158.5q0 138 -93.5 210.5t-231.5 72.5q-141 0 -237.5 -75t-96.5 -216z" />
<glyph unicode="9" d="M100 1036q0 208 131 339t332 128q102 -1 182 -35.5t133 -94.5t87.5 -147.5t49.5 -188t15 -222.5q0 -848 -487 -848q-187 0 -302.5 100t-127.5 291h145q6 -132 78.5 -201t204.5 -69q70 0 126.5 26t93 62t64 101.5t41.5 118.5t24 139.5t13 136.5t6 138v1 q-119 -242 -374 -242q-194 0 -314.5 132t-120.5 335zM236 1036q0 -155 81 -253.5t226 -98.5q153 0 244.5 98.5t91.5 259.5q0 151 -87 251t-229 100q-147 0 -237 -101t-90 -256z" />
<glyph unicode=":" horiz-adv-x="573" d="M205 0v176h164v-176h-164zM205 858v176h164v-176h-164z" />
<glyph unicode=";" horiz-adv-x="573" d="M115 -246l104 422h170l-164 -422h-110zM199 858v176h163v-176h-163z" />
<glyph unicode="&#x3c;" horiz-adv-x="1382" d="M180 436v121l1022 410v-123l-878 -348l878 -344v-123z" />
<glyph unicode="=" horiz-adv-x="1384" d="M180 250v110h1024v-110h-1024zM180 633v110h1024v-110h-1024z" />
<glyph unicode="&#x3e;" horiz-adv-x="1382" d="M180 29v123l879 344l-879 348v123l1022 -410v-121z" />
<glyph unicode="?" horiz-adv-x="993" d="M203 1364v117q128 22 211 22q94 0 171.5 -19.5t140.5 -61t98.5 -114t35.5 -171.5q0 -38 -9 -75.5t-21.5 -68.5t-35.5 -65.5t-42.5 -59t-51.5 -57.5t-52.5 -52.5t-56 -52.5t-52.5 -49q-42 -40 -58 -68t-16 -77v-166h-115v150v22.5v24t0.5 20.5t2.5 23t4.5 20t7 22.5 t10.5 20.5q27 46 75 94t93 86.5t87.5 82.5t68.5 101t26 122q0 132 -87.5 197t-225.5 65q-81 0 -209 -33zM326 0v176h163v-176h-163z" />
<glyph unicode="@" horiz-adv-x="1667" d="M78 715q0 174 64.5 323t175.5 251t263 160t324 58q138 0 261 -40t217.5 -114.5t150 -191t55.5 -258.5q0 -70 -17 -144.5t-52 -145.5t-83 -127t-116 -90t-145 -34q-68 0 -113 39.5t-45 106.5q0 24 12 70q-50 -103 -123 -158t-180 -55q-125 0 -196.5 89.5t-71.5 217.5 q0 112 49 222t144 186.5t210 76.5q98 0 165 -47.5t85 -140.5l47 159h111q-1 -3 -37.5 -117.5t-58.5 -186t-45 -164t-23 -130.5q0 -44 26.5 -67t71.5 -23q71 0 132 49t97.5 121.5t57 150t20.5 142.5q0 127 -49 229t-133 166.5t-192.5 99t-231.5 34.5q-207 0 -377 -88.5 t-271 -252.5t-101 -372q0 -152 56 -279t153.5 -211t228 -130t280.5 -46q164 0 299 48t279 149l43 -57q-157 -114 -302 -165t-329 -51q-162 0 -306 53t-250 147t-168 233.5t-62 304.5zM588 666q0 -90 43.5 -157t128.5 -67q54 0 103.5 31.5t84 81t60.5 109.5t38.5 119 t12.5 108q0 80 -45.5 134t-124.5 54q-54 0 -103 -27.5t-84.5 -71.5t-61.5 -98.5t-39 -110.5t-13 -105z" />
<glyph unicode="A" horiz-adv-x="1419" d="M23 0l604 1481h141l629 -1481h-156l-168 414h-749l-160 -414h-141zM367 524h659l-338 828z" />
<glyph unicode="B" horiz-adv-x="1343" d="M215 0v1481h408h25h26.5h25t27.5 -0.5t25.5 -1.5t27 -2t25 -2.5t26.5 -3.5t24.5 -5t25.5 -6q122 -34 196 -127t74 -219q0 -268 -274 -340q157 -21 246 -113.5t89 -248.5q0 -71 -18.5 -130t-50 -100.5t-77 -74t-95.5 -52.5t-110.5 -32.5t-117.5 -17.5t-120 -5h-408z M348 119h262q55 0 94 1.5t91 8t87.5 18t74 33.5t61.5 52.5t38 76.5t15 105q0 71 -20.5 125t-55 87t-85 53.5t-103.5 28t-119 7.5h-340v-596zM348 821h316q74 0 134 15t108 47t75 88t27 133q0 130 -85.5 194t-220.5 64h-354v-541z" />
<glyph unicode="C" horiz-adv-x="1359" d="M113 727q0 158 40 296.5t117 246.5t201 170.5t281 62.5q280 0 409 -176q73 -101 76 -201h-143q-9 86 -60.5 146.5t-124.5 87t-159 26.5q-103 0 -187 -37.5t-140 -100t-94.5 -146.5t-55.5 -174t-17 -185q0 -100 14.5 -189.5t50.5 -174.5t90 -146.5t139 -99t193 -37.5 q129 0 232 72t121 197h147q-33 -182 -169.5 -283.5t-334.5 -101.5q-130 0 -236 39t-177.5 107t-120 163t-70.5 204t-22 234z" />
<glyph unicode="D" horiz-adv-x="1490" d="M215 0v1481h399q182 0 265 -15q105 -20 189.5 -69t141.5 -117t95.5 -155t55.5 -181.5t17 -198.5q0 -121 -22.5 -226.5t-70 -195.5t-118.5 -156t-171 -108t-224 -53q-62 -6 -248 -6h-309zM348 111h301q314 0 452 159t138 478q0 382 -221 538q-53 38 -132 58t-134.5 23 t-145.5 3h-258v-1259z" />
<glyph unicode="E" horiz-adv-x="1232" d="M215 0v1481h879v-111h-746v-545h717v-110h-717v-604h776v-111h-909z" />
<glyph unicode="F" horiz-adv-x="1136" d="M215 0v1481h842v-111h-709v-545h680v-110h-680v-715h-133z" />
<glyph unicode="G" horiz-adv-x="1464" d="M113 748q0 122 25 233.5t78 208t128.5 167.5t183 111.5t236.5 40.5q97 0 181.5 -24t152 -71t110.5 -124t52 -176h-144q-24 142 -116 212.5t-238 70.5q-88 0 -162 -25t-128 -70t-95.5 -105t-66.5 -132t-37.5 -148t-12.5 -157q0 -105 18.5 -200t60.5 -179.5t103.5 -145.5 t152 -97t202.5 -36q180 0 348 52v485h-373v111h504v-680q-142 -40 -254 -61t-227 -21q-167 0 -298 58t-214 161t-126.5 240.5t-43.5 300.5z" />
<glyph unicode="H" horiz-adv-x="1519" d="M215 0v1481h133v-664h823v664h134v-1481h-134v707h-823v-707h-133z" />
<glyph unicode="I" horiz-adv-x="563" d="M215 0v1481h133v-1481h-133z" />
<glyph unicode="J" horiz-adv-x="1011" d="M18 326q0 22 2 32h136q0 -4 -1 -12t-1 -12q0 -109 74.5 -174.5t185.5 -65.5q77 0 133.5 26.5t88 75t46 108t14.5 134.5v1043h133v-1051q0 -194 -67 -289q-112 -157 -354 -157q-105 0 -192 38.5t-142.5 118t-55.5 185.5z" />
<glyph unicode="K" horiz-adv-x="1271" d="M215 0v1481h133v-1481h-133zM356 803l660 678h178l-678 -668l748 -813h-183z" />
<glyph unicode="L" horiz-adv-x="1140" d="M215 0v1481h133v-1370h744v-111h-877z" />
<glyph unicode="M" horiz-adv-x="1933" d="M215 0v1481h219l535 -1321l530 1321h219v-1481h-131v1370l-557 -1370h-131l-559 1370v-1370h-125z" />
<glyph unicode="N" horiz-adv-x="1521" d="M207 0v1481h180l803 -1323v1323h125v-1481h-180l-803 1319v-1319h-125z" />
<glyph unicode="O" horiz-adv-x="1525" d="M113 743q0 156 39.5 292t117 242.5t204 168t288.5 61.5q170 0 297 -56.5t203.5 -159.5t113.5 -236.5t37 -298.5q0 -128 -22.5 -241.5t-73 -213t-125 -171t-184.5 -112.5t-246 -41q-134 0 -243 39.5t-184 109.5t-125.5 167t-73.5 209.5t-23 240.5zM260 743q0 -100 16 -192 t54 -177.5t94.5 -148t143 -100t194.5 -37.5t195 37.5t144 99.5t95 147.5t54 177.5t16 193q0 74 -7.5 141.5t-25.5 133.5t-45 122t-67 103.5t-91 81t-119.5 52t-148.5 18.5q-107 0 -193.5 -37.5t-143 -100t-94.5 -147.5t-54.5 -176.5t-16.5 -190.5z" />
<glyph unicode="P" horiz-adv-x="1232" d="M215 0v1481h416q79 0 125.5 -3t111 -19t115.5 -48q85 -54 129.5 -145.5t44.5 -196.5q0 -135 -72 -233.5t-200 -141.5q-106 -35 -297 -35h-240v-659h-133zM348 770h221q184 0 271 31q55 20 95.5 64.5t59.5 100t19 115.5q0 72 -20 124.5t-53 83.5t-83.5 49.5t-102 25 t-118.5 6.5h-289v-600z" />
<glyph unicode="Q" horiz-adv-x="1525" d="M113 743q0 127 24.5 239.5t76.5 209t128.5 166.5t185.5 109.5t242 39.5q165 0 290 -56.5t201 -158.5t114 -234t38 -292q0 -461 -307 -672q139 19 356 19v-113q-38 0 -134 2h-106h-60q-70 -1 -134 -6q-228 -19 -293 -19q-127 0 -231.5 42.5t-176 115t-120.5 171 t-71.5 208.5t-22.5 229zM260 743q0 -99 16 -190.5t54 -177t94.5 -148t143 -100t194.5 -37.5t194.5 37.5t143.5 99.5t95 147.5t54.5 177t16.5 191.5q0 74 -7.5 141.5t-25.5 133.5t-45 122t-67 103.5t-91 81t-119.5 52t-148.5 18.5q-107 0 -193.5 -37.5t-143 -100 t-94.5 -147.5t-54.5 -176.5t-16.5 -190.5z" />
<glyph unicode="R" horiz-adv-x="1349" d="M215 0v1481h498q72 0 137.5 -11t126.5 -37.5t105.5 -66t71 -102t26.5 -140.5q0 -141 -72.5 -225t-212.5 -127q141 -25 188 -129q24 -53 39 -154.5t21.5 -192.5t24 -177.5t46.5 -118.5h-153q-14 30 -24 64t-16 75.5t-8.5 68.5t-6 78.5t-5.5 69.5q-7 90 -13.5 134 t-24.5 96.5t-48.5 75t-83.5 38t-133 15.5h-350v-715h-133zM348 825h324q79 0 141 13t115 43.5t81.5 88t28.5 140.5q0 64 -20 111.5t-52 75.5t-80 45t-96 22.5t-108 5.5h-334v-545z" />
<glyph unicode="S" horiz-adv-x="1263" d="M121 385h139q2 -76 32.5 -134t81.5 -91.5t113.5 -49.5t135.5 -16q70 0 135.5 16t123 48.5t92 90t34.5 132.5q0 65 -29 115.5t-77.5 83.5t-112 59t-133.5 48t-140 45t-133.5 55t-112 72.5t-77.5 103.5t-29 143q0 100 41.5 177.5t111.5 123.5t155.5 69t180.5 23 q71 0 134.5 -10.5t124 -36t104.5 -64t71.5 -99t28.5 -136.5h-137q-24 236 -320 236q-67 0 -128.5 -15.5t-114.5 -46.5t-85 -85.5t-32 -125.5q0 -108 84 -174q60 -47 155.5 -84.5t178.5 -59.5t176 -61.5t151 -91.5q99 -86 99 -242q0 -86 -29.5 -157.5t-80 -119.5t-118.5 -81 t-143 -48t-156 -15q-213 0 -344.5 99t-150.5 304z" />
<glyph unicode="T" horiz-adv-x="1118" d="M18 1370v111h1082v-111h-475v-1370h-133v1370h-474z" />
<glyph unicode="U" horiz-adv-x="1523" d="M195 545v936h139v-889q0 -75 2.5 -118.5t18 -105.5t46.5 -108q57 -85 154 -127.5t207 -42.5q128 0 233.5 56t155.5 167q39 89 39 279v889h139v-936q0 -264 -151 -416t-416 -152q-273 0 -420 148t-147 420z" />
<glyph unicode="V" horiz-adv-x="1331" d="M23 1481h145l506 -1350l502 1350h133l-564 -1481h-151z" />
<glyph unicode="W" horiz-adv-x="2088" d="M39 1481h141l346 -1364l435 1364h161l453 -1364l344 1364h131l-389 -1481h-182l-441 1341l-426 -1341h-186z" />
<glyph unicode="X" horiz-adv-x="1306" d="M29 0l536 770l-518 711h168l434 -627l430 627h152l-502 -713l549 -768h-162l-473 674l-463 -674h-151z" />
<glyph unicode="Y" horiz-adv-x="1255" d="M-12 1485h159l488 -727l481 727h152l-574 -850v-635h-133v639z" />
<glyph unicode="Z" horiz-adv-x="1157" d="M47 0v137l885 1231h-826v113h981v-119l-905 -1249h928v-113h-1063z" />
<glyph unicode="[" horiz-adv-x="595" d="M170 -301v1782h299v-86h-184v-1610h184v-86h-299z" />
<glyph unicode="\" horiz-adv-x="600" d="M-6 1507h129l483 -1530h-127z" />
<glyph unicode="]" horiz-adv-x="595" d="M127 -215h184v1610h-184v86h299v-1782h-299v86z" />
<glyph unicode="^" horiz-adv-x="1382" d="M287 631l344 850h119l346 -850h-129l-279 706l-272 -706h-129z" />
<glyph unicode="_" horiz-adv-x="1052" d="M14 -154h1024v-102h-1024v102z" />
<glyph unicode="`" horiz-adv-x="600" d="M63 1507h164l185 -295h-90z" />
<glyph unicode="a" horiz-adv-x="1058" d="M66 281q0 54 14 98.5t36.5 77.5t59 59t72.5 43t86.5 29t91 18.5t97 10t93.5 4t89 0.5h53q2 25 2 71q0 135 -59 200.5t-193 65.5q-107 0 -168 -42.5t-72 -147.5h-123q1 75 31.5 131.5t83 89t115 48.5t133.5 16q194 0 284.5 -86.5t90.5 -276.5v-307q0 -199 20 -383h-115 q-5 58 -16 150q-62 -95 -144 -134t-202 -39q-152 0 -256 78t-104 226zM193 285q0 -102 75.5 -159.5t180.5 -57.5q54 0 98 10t75.5 30.5t55 44.5t38.5 60t24.5 69t14 79t6 82t1.5 85q-70 4 -103 4q-46 0 -80.5 -1t-86.5 -6.5t-89.5 -15t-79.5 -27.5t-68.5 -43.5t-44 -65 t-17.5 -88.5z" />
<glyph unicode="b" horiz-adv-x="1189" d="M170 0q8 136 8 309v1172h125v-639q115 211 356 211q108 0 192.5 -43t135.5 -116.5t77 -165.5t26 -196q0 -107 -29 -204t-84 -174.5t-144 -123.5t-200 -46q-112 0 -188.5 45.5t-141.5 142.5l-10 -172h-123zM303 514q0 -65 9.5 -124t32 -116t57.5 -98t90.5 -66.5 t125.5 -25.5q90 0 157.5 37t105.5 100t56.5 137.5t18.5 159.5q0 81 -16 154t-50 138.5t-97.5 104.5t-149.5 39q-89 0 -157 -38t-106.5 -102t-57.5 -139.5t-19 -160.5z" />
<glyph unicode="c" horiz-adv-x="1067" d="M100 506q0 118 31 218t91 176t155.5 119.5t216.5 43.5q172 0 278 -90.5t119 -259.5h-121q-11 120 -82.5 186t-191.5 66q-96 0 -168 -37t-113.5 -101.5t-61.5 -143.5t-20 -171q0 -85 21 -161.5t62.5 -140t111 -101t158.5 -37.5q120 0 199.5 71.5t88.5 190.5h117 q-17 -171 -125.5 -264t-281.5 -93q-232 0 -358 146t-126 383z" />
<glyph unicode="d" horiz-adv-x="1189" d="M100 528q0 81 17 157t52.5 143t86.5 117t123.5 79t159.5 29q123 0 205.5 -48t142.5 -155v631h125v-1172q0 -207 8 -309h-123l-10 172q-67 -100 -143.5 -144t-194.5 -44q-91 0 -166 29.5t-126.5 81t-87.5 121t-52.5 148t-16.5 164.5zM233 518q0 -85 18.5 -159.5 t56.5 -137.5t105.5 -100t157.5 -37q70 0 125.5 25.5t90.5 66.5t58 98t32.5 116t9.5 124q0 84 -19 159.5t-57.5 140t-106 102.5t-155.5 38q-70 0 -125.5 -26t-90.5 -68.5t-58 -100.5t-32.5 -117.5t-9.5 -123.5z" />
<glyph unicode="e" horiz-adv-x="1089" d="M100 500q0 114 28.5 212t84.5 174.5t147.5 120.5t210.5 44q96 0 170 -31.5t120 -83t75.5 -125t41 -149.5t11.5 -164h-762v-25q0 -108 37.5 -197.5t117.5 -147.5t189 -58q121 0 196.5 69t96.5 189h119q-32 -172 -142 -261.5t-286 -89.5q-115 0 -203.5 40.5t-142.5 112.5 t-81.5 165.5t-27.5 204.5zM231 590h631v20q0 145 -79 244.5t-220 99.5q-76 0 -137.5 -30t-101.5 -81.5t-63.5 -116t-29.5 -136.5z" />
<glyph unicode="f" horiz-adv-x="651" d="M35 942v92h209v154q0 55 4 94.5t18.5 82.5t40 69.5t71 43.5t109.5 17l129 -6v-96q-50 4 -71 4q-109 0 -142.5 -42.5t-33.5 -156.5v-164h229v-92h-229v-942h-125v942h-209z" />
<glyph unicode="g" horiz-adv-x="1204" d="M100 526q0 104 28.5 197.5t82.5 167.5t141 118t195 44q243 0 356 -209q0 32 1 95t1 95h129q-8 -185 -8 -334v-366v-45q0 -77 -0.5 -116.5t-4 -110.5t-11.5 -109.5t-23 -96.5t-37.5 -90.5t-57 -71.5t-79.5 -58.5t-106 -33.5t-136 -14q-81 0 -149.5 14.5t-128.5 47 t-94.5 93.5t-34.5 146h127q0 -58 22 -100t61.5 -64.5t85.5 -33t101 -10.5t99.5 10t77.5 25t59 43t42.5 53t28.5 66.5t18 72t9 81t3.5 82t0.5 85.5q-62 -99 -146 -146t-200 -47q-91 0 -166 26.5t-128 73.5t-89 113t-53 143t-17 164zM238 520q0 -83 18.5 -155.5t56.5 -134 t103.5 -97t152.5 -35.5q72 0 129.5 25t95 67t63 99.5t36 119t10.5 128.5q0 77 -21 149.5t-60.5 133t-104.5 97.5t-146 37q-71 0 -128.5 -25t-95 -66.5t-63 -98t-36 -117.5t-10.5 -127z" />
<glyph unicode="h" horiz-adv-x="1177" d="M176 0v1481h125v-619q121 182 336 182q104 0 176 -27t112.5 -82t58 -127.5t17.5 -174.5v-633h-124v584q0 55 -3 94t-11.5 83t-26.5 74t-46 55t-72 37.5t-102 12.5q-84 0 -147 -31.5t-98.5 -87t-52.5 -123t-17 -147.5v-551h-125z" />
<glyph unicode="i" horiz-adv-x="477" d="M164 1325v156h149v-156h-149zM176 0v1034h125v-1034h-125z" />
<glyph unicode="j" horiz-adv-x="477" d="M-31 -270q40 -6 80 -6q36 0 60.5 8t37.5 19.5t19.5 35t8 43.5t1.5 57v1147h125v-1179q0 -136 -53 -183t-193 -47q-28 0 -86 4v101zM164 1325v156h149v-156h-149z" />
<glyph unicode="k" horiz-adv-x="1046" d="M176 0v1481h125v-1481h-125zM313 586l490 448h168l-502 -446l543 -588h-164z" />
<glyph unicode="l" horiz-adv-x="477" d="M176 0v1481h125v-1481h-125z" />
<glyph unicode="m" horiz-adv-x="1832" d="M170 1034h123l8 -180q105 190 320 190q129 0 206.5 -51t124.5 -170q53 114 140.5 167.5t214.5 53.5q88 0 152.5 -23.5t102 -61.5t59.5 -99t29 -122.5t7 -145.5v-592h-125v625q0 71 -12 125t-40 98.5t-80 68t-126 23.5q-85 0 -144 -27.5t-91 -79.5t-46 -114.5t-14 -143.5 v-575h-125v610q0 59 -6 104.5t-22.5 89.5t-44.5 72.5t-74 46t-109 17.5q-61 0 -111.5 -20t-84.5 -54.5t-57 -81.5t-33.5 -99.5t-10.5 -109.5v-575h-125v786q0 41 -3 124t-3 124z" />
<glyph unicode="n" horiz-adv-x="1177" d="M170 1034h123l8 -172q63 94 144 138t194 44q103 0 174.5 -27.5t112 -82.5t58 -128t17.5 -173v-633h-124v584q0 55 -3 94t-11.5 83t-26.5 74t-46 55t-72 37.5t-102 12.5q-84 0 -147 -31.5t-98.5 -87t-52.5 -123t-17 -147.5v-551h-125v741q0 49 -3 146.5t-3 146.5z" />
<glyph unicode="o" horiz-adv-x="1169" d="M100 524q0 151 55 270t166.5 190t264.5 71q117 0 209.5 -40t152 -112t90.5 -168t31 -211q0 -110 -32.5 -208.5t-92 -174t-152.5 -120t-206 -44.5q-118 0 -212 42.5t-153 117.5t-90 173.5t-31 213.5zM233 524q0 -85 20.5 -163t61.5 -143.5t111 -104.5t160 -39 q88 0 157.5 40t110.5 106t61.5 143.5t20.5 160.5q0 86 -20.5 160.5t-61 135.5t-109.5 96.5t-159 35.5q-72 0 -131.5 -23t-100 -63t-68.5 -95t-40.5 -117t-12.5 -130z" />
<glyph unicode="p" horiz-adv-x="1189" d="M170 1034h127l6 -192q60 109 146 160t210 51q108 0 192.5 -43t135.5 -116.5t77 -165.5t26 -196q0 -106 -29 -202.5t-83.5 -174.5t-143.5 -124.5t-199 -46.5q-115 0 -190 44.5t-142 143.5v-561h-125v1114q0 173 -8 309zM303 514q0 -65 9.5 -124t32 -116t57.5 -98 t90.5 -66.5t125.5 -25.5q89 0 156.5 36.5t106 99.5t57 138t18.5 160q0 81 -16 154t-50 138.5t-97.5 104.5t-149.5 39q-89 0 -157 -38t-106.5 -102t-57.5 -139.5t-19 -160.5z" />
<glyph unicode="q" horiz-adv-x="1189" d="M100 530q0 80 17 155.5t53 142.5t87 117t123.5 79t158.5 29q124 0 206 -48t142 -155l6 184h127q-8 -102 -8 -309v-1114h-125v561q-67 -99 -142 -143.5t-190 -44.5q-95 0 -171.5 29t-129 79t-87.5 119.5t-51 149t-16 169.5zM233 518q0 -85 18.5 -160t57 -138t106 -99.5 t156.5 -36.5q70 0 125.5 25.5t90.5 66.5t58 98t32.5 116t9.5 124q0 84 -19 159.5t-57.5 140t-106 102.5t-155.5 38q-70 0 -125.5 -26t-90.5 -68.5t-58 -100.5t-32.5 -117.5t-9.5 -123.5z" />
<glyph unicode="r" horiz-adv-x="702" d="M170 1034h123l8 -162q56 88 133.5 128t183.5 40q22 0 58 -4v-125q-65 9 -84 9q-158 0 -224.5 -85t-66.5 -249v-586h-125v731q0 37 -4 142q-3 70 -3 118q0 24 1 43z" />
<glyph unicode="s" horiz-adv-x="978" d="M106 303h123q0 -113 69 -171t187 -58q64 0 122.5 20.5t100.5 68t42 113.5q0 56 -34 95.5t-88.5 61.5t-120.5 39.5t-132.5 38.5t-121 50.5t-88.5 83t-34 127.5q0 72 31 129t83 90.5t115 50.5t132 17q160 0 256 -74.5t100 -228.5h-125q-11 202 -227 202q-57 0 -109 -16.5 t-91.5 -57.5t-39.5 -100q0 -54 34 -92t88 -59.5t119.5 -38.5t131 -38t119.5 -50.5t88 -83t34 -127.5q0 -80 -33 -142t-89 -99t-124.5 -55.5t-144.5 -18.5q-169 0 -271 80t-102 243z" />
<glyph unicode="t" horiz-adv-x="663" d="M35 942v92h205v213l125 56v-269h231v-92h-231v-674q0 -96 27 -134t118 -38q18 0 49.5 6t44.5 7v-107q-82 -10 -145 -10q-112 0 -165.5 54t-53.5 167v729h-205z" />
<glyph unicode="u" horiz-adv-x="1177" d="M176 401v633h125v-583q0 -62 6.5 -111.5t24 -97t46 -79t76 -50.5t111.5 -19q84 0 146.5 33t97.5 91t51.5 126.5t16.5 149.5v540h124v-725q0 -131 7 -309h-123l-4 166q-65 -93 -144 -134.5t-192 -41.5q-199 0 -284 103.5t-85 307.5z" />
<glyph unicode="v" horiz-adv-x="1048" d="M37 1034h139l363 -899l344 899h129l-424 -1034h-125z" />
<glyph unicode="w" horiz-adv-x="1679" d="M41 1034h141l289 -884l307 884h142l297 -874l294 874h127l-374 -1034h-113l-309 899l-314 -899h-120z" />
<glyph unicode="x" horiz-adv-x="1036" d="M39 0l401 528l-379 506h156l307 -426l314 426h141l-383 -506l401 -528h-161l-326 451l-330 -451h-141z" />
<glyph unicode="y" horiz-adv-x="1038" d="M39 1034h149l347 -866l344 866h125l-568 -1423h-127l164 395z" />
<glyph unicode="z" horiz-adv-x="907" d="M80 0v119l616 813h-600v102h717v-121l-602 -811h616v-102h-747z" />
<glyph unicode="{" horiz-adv-x="780" d="M51 551v78q118 0 207 67q34 25 52 67.5t22 92t3.5 107t0 115t7.5 114.5t30 106.5t63 88.5t112 64t171 30v-78q-109 -7 -170 -51.5t-78.5 -111.5t-19 -147.5t-2 -162.5t-16 -152t-73 -121.5t-161.5 -66.5q74 -11 124.5 -40t74.5 -69.5t37.5 -92t13 -106.5t1 -113t2 -112 t15.5 -103t41 -86t79.5 -61.5t131.5 -29.5v-78q-99 5 -171 30t-112 64t-63 88.5t-30 106t-7.5 114t0 115t-3.5 106.5t-22 91t-52 67q-93 67 -207 70z" />
<glyph unicode="|" horiz-adv-x="514" d="M182 -436v2046h123v-2046h-123z" />
<glyph unicode="}" horiz-adv-x="780" d="M61 -223q57 4 101 17.5t72 35.5t48 50.5t29 62t14.5 71.5t5 78t-0.5 82q-1 35 0.5 70t3 68.5t9 65.5t18 60t30 53t45.5 44.5t63.5 33.5t84.5 21q-53 8 -94.5 26t-68 39t-45 56t-27.5 63t-13.5 74t-4.5 75.5v80.5q2 36 0.5 71.5t-3.5 69t-9.5 64.5t-19 58.5t-32.5 51 t-48.5 41t-67.5 28.5t-90 15v78q99 -5 171 -30t112 -64.5t63.5 -89t30.5 -106t8 -114.5t0 -115.5t3.5 -107t22.5 -91.5t52 -67q93 -67 205 -67v-78q-116 -3 -205 -70q-34 -25 -51.5 -67t-22 -91t-4 -106.5t-0.5 -115t-7.5 -114t-30 -106t-64 -88.5t-112.5 -64t-171 -30v78z " />
<glyph unicode="~" horiz-adv-x="1382" d="M156 352q45 277 252 277q75 0 184.5 -37.5t215 -75t169.5 -37.5q136 0 168 162h82q-12 -117 -73.5 -194.5t-172.5 -77.5q-60 0 -144.5 23.5t-155 52t-148.5 52t-125 23.5q-68 0 -112 -48.5t-54 -119.5h-86z" />
<glyph unicode="&#xa1;" horiz-adv-x="655" d="M246 -424l24 1135h115l25 -1135h-164zM246 881v176h164v-176h-164z" />
<glyph unicode="&#xa2;" d="M125 506q0 118 31 218t90.5 176t155 119.5t216.5 43.5q54 0 95 -8l59 194l82 -16l-59 -201q100 -32 160.5 -119t60.5 -200h-121q0 48 -13 88t-31.5 63t-37.5 39.5t-32 22.5l-13 6l-240 -852q64 -8 93 -8q120 0 199 67t79 195h117q0 -68 -22 -129.5t-66.5 -113.5 t-122.5 -83t-180 -31q-57 0 -121 11l-60 -205l-86 20l58 201q-100 35 -167.5 117t-95.5 179t-28 206zM258 512q0 -138 45 -245t143 -156l238 847q-40 7 -63 7q-96 0 -168 -37t-113.5 -101.5t-61.5 -143.5t-20 -171z" />
<glyph unicode="&#xa3;" d="M98 795v110h148q0 12 0.5 59t0.5 63.5t2 61.5t5 65.5t9 60.5t14 62.5t21 55.5t28.5 55t37.5 45.5t48 41.5q105 73 280 73q172 0 277.5 -79.5t111.5 -245.5h-143q-4 109 -70 163t-176 54q-64 0 -114 -18t-82.5 -43.5t-55 -73t-33.5 -84t-16.5 -101.5t-6.5 -101t-1 -105v-9 h332v-110h-332v-676h653v-119h-909v119h119v676h-148z" />
<glyph unicode="&#xa4;" d="M102 1159l76 76l131 -129q125 90 260 90q79 0 141 -21.5t130 -68.5l129 129l75 -76l-129 -131q91 -128 91 -264q0 -135 -93 -264l131 -131l-75 -76l-131 131q-127 -92 -263 -92q-141 0 -264 92l-131 -131l-76 76l129 131q-90 121 -90 268q0 146 90 262zM258 764 q0 -131 93.5 -224.5t223.5 -93.5t223 93.5t93 224.5t-93 224t-223 93q-132 0 -224.5 -92.5t-92.5 -224.5z" />
<glyph unicode="&#xa5;" d="M-68 1481h168l484 -717l479 717h151l-536 -789h338v-110h-377v-119h377v-113h-377v-350h-133v350h-375v113h375v119h-375v110h340z" />
<glyph unicode="&#xa6;" horiz-adv-x="487" d="M182 -182v512h123v-512h-123zM182 842v512h123v-512h-123z" />
<glyph unicode="&#xa7;" horiz-adv-x="1167" d="M242 729q0 93 58.5 152.5t160.5 107.5q-193 87 -193 250q0 70 29.5 123.5t79.5 84t109 45.5t126 15q97 0 232 -32v-113q-122 39 -221 39q-86 0 -153 -40t-67 -120q0 -41 28 -74.5t72.5 -57t98.5 -45.5t108 -46t98.5 -52t72.5 -70t28 -93q0 -86 -61 -149.5t-152 -102.5 q109 -43 168.5 -102t59.5 -160q0 -62 -23 -113t-61.5 -85.5t-89.5 -58.5t-106 -35t-112 -11q-132 0 -266 47v110q69 -28 123 -39.5t123 -11.5q40 0 75.5 5t72 18t63 33.5t43 54t16.5 76.5q0 47 -30 82t-77.5 57.5t-105 41.5t-115 41t-105 49.5t-77.5 73t-30 105.5zM375 760 q0 -35 18 -63.5t49 -48.5t61 -33.5t65 -26.5q8 -3 12 -4q190 78 190 186q0 21 -7 40t-23 35t-29 27.5t-39.5 25t-38 19.5t-41.5 18.5t-35 14.5q-35 -16 -62 -31.5t-57 -39t-46.5 -54t-16.5 -65.5z" />
<glyph unicode="&#xa8;" horiz-adv-x="598" d="M49 1325v156h150v-156h-150zM399 1325v156h150v-156h-150z" />
<glyph unicode="&#xa9;" horiz-adv-x="1671" d="M70 741q0 155 61 297t163.5 244.5t244.5 163.5t297 61q209 0 385 -102.5t278.5 -278.5t102.5 -385q0 -155 -61 -296.5t-163.5 -244t-244.5 -163t-297 -60.5t-297 60.5t-244.5 163t-163.5 244t-61 296.5zM145 741q0 -187 93 -345.5t252 -250.5t346 -92t345.5 92 t251.5 250.5t93 345.5t-92.5 346.5t-251.5 252t-346 92.5q-140 0 -268 -55t-220.5 -147.5t-147.5 -220.5t-55 -268zM471 745q0 94 21.5 173t65 142t117.5 98.5t171 35.5q69 0 131 -22t106 -73t45 -122h-84q-8 71 -66.5 106t-135.5 35q-74 0 -130 -31.5t-87.5 -85.5 t-46.5 -116.5t-15 -132.5q0 -71 15 -134.5t46 -119t87 -88.5t131 -33q78 0 139 36.5t72 108.5h86q-19 -108 -106 -164.5t-202 -56.5q-94 0 -165.5 36.5t-112.5 99.5t-61.5 140.5t-20.5 167.5z" />
<glyph unicode="&#xaa;" horiz-adv-x="645" d="M51 1032q0 57 28 99t72 62.5t98.5 33.5t107 12t98.5 -2v29q0 80 -32.5 112.5t-111.5 32.5q-63 0 -97.5 -23t-43.5 -81h-92q27 178 233 178q123 0 179.5 -49t56.5 -168q0 -34 -2 -101.5t-2 -101.5q0 -84 14 -203h-90q0 28 -4 86q-42 -51 -89 -74.5t-112 -23.5 q-87 0 -149 48.5t-62 133.5zM143 1034q0 -52 37.5 -81t91.5 -29q57 0 95 19t56 55t25 75.5t7 93.5h-21h-50t-52.5 -2.5t-56.5 -7t-49.5 -14t-43.5 -23.5t-27.5 -36t-11.5 -50z" />
<glyph unicode="&#xab;" horiz-adv-x="964" d="M141 537l209 393h105l-185 -404l187 -393h-107zM508 537l209 393h104l-184 -404l186 -393h-106z" />
<glyph unicode="&#xac;" horiz-adv-x="1384" d="M180 633v110h1024v-493h-114v383h-910z" />
<glyph unicode="&#xad;" horiz-adv-x="673" d="M78 494v108h518v-108h-518z" />
<glyph unicode="&#xae;" horiz-adv-x="925" d="M82 1124q0 157 111.5 270t269.5 113t269.5 -112.5t111.5 -270.5t-111.5 -270.5t-269.5 -112.5t-269.5 113t-111.5 270zM139 1124q0 -134 95.5 -229.5t228.5 -95.5q134 0 228.5 95.5t94.5 229.5t-94.5 230t-228.5 96q-133 0 -228.5 -96t-95.5 -230zM332 936v389h137 q58 0 91.5 -20.5t33.5 -75.5q0 -71 -72 -92q34 -8 48.5 -34t13.5 -54.5t2.5 -62t17.5 -50.5h-55q-10 19 -12 66.5t-14 77.5t-50 30h-92v-174h-49zM381 1149h55q47 0 76 14.5t29 57.5q0 38 -23.5 51.5t-64.5 13.5h-72v-137z" />
<glyph unicode="&#xaf;" horiz-adv-x="600" d="M49 1309v118h502v-118h-502z" />
<glyph unicode="&#xb0;" horiz-adv-x="761" d="M74 1200q0 128 90 217.5t217 89.5t217 -89.5t90 -217.5t-90 -217.5t-217 -89.5t-217 89.5t-90 217.5zM180 1200q0 -83 59 -142t142 -59t142 59t59 142t-59 142t-142 59t-142 -59t-59 -142z" />
<glyph unicode="&#xb1;" horiz-adv-x="1384" d="M180 -18v110h1024v-110h-1024zM180 543v110h451v361h123v-361h450v-110h-450v-359h-123v359h-451z" />
<glyph unicode="&#xb2;" horiz-adv-x="724" d="M74 635v94q46 39 93 81.5t113 108.5t115 125t84 122t35 108q0 69 -44 108t-114 39q-79 0 -123.5 -45.5t-44.5 -124.5h-106q1 119 77 187.5t197 68.5q111 0 188 -58.5t77 -166.5q0 -32 -9 -66t-29 -70t-39 -67t-53 -70t-56 -64t-63.5 -64.5t-59.5 -56.5t-59.5 -54.5 t-49.5 -44.5h430v-90h-559z" />
<glyph unicode="&#xb3;" horiz-adv-x="722" d="M51 872h99q0 -80 57 -123.5t139 -43.5q83 0 142 44.5t59 124.5t-59 123t-142 43q-28 0 -55 -6v90q20 -4 59 -4q76 0 130.5 40t54.5 114q0 75 -55.5 114t-133.5 39q-169 0 -186 -161h-99q3 117 85 179t202 62q116 0 200.5 -61.5t84.5 -173.5q0 -72 -39 -115t-115 -76 q80 -31 123 -81.5t43 -131.5q0 -79 -46.5 -136.5t-114 -83t-144.5 -25.5q-126 0 -206 63.5t-83 185.5z" />
<glyph unicode="&#xb4;" horiz-adv-x="598" d="M186 1212l185 295h164l-259 -295h-90z" />
<glyph unicode="&#xb6;" horiz-adv-x="1157" d="M35 1075q0 88 26 157.5t71 115.5t110.5 76.5t141 43.5t165.5 13h393v-1481h-121v1382h-254v-1382h-121v700q-206 12 -308.5 101t-102.5 274z" />
<glyph unicode="&#xb7;" horiz-adv-x="573" d="M205 578v176h164v-176h-164z" />
<glyph unicode="&#xb8;" horiz-adv-x="598" d="M86 -332l14 58q114 -52 191 -52q102 0 102 80q0 82 -102 82q-34 0 -64 -6l58 180h47l-31 -114q33 0 58 -2t55 -10t49 -21.5t32 -38.5t13 -60q0 -40 -18.5 -69.5t-50 -44.5t-65 -22t-71.5 -7q-100 0 -217 47z" />
<glyph unicode="&#xb9;" horiz-adv-x="724" d="M156 1266v94q64 28 104.5 55t99.5 80h89v-860h-99v749q-81 -67 -194 -118z" />
<glyph unicode="&#xba;" horiz-adv-x="712" d="M61 1165q0 145 76.5 233.5t218.5 88.5q138 0 216.5 -88t78.5 -228q0 -145 -76 -234t-219 -89q-139 0 -217 88t-78 229zM158 1171q0 -103 50 -173t148 -70t148.5 70.5t50.5 172.5q0 103 -50 170.5t-149 67.5t-148.5 -67.5t-49.5 -170.5z" />
<glyph unicode="&#xbb;" horiz-adv-x="964" d="M141 930h107l209 -404l-209 -393h-105l185 404zM508 930h108l207 -404l-207 -393h-104l184 404z" />
<glyph unicode="&#xbc;" horiz-adv-x="1822" d="M170 1266v94q65 28 106 55.5t99 79.5h88v-860h-98v749q-80 -67 -195 -118zM377 -51l905 1589h115l-901 -1589h-119zM1120 195v92l387 573h115v-586h139v-79h-139v-195h-96v195h-406zM1212 274h316v474z" />
<glyph unicode="&#xbd;" horiz-adv-x="1822" d="M170 1266v94q65 28 106 55.5t99 79.5h88v-860h-98v749q-80 -67 -195 -118zM395 -51l905 1589h115l-901 -1589h-119zM1155 0v94q64 54 122.5 109t139 139t129.5 162t49 133q0 69 -43.5 109t-113.5 40q-79 0 -123.5 -46.5t-44.5 -125.5h-107q1 121 77 189.5t198 68.5 q111 0 187.5 -59.5t76.5 -167.5q0 -28 -8.5 -60t-21.5 -60.5t-35.5 -62.5t-42 -60.5t-51.5 -61.5t-53 -57.5t-56.5 -56t-53.5 -50t-52 -47t-44 -39.5h430v-90h-559z" />
<glyph unicode="&#xbe;" horiz-adv-x="1822" d="M66 872h98q0 -80 57 -123.5t139 -43.5q83 0 142 44.5t59 124.5t-59 123t-142 43q-28 0 -55 -6v90q20 -4 60 -4q76 0 130 40t54 114q0 75 -55.5 114t-133.5 39q-169 0 -186 -161h-98q3 117 84.5 179t201.5 62q116 0 200.5 -61.5t84.5 -173.5q0 -73 -38.5 -115.5 t-114.5 -75.5q80 -31 122.5 -81.5t42.5 -131.5q0 -79 -46.5 -136.5t-114 -83t-144.5 -25.5q-126 0 -205.5 63.5t-82.5 185.5zM432 -51l905 1589h115l-901 -1589h-119zM1120 195v92l387 573h115v-586h139v-79h-139v-195h-96v195h-406zM1212 274h316v474z" />
<glyph unicode="&#xbf;" horiz-adv-x="993" d="M90 -80q0 50 16 100t35.5 86t59.5 83t65 71.5t76.5 72.5t69.5 66q41 39 57 68t16 78v166h115v-150v-22.5v-24t-0.5 -20.5t-2.5 -23t-4.5 -20t-7 -22.5t-10.5 -20.5q-27 -46 -75 -94t-93 -86.5t-87.5 -82.5t-68.5 -101t-26 -122q0 -132 88 -197t226 -65q78 0 206 33v-117 q-110 -22 -208 -22q-94 0 -172 19.5t-141 61t-98.5 114t-35.5 171.5zM461 881v176h164v-176h-164z" />
<glyph unicode="&#xc0;" horiz-adv-x="1419" d="M23 0l604 1481h141l629 -1481h-156l-168 414h-749l-160 -414h-141zM367 524h659l-338 828zM465 1886h164l184 -295h-90z" />
<glyph unicode="&#xc1;" horiz-adv-x="1419" d="M23 0l604 1481h141l629 -1481h-156l-168 414h-749l-160 -414h-141zM367 524h659l-338 828zM604 1591l184 295h164l-258 -295h-90z" />
<glyph unicode="&#xc2;" horiz-adv-x="1419" d="M23 0l604 1481h141l629 -1481h-156l-168 414h-749l-160 -414h-141zM367 524h659l-338 828zM430 1591l207 299h149l201 -299h-94l-182 217l-187 -217h-94z" />
<glyph unicode="&#xc3;" horiz-adv-x="1419" d="M23 0l604 1481h141l629 -1481h-156l-168 414h-749l-160 -414h-141zM367 524h659l-338 828zM428 1649q14 73 62.5 119.5t121.5 46.5q35 0 100.5 -21.5t100.5 -21.5q74 0 100 65h78q-15 -71 -61 -121.5t-113 -50.5q-36 0 -105.5 21.5t-105.5 21.5q-73 0 -100 -59h-78z" />
<glyph unicode="&#xc4;" horiz-adv-x="1419" d="M23 0l604 1481h141l629 -1481h-156l-168 414h-749l-160 -414h-141zM367 524h659l-338 828zM459 1704v156h149v-156h-149zM809 1704v156h149v-156h-149z" />
<glyph unicode="&#xc5;" horiz-adv-x="1419" d="M23 0l604 1481h141l629 -1481h-156l-168 414h-749l-160 -414h-141zM367 524h659l-338 828zM500 1735q0 85 58.5 143.5t143.5 58.5q86 0 145.5 -58.5t59.5 -143.5t-60 -145t-145 -60q-83 0 -142.5 60t-59.5 145zM567 1735q0 -56 40 -96t95 -40q57 0 96.5 39.5t39.5 96.5 q0 55 -40 95t-96 40t-95.5 -40t-39.5 -95z" />
<glyph unicode="&#xc6;" horiz-adv-x="2013" d="M-2 0l856 1481h1022v-119h-797l88 -537h678v-118h-659l96 -588h623v-119h-740l-69 406h-717l-234 -406h-147zM449 516h630l-141 848z" />
<glyph unicode="&#xc7;" horiz-adv-x="1359" d="M113 727q0 119 24.5 230.5t76.5 211t126 173.5t180 117.5t232 43.5q280 0 409 -176q73 -101 76 -201h-143q-9 86 -60.5 146.5t-124.5 87t-159 26.5q-103 0 -187 -38t-140 -100.5t-94.5 -146.5t-55.5 -173.5t-17 -184.5q0 -100 14.5 -190t50.5 -176.5t90 -148.5t139 -100 t193 -38q84 0 158 25.5t130 84t69 142.5h147q-17 -93 -67 -164.5t-122 -113.5t-156 -63t-177 -21h-2l-23 -84q33 0 57.5 -2t54.5 -10t49 -21.5t32.5 -38.5t13.5 -60q0 -40 -18.5 -69.5t-50 -44.5t-65 -22t-71.5 -7q-100 0 -217 47l15 58q114 -52 190 -52q103 0 103 80 q0 82 -103 82q-33 0 -63 -6l49 152q-119 8 -215 53.5t-160 115.5t-107 164t-62 196.5t-19 215.5z" />
<glyph unicode="&#xc8;" horiz-adv-x="1232" d="M215 0v1481h879v-111h-746v-545h717v-110h-717v-604h776v-111h-909zM440 1886h164l184 -295h-90z" />
<glyph unicode="&#xc9;" horiz-adv-x="1232" d="M215 0v1481h879v-111h-746v-545h717v-110h-717v-604h776v-111h-909zM563 1591l185 295h163l-258 -295h-90z" />
<glyph unicode="&#xca;" horiz-adv-x="1232" d="M215 0v1481h879v-111h-746v-545h717v-110h-717v-604h776v-111h-909zM397 1591l207 299h150l200 -299h-94l-182 217l-186 -217h-95z" />
<glyph unicode="&#xcb;" horiz-adv-x="1232" d="M215 0v1481h879v-111h-746v-545h717v-110h-717v-604h776v-111h-909zM426 1704v156h149v-156h-149zM776 1704v156h150v-156h-150z" />
<glyph unicode="&#xcc;" horiz-adv-x="563" d="M215 0v1481h133v-1481h-133zM215 1886h164l184 -295h-90z" />
<glyph unicode="&#xcd;" horiz-adv-x="563" d="M184 1591l185 295h163l-258 -295h-90zM213 0v1481h133v-1481h-133z" />
<glyph unicode="&#xce;" horiz-adv-x="563" d="M215 0v1481h133v-1481h-133zM215 1591l207 299h149l201 -299h-94l-182 217l-187 -217h-94z" />
<glyph unicode="&#xcf;" horiz-adv-x="563" d="M215 0v1481h133v-1481h-133zM215 1704v156h150v-156h-150zM565 1704v156h150v-156h-150z" />
<glyph unicode="&#xd0;" horiz-adv-x="1490" d="M70 772v100h145v609h397q184 0 267 -15q106 -20 190.5 -68.5t141.5 -116t95 -154.5t55 -181t17 -198q0 -121 -22.5 -227t-70 -196t-118.5 -157t-171 -109t-224 -53q-63 -6 -250 -6h-307v772h-145zM348 111h301q160 0 274 41.5t183.5 124.5t101 199.5t31.5 275.5 q0 379 -221 534q-53 38 -132 58t-134.5 23t-145.5 3h-258v-498h422v-100h-422v-661z" />
<glyph unicode="&#xd1;" horiz-adv-x="1521" d="M207 0v1481h180l803 -1323v1323h125v-1481h-180l-803 1319v-1319h-125zM469 1649q14 73 62.5 119.5t121.5 46.5q35 0 100.5 -21.5t100.5 -21.5q74 0 100 65h78q-15 -71 -61 -121.5t-113 -50.5q-36 0 -105.5 21.5t-105.5 21.5q-73 0 -100 -59h-78z" />
<glyph unicode="&#xd2;" horiz-adv-x="1525" d="M113 743q0 156 39.5 292t117 242.5t204 168t288.5 61.5q170 0 297 -56.5t203.5 -159.5t113.5 -236.5t37 -298.5q0 -128 -22.5 -241.5t-73 -213t-125 -171t-184.5 -112.5t-246 -41q-134 0 -243 39.5t-184 109.5t-125.5 167t-73.5 209.5t-23 240.5zM260 743q0 -100 16 -192 t54 -177.5t94.5 -148t143 -100t194.5 -37.5t195 37.5t144 99.5t95 147.5t54 177.5t16 193q0 74 -7.5 141.5t-25.5 133.5t-45 122t-67 103.5t-91 81t-119.5 52t-148.5 18.5q-107 0 -193.5 -37.5t-143 -100t-94.5 -147.5t-54.5 -176.5t-16.5 -190.5zM530 1886h164l185 -295 h-91z" />
<glyph unicode="&#xd3;" horiz-adv-x="1525" d="M113 743q0 156 39.5 292t117 242.5t204 168t288.5 61.5q170 0 297 -56.5t203.5 -159.5t113.5 -236.5t37 -298.5q0 -128 -22.5 -241.5t-73 -213t-125 -171t-184.5 -112.5t-246 -41q-134 0 -243 39.5t-184 109.5t-125.5 167t-73.5 209.5t-23 240.5zM260 743q0 -100 16 -192 t54 -177.5t94.5 -148t143 -100t194.5 -37.5t195 37.5t144 99.5t95 147.5t54 177.5t16 193q0 74 -7.5 141.5t-25.5 133.5t-45 122t-67 103.5t-91 81t-119.5 52t-148.5 18.5q-107 0 -193.5 -37.5t-143 -100t-94.5 -147.5t-54.5 -176.5t-16.5 -190.5zM645 1591l184 295h164 l-258 -295h-90z" />
<glyph unicode="&#xd4;" horiz-adv-x="1525" d="M113 743q0 156 39.5 292t117 242.5t204 168t288.5 61.5q170 0 297 -56.5t203.5 -159.5t113.5 -236.5t37 -298.5q0 -128 -22.5 -241.5t-73 -213t-125 -171t-184.5 -112.5t-246 -41q-134 0 -243 39.5t-184 109.5t-125.5 167t-73.5 209.5t-23 240.5zM260 743q0 -100 16 -192 t54 -177.5t94.5 -148t143 -100t194.5 -37.5t195 37.5t144 99.5t95 147.5t54 177.5t16 193q0 74 -7.5 141.5t-25.5 133.5t-45 122t-67 103.5t-91 81t-119.5 52t-148.5 18.5q-107 0 -193.5 -37.5t-143 -100t-94.5 -147.5t-54.5 -176.5t-16.5 -190.5zM487 1591l207 299h150 l200 -299h-94l-182 217l-186 -217h-95z" />
<glyph unicode="&#xd5;" horiz-adv-x="1525" d="M113 743q0 156 39.5 292t117 242.5t204 168t288.5 61.5q170 0 297 -56.5t203.5 -159.5t113.5 -236.5t37 -298.5q0 -128 -22.5 -241.5t-73 -213t-125 -171t-184.5 -112.5t-246 -41q-134 0 -243 39.5t-184 109.5t-125.5 167t-73.5 209.5t-23 240.5zM260 743q0 -100 16 -192 t54 -177.5t94.5 -148t143 -100t194.5 -37.5t195 37.5t144 99.5t95 147.5t54 177.5t16 193q0 74 -7.5 141.5t-25.5 133.5t-45 122t-67 103.5t-91 81t-119.5 52t-148.5 18.5q-107 0 -193.5 -37.5t-143 -100t-94.5 -147.5t-54.5 -176.5t-16.5 -190.5zM477 1649q14 73 63 119.5 t122 46.5q35 0 100 -21.5t100 -21.5q75 0 101 65h77q-15 -71 -60.5 -121.5t-113.5 -50.5q-36 0 -105.5 21.5t-105.5 21.5q-73 0 -100 -59h-78z" />
<glyph unicode="&#xd6;" horiz-adv-x="1525" d="M113 743q0 156 39.5 292t117 242.5t204 168t288.5 61.5q170 0 297 -56.5t203.5 -159.5t113.5 -236.5t37 -298.5q0 -128 -22.5 -241.5t-73 -213t-125 -171t-184.5 -112.5t-246 -41q-134 0 -243 39.5t-184 109.5t-125.5 167t-73.5 209.5t-23 240.5zM260 743q0 -100 16 -192 t54 -177.5t94.5 -148t143 -100t194.5 -37.5t195 37.5t144 99.5t95 147.5t54 177.5t16 193q0 74 -7.5 141.5t-25.5 133.5t-45 122t-67 103.5t-91 81t-119.5 52t-148.5 18.5q-107 0 -193.5 -37.5t-143 -100t-94.5 -147.5t-54.5 -176.5t-16.5 -190.5zM516 1704v156h150v-156 h-150zM866 1704v156h150v-156h-150z" />
<glyph unicode="&#xd7;" horiz-adv-x="1384" d="M209 98l399 400l-399 399l84 84l399 -399l398 397l86 -82l-400 -399l398 -400l-82 -84l-400 400l-399 -398z" />
<glyph unicode="&#xd8;" horiz-adv-x="1525" d="M68 29l180 200q-135 201 -135 514q0 156 39.5 292t117 242.5t204 168t288.5 61.5q299 0 467 -176l160 180l65 -59l-170 -190q129 -192 129 -506q0 -128 -22.5 -241.5t-73 -213t-125 -171t-184.5 -112.5t-246 -41q-292 0 -459 181l-172 -193zM260 743q0 -235 86 -403 l789 887q-132 168 -373 168q-107 0 -193.5 -37.5t-143 -100t-94.5 -147.5t-54.5 -176.5t-16.5 -190.5zM395 262q134 -174 367 -174q108 0 195 37.5t144 99.5t95 147.5t54 177.5t16 193q0 246 -82 406z" />
<glyph unicode="&#xd9;" horiz-adv-x="1523" d="M195 545v936h139v-889q0 -75 2.5 -118.5t18 -105.5t46.5 -108q57 -85 154 -127.5t207 -42.5q128 0 233.5 56t155.5 167q39 89 39 279v889h139v-936q0 -264 -151 -416t-416 -152q-273 0 -420 148t-147 420zM530 1886h164l185 -295h-91z" />
<glyph unicode="&#xda;" horiz-adv-x="1523" d="M195 545v936h139v-889q0 -75 2.5 -118.5t18 -105.5t46.5 -108q57 -85 154 -127.5t207 -42.5q128 0 233.5 56t155.5 167q39 89 39 279v889h139v-936q0 -264 -151 -416t-416 -152q-273 0 -420 148t-147 420zM662 1591l184 295h164l-258 -295h-90z" />
<glyph unicode="&#xdb;" horiz-adv-x="1523" d="M195 545v936h139v-889q0 -75 2.5 -118.5t18 -105.5t46.5 -108q57 -85 154 -127.5t207 -42.5q128 0 233.5 56t155.5 167q39 89 39 279v889h139v-936q0 -264 -151 -416t-416 -152q-273 0 -420 148t-147 420zM487 1591l207 299h150l200 -299h-94l-182 217l-186 -217h-95z " />
<glyph unicode="&#xdc;" horiz-adv-x="1523" d="M195 545v936h139v-889q0 -75 2.5 -118.5t18 -105.5t46.5 -108q57 -85 154 -127.5t207 -42.5q128 0 233.5 56t155.5 167q39 89 39 279v889h139v-936q0 -264 -151 -416t-416 -152q-273 0 -420 148t-147 420zM516 1704v156h150v-156h-150zM866 1704v156h150v-156h-150z" />
<glyph unicode="&#xdd;" horiz-adv-x="1255" d="M-12 1485h159l488 -727l481 727h152l-574 -850v-635h-133v639zM545 1591l184 295h164l-258 -295h-90z" />
<glyph unicode="&#xde;" horiz-adv-x="1232" d="M215 0v1481h133v-289h273q251 0 362 -70q85 -54 129.5 -145.5t44.5 -196.5q0 -135 -72 -234t-200 -140q-106 -35 -301 -35h-236v-371h-133zM348 481h221q184 0 271 31q82 29 128 108.5t46 172.5q0 72 -20 124.5t-53 83.5t-83.5 49.5t-102 24.5t-118.5 6h-289v-600z" />
<glyph unicode="&#xdf;" horiz-adv-x="1245" d="M176 0v924q0 81 0.5 116.5t9 102t25.5 112.5q42 119 149.5 180.5t241.5 61.5q71 0 134.5 -19t114.5 -55t81.5 -95t30.5 -132q0 -51 -25.5 -97.5t-61.5 -80.5t-72 -65.5t-61.5 -67.5t-25.5 -72q0 -37 25 -68t65.5 -56t89.5 -50t97.5 -55t89 -65.5t65.5 -88.5t25 -117 q0 -151 -105.5 -239t-259.5 -88q-142 0 -230.5 81.5t-91.5 221.5h127q0 -97 54 -150t151 -53q93 0 159 60.5t66 152.5q0 46 -19 84t-51 64t-72 51.5t-82 45.5t-82 47t-72 55.5t-51 71t-19 93.5q0 46 25.5 90.5t62 79.5t73 69t62 72t25.5 76q0 90 -74.5 144.5t-167.5 54.5 q-85 0 -157.5 -41t-110.5 -115q-9 -18 -16 -45t-10 -47.5t-5 -59t-2 -51.5v-56v-44v-938h-125z" />
<glyph unicode="&#xe0;" horiz-adv-x="1058" d="M66 281q0 54 14 98.5t36.5 77.5t59 59t72.5 43t86.5 29t91 18.5t97 10t93.5 4t89 0.5h53q2 25 2 71q0 135 -59 200.5t-193 65.5q-107 0 -168 -42.5t-72 -147.5h-123q1 75 31.5 131.5t83 89t115 48.5t133.5 16q194 0 284.5 -86.5t90.5 -276.5v-307q0 -199 20 -383h-115 q-5 58 -16 150q-62 -95 -144 -134t-202 -39q-152 0 -256 78t-104 226zM193 285q0 -102 75.5 -159.5t180.5 -57.5q54 0 98 10t75.5 30.5t55 44.5t38.5 60t24.5 69t14 79t6 82t1.5 85q-70 4 -103 4q-46 0 -80.5 -1t-86.5 -6.5t-89.5 -15t-79.5 -27.5t-68.5 -43.5t-44 -65 t-17.5 -88.5zM268 1507h164l184 -295h-90z" />
<glyph unicode="&#xe1;" horiz-adv-x="1058" d="M66 281q0 54 14 98.5t36.5 77.5t59 59t72.5 43t86.5 29t91 18.5t97 10t93.5 4t89 0.5h53q2 25 2 71q0 135 -59 200.5t-193 65.5q-107 0 -168 -42.5t-72 -147.5h-123q1 75 31.5 131.5t83 89t115 48.5t133.5 16q194 0 284.5 -86.5t90.5 -276.5v-307q0 -199 20 -383h-115 q-5 58 -16 150q-62 -95 -144 -134t-202 -39q-152 0 -256 78t-104 226zM193 285q0 -102 75.5 -159.5t180.5 -57.5q54 0 98 10t75.5 30.5t55 44.5t38.5 60t24.5 69t14 79t6 82t1.5 85q-70 4 -103 4q-46 0 -80.5 -1t-86.5 -6.5t-89.5 -15t-79.5 -27.5t-68.5 -43.5t-44 -65 t-17.5 -88.5zM408 1212l184 295h164l-258 -295h-90z" />
<glyph unicode="&#xe2;" horiz-adv-x="1058" d="M66 281q0 54 14 98.5t36.5 77.5t59 59t72.5 43t86.5 29t91 18.5t97 10t93.5 4t89 0.5h53q2 25 2 71q0 135 -59 200.5t-193 65.5q-107 0 -168 -42.5t-72 -147.5h-123q1 75 31.5 131.5t83 89t115 48.5t133.5 16q194 0 284.5 -86.5t90.5 -276.5v-307q0 -199 20 -383h-115 q-5 58 -16 150q-62 -95 -144 -134t-202 -39q-152 0 -256 78t-104 226zM193 285q0 -102 75.5 -159.5t180.5 -57.5q54 0 98 10t75.5 30.5t55 44.5t38.5 60t24.5 69t14 79t6 82t1.5 85q-70 4 -103 4q-46 0 -80.5 -1t-86.5 -6.5t-89.5 -15t-79.5 -27.5t-68.5 -43.5t-44 -65 t-17.5 -88.5zM242 1212l207 299h149l201 -299h-94l-183 218l-186 -218h-94z" />
<glyph unicode="&#xe3;" horiz-adv-x="1058" d="M66 281q0 54 14 98.5t36.5 77.5t59 59t72.5 43t86.5 29t91 18.5t97 10t93.5 4t89 0.5h53q2 25 2 71q0 135 -59 200.5t-193 65.5q-107 0 -168 -42.5t-72 -147.5h-123q1 75 31.5 131.5t83 89t115 48.5t133.5 16q194 0 284.5 -86.5t90.5 -276.5v-307q0 -199 20 -383h-115 q-5 58 -16 150q-62 -95 -144 -134t-202 -39q-152 0 -256 78t-104 226zM193 285q0 -102 75.5 -159.5t180.5 -57.5q54 0 98 10t75.5 30.5t55 44.5t38.5 60t24.5 69t14 79t6 82t1.5 85q-70 4 -103 4q-46 0 -80.5 -1t-86.5 -6.5t-89.5 -15t-79.5 -27.5t-68.5 -43.5t-44 -65 t-17.5 -88.5zM240 1270q14 73 62.5 119.5t121.5 46.5q35 0 100.5 -21.5t100.5 -21.5q74 0 100 65h78q-15 -71 -61 -121.5t-113 -50.5q-36 0 -105.5 21.5t-105.5 21.5q-74 0 -101 -59h-77z" />
<glyph unicode="&#xe4;" horiz-adv-x="1058" d="M66 281q0 54 14 98.5t36.5 77.5t59 59t72.5 43t86.5 29t91 18.5t97 10t93.5 4t89 0.5h53q2 25 2 71q0 135 -59 200.5t-193 65.5q-107 0 -168 -42.5t-72 -147.5h-123q1 75 31.5 131.5t83 89t115 48.5t133.5 16q194 0 284.5 -86.5t90.5 -276.5v-307q0 -199 20 -383h-115 q-5 58 -16 150q-62 -95 -144 -134t-202 -39q-152 0 -256 78t-104 226zM193 285q0 -102 75.5 -159.5t180.5 -57.5q54 0 98 10t75.5 30.5t55 44.5t38.5 60t24.5 69t14 79t6 82t1.5 85q-70 4 -103 4q-46 0 -80.5 -1t-86.5 -6.5t-89.5 -15t-79.5 -27.5t-68.5 -43.5t-44 -65 t-17.5 -88.5zM279 1325v156h149v-156h-149zM629 1325v156h149v-156h-149z" />
<glyph unicode="&#xe5;" horiz-adv-x="1058" d="M66 281q0 54 14 98.5t36.5 77.5t59 59t72.5 43t86.5 29t91 18.5t97 10t93.5 4t89 0.5h53q2 25 2 71q0 135 -59 200.5t-193 65.5q-107 0 -168 -42.5t-72 -147.5h-123q1 75 31.5 131.5t83 89t115 48.5t133.5 16q194 0 284.5 -86.5t90.5 -276.5v-307q0 -199 20 -383h-115 q-5 58 -16 150q-62 -95 -144 -134t-202 -39q-152 0 -256 78t-104 226zM193 285q0 -102 75.5 -159.5t180.5 -57.5q54 0 98 10t75.5 30.5t55 44.5t38.5 60t24.5 69t14 79t6 82t1.5 85q-70 4 -103 4q-46 0 -80.5 -1t-86.5 -6.5t-89.5 -15t-79.5 -27.5t-68.5 -43.5t-44 -65 t-17.5 -88.5zM276 1364q0 85 59 144t144 59q86 0 145.5 -59t59.5 -144t-60 -145t-145 -60q-83 0 -143 60t-60 145zM344 1364q0 -56 40 -95.5t95 -39.5q57 0 96 39t39 96q0 56 -40 95.5t-95 39.5t-95 -39.5t-40 -95.5z" />
<glyph unicode="&#xe6;" horiz-adv-x="1687" d="M63 274q0 87 47 158.5t126 114.5q58 32 136.5 41.5t188.5 9.5h182q-1 55 -3.5 93t-11 81.5t-26 72.5t-44 54t-68.5 37t-98 12q-102 0 -160.5 -40.5t-81.5 -137.5h-131q8 74 39 129t80.5 87t109.5 47.5t133 15.5q132 0 216.5 -45t123.5 -160q103 211 353 211 q110 0 192 -41.5t129 -114t69.5 -161t22.5 -193.5v-49h-719q0 -64 8 -119.5t29 -110t53.5 -93t85.5 -62t121 -23.5q115 0 196.5 61t82.5 173h131q-26 -166 -130 -254t-271 -88q-127 0 -220.5 59t-142.5 174q-97 -236 -385 -236q-70 0 -133 18t-115.5 52.5t-83.5 93 t-31 133.5zM199 283q0 -97 66 -151t165 -54q163 0 239 98t76 266q0 36 -2 54h-231q-58 0 -108.5 -9t-99 -31t-77 -66t-28.5 -107zM868 598h592q-2 70 -18.5 130.5t-49.5 109.5t-89 77.5t-129 28.5q-277 0 -306 -346z" />
<glyph unicode="&#xe7;" horiz-adv-x="1067" d="M100 506q0 118 31 218t91 176t155.5 119.5t216.5 43.5q172 0 278 -90.5t119 -259.5h-121q-11 120 -82.5 186t-191.5 66q-96 0 -168 -37t-113.5 -101.5t-61.5 -143.5t-20 -171q0 -85 21 -161.5t62.5 -140t111 -101t158.5 -37.5q119 0 199 72t89 190h117 q-15 -170 -124.5 -263.5t-282.5 -93.5l-23 -81q33 0 58 -2t55 -10t49 -21.5t32 -38.5t13 -60q0 -40 -18.5 -69.5t-50 -44.5t-65 -22t-71.5 -7q-100 0 -217 47l14 58q114 -52 191 -52q102 0 102 80q0 82 -102 82q-34 0 -64 -6l48 150q-108 7 -192 51.5t-136.5 116 t-79.5 162.5t-27 196z" />
<glyph unicode="&#xe8;" horiz-adv-x="1089" d="M100 500q0 114 28.5 212t84.5 174.5t147.5 120.5t210.5 44q96 0 170 -31.5t120 -83t75.5 -125t41 -149.5t11.5 -164h-762v-25q0 -108 37.5 -197.5t117.5 -147.5t189 -58q121 0 196.5 69t96.5 189h119q-32 -172 -142 -261.5t-286 -89.5q-115 0 -203.5 40.5t-142.5 112.5 t-81.5 165.5t-27.5 204.5zM231 590h631v20q0 145 -79 244.5t-220 99.5q-76 0 -137.5 -30t-101.5 -81.5t-63.5 -116t-29.5 -136.5zM350 1507h164l184 -295h-90z" />
<glyph unicode="&#xe9;" horiz-adv-x="1089" d="M100 500q0 114 28.5 212t84.5 174.5t147.5 120.5t210.5 44q96 0 170 -31.5t120 -83t75.5 -125t41 -149.5t11.5 -164h-762v-25q0 -108 37.5 -197.5t117.5 -147.5t189 -58q121 0 196.5 69t96.5 189h119q-32 -172 -142 -261.5t-286 -89.5q-115 0 -203.5 40.5t-142.5 112.5 t-81.5 165.5t-27.5 204.5zM231 590h631v20q0 145 -79 244.5t-220 99.5q-76 0 -137.5 -30t-101.5 -81.5t-63.5 -116t-29.5 -136.5zM481 1212l185 295h163l-258 -295h-90z" />
<glyph unicode="&#xea;" horiz-adv-x="1089" d="M100 500q0 114 28.5 212t84.5 174.5t147.5 120.5t210.5 44q96 0 170 -31.5t120 -83t75.5 -125t41 -149.5t11.5 -164h-762v-25q0 -108 37.5 -197.5t117.5 -147.5t189 -58q121 0 196.5 69t96.5 189h119q-32 -172 -142 -261.5t-286 -89.5q-115 0 -203.5 40.5t-142.5 112.5 t-81.5 165.5t-27.5 204.5zM231 590h631v20q0 145 -79 244.5t-220 99.5q-76 0 -137.5 -30t-101.5 -81.5t-63.5 -116t-29.5 -136.5zM291 1212l207 299h149l201 -299h-94l-183 218l-186 -218h-94z" />
<glyph unicode="&#xeb;" horiz-adv-x="1089" d="M100 500q0 114 28.5 212t84.5 174.5t147.5 120.5t210.5 44q96 0 170 -31.5t120 -83t75.5 -125t41 -149.5t11.5 -164h-762v-25q0 -108 37.5 -197.5t117.5 -147.5t189 -58q121 0 196.5 69t96.5 189h119q-32 -172 -142 -261.5t-286 -89.5q-115 0 -203.5 40.5t-142.5 112.5 t-81.5 165.5t-27.5 204.5zM231 590h631v20q0 145 -79 244.5t-220 99.5q-76 0 -137.5 -30t-101.5 -81.5t-63.5 -116t-29.5 -136.5zM336 1325v156h149v-156h-149zM686 1325v156h150v-156h-150z" />
<glyph unicode="&#xec;" horiz-adv-x="477" d="M176 0v1034h125v-1034h-125zM176 1507h164l184 -295h-90z" />
<glyph unicode="&#xed;" horiz-adv-x="477" d="M176 0v1034h125v-1034h-125zM176 1212l184 295h164l-258 -295h-90z" />
<glyph unicode="&#xee;" horiz-adv-x="477" d="M176 0v1034h125v-1034h-125zM176 1212l207 299h149l201 -299h-94l-182 218l-187 -218h-94z" />
<glyph unicode="&#xef;" horiz-adv-x="477" d="M176 0v1034h125v-1034h-125zM176 1325v156h150v-156h-150zM526 1325v156h150v-156h-150z" />
<glyph unicode="&#xf0;" horiz-adv-x="1155" d="M100 502q0 139 51 254t156 187.5t246 72.5q281 0 383 -271q-24 198 -102.5 342.5t-233.5 247.5l-190 -116l-60 55l174 106q-82 43 -198 76l36 80q143 -30 261 -98l192 118l62 -51l-181 -110q97 -59 168.5 -147t112 -191.5t59.5 -211t19 -224.5q0 -97 -15.5 -186 t-52 -173.5t-91.5 -147t-139 -100t-188 -37.5q-114 0 -204 41t-147.5 112.5t-87.5 166.5t-30 205zM238 496q0 -64 12 -123t38 -111.5t64 -91.5t93.5 -61.5t123.5 -22.5q71 0 129 25t97 67.5t65.5 99.5t38.5 118.5t12 127.5q0 170 -87.5 280.5t-252.5 110.5 q-89 0 -155.5 -34.5t-104 -94.5t-55.5 -132.5t-18 -157.5z" />
<glyph unicode="&#xf1;" horiz-adv-x="1177" d="M170 1034h123l8 -172q63 94 144 138t194 44q103 0 174.5 -27.5t112 -82.5t58 -128t17.5 -173v-633h-124v584q0 55 -3 94t-11.5 83t-26.5 74t-46 55t-72 37.5t-102 12.5q-84 0 -147 -31.5t-98.5 -87t-52.5 -123t-17 -147.5v-551h-125v741q0 49 -3 146.5t-3 146.5z M338 1270q14 73 62.5 119.5t121.5 46.5q35 0 100.5 -21.5t100.5 -21.5q74 0 100 65h78q-15 -71 -61 -121.5t-113 -50.5q-36 0 -105.5 21.5t-105.5 21.5q-73 0 -100 -59h-78z" />
<glyph unicode="&#xf2;" horiz-adv-x="1169" d="M100 524q0 151 55 270t166.5 190t264.5 71q117 0 209.5 -40t152 -112t90.5 -168t31 -211q0 -110 -32.5 -208.5t-92 -174t-152.5 -120t-206 -44.5q-118 0 -212 42.5t-153 117.5t-90 173.5t-31 213.5zM233 524q0 -85 20.5 -163t61.5 -143.5t111 -104.5t160 -39 q88 0 157.5 40t110.5 106t61.5 143.5t20.5 160.5q0 86 -20.5 160.5t-61 135.5t-109.5 96.5t-159 35.5q-72 0 -131.5 -23t-100 -63t-68.5 -95t-40.5 -117t-12.5 -130zM358 1507h164l185 -295h-91z" />
<glyph unicode="&#xf3;" horiz-adv-x="1169" d="M100 524q0 151 55 270t166.5 190t264.5 71q117 0 209.5 -40t152 -112t90.5 -168t31 -211q0 -110 -32.5 -208.5t-92 -174t-152.5 -120t-206 -44.5q-118 0 -212 42.5t-153 117.5t-90 173.5t-31 213.5zM233 524q0 -85 20.5 -163t61.5 -143.5t111 -104.5t160 -39 q88 0 157.5 40t110.5 106t61.5 143.5t20.5 160.5q0 86 -20.5 160.5t-61 135.5t-109.5 96.5t-159 35.5q-72 0 -131.5 -23t-100 -63t-68.5 -95t-40.5 -117t-12.5 -130zM473 1212l184 295h164l-258 -295h-90z" />
<glyph unicode="&#xf4;" horiz-adv-x="1169" d="M100 524q0 151 55 270t166.5 190t264.5 71q117 0 209.5 -40t152 -112t90.5 -168t31 -211q0 -110 -32.5 -208.5t-92 -174t-152.5 -120t-206 -44.5q-118 0 -212 42.5t-153 117.5t-90 173.5t-31 213.5zM233 524q0 -85 20.5 -163t61.5 -143.5t111 -104.5t160 -39 q88 0 157.5 40t110.5 106t61.5 143.5t20.5 160.5q0 86 -20.5 160.5t-61 135.5t-109.5 96.5t-159 35.5q-72 0 -131.5 -23t-100 -63t-68.5 -95t-40.5 -117t-12.5 -130zM315 1212l207 299h150l200 -299h-94l-182 218l-186 -218h-95z" />
<glyph unicode="&#xf5;" horiz-adv-x="1169" d="M100 524q0 151 55 270t166.5 190t264.5 71q117 0 209.5 -40t152 -112t90.5 -168t31 -211q0 -110 -32.5 -208.5t-92 -174t-152.5 -120t-206 -44.5q-118 0 -212 42.5t-153 117.5t-90 173.5t-31 213.5zM233 524q0 -85 20.5 -163t61.5 -143.5t111 -104.5t160 -39 q88 0 157.5 40t110.5 106t61.5 143.5t20.5 160.5q0 86 -20.5 160.5t-61 135.5t-109.5 96.5t-159 35.5q-72 0 -131.5 -23t-100 -63t-68.5 -95t-40.5 -117t-12.5 -130zM313 1270q14 73 63 119.5t122 46.5q35 0 100 -21.5t100 -21.5q75 0 101 65h78q-15 -71 -61 -121.5 t-114 -50.5q-36 0 -105 21.5t-105 21.5q-74 0 -101 -59h-78z" />
<glyph unicode="&#xf6;" horiz-adv-x="1169" d="M100 524q0 151 55 270t166.5 190t264.5 71q117 0 209.5 -40t152 -112t90.5 -168t31 -211q0 -110 -32.5 -208.5t-92 -174t-152.5 -120t-206 -44.5q-118 0 -212 42.5t-153 117.5t-90 173.5t-31 213.5zM233 524q0 -85 20.5 -163t61.5 -143.5t111 -104.5t160 -39 q88 0 157.5 40t110.5 106t61.5 143.5t20.5 160.5q0 86 -20.5 160.5t-61 135.5t-109.5 96.5t-159 35.5q-72 0 -131.5 -23t-100 -63t-68.5 -95t-40.5 -117t-12.5 -130zM344 1325v156h150v-156h-150zM694 1325v156h150v-156h-150z" />
<glyph unicode="&#xf7;" horiz-adv-x="1384" d="M180 442v111h1024v-111h-1024zM614 27v211h156v-211h-156zM614 756v211h156v-211h-156z" />
<glyph unicode="&#xf8;" horiz-adv-x="1169" d="M49 14l148 156q-97 148 -97 354q0 151 55 270t166.5 190t264.5 71q207 0 334 -121l139 147l61 -57l-145 -156q94 -139 94 -344q0 -110 -32.5 -208.5t-92 -174t-152.5 -120t-206 -44.5q-207 0 -334 127l-139 -147zM233 524q0 -144 54 -258l549 580q-92 106 -250 106 q-72 0 -131.5 -23t-100 -63t-68.5 -95t-40.5 -117t-12.5 -130zM334 190q94 -116 252 -116q88 0 157.5 40t110.5 106t61.5 143.5t20.5 160.5q0 145 -53 248z" />
<glyph unicode="&#xf9;" horiz-adv-x="1177" d="M176 401v633h125v-583q0 -62 6.5 -111.5t24 -97t46 -79t76 -50.5t111.5 -19q84 0 146.5 33t97.5 91t51.5 126.5t16.5 149.5v540h124v-725q0 -131 7 -309h-123l-4 166q-65 -93 -144 -134.5t-192 -41.5q-199 0 -284 103.5t-85 307.5zM358 1507h164l185 -295h-91z" />
<glyph unicode="&#xfa;" horiz-adv-x="1177" d="M176 401v633h125v-583q0 -62 6.5 -111.5t24 -97t46 -79t76 -50.5t111.5 -19q84 0 146.5 33t97.5 91t51.5 126.5t16.5 149.5v540h124v-725q0 -131 7 -309h-123l-4 166q-65 -93 -144 -134.5t-192 -41.5q-199 0 -284 103.5t-85 307.5zM473 1212l184 295h164l-258 -295h-90z " />
<glyph unicode="&#xfb;" horiz-adv-x="1177" d="M176 401v633h125v-583q0 -62 6.5 -111.5t24 -97t46 -79t76 -50.5t111.5 -19q84 0 146.5 33t97.5 91t51.5 126.5t16.5 149.5v540h124v-725q0 -131 7 -309h-123l-4 166q-65 -93 -144 -134.5t-192 -41.5q-199 0 -284 103.5t-85 307.5zM315 1212l207 299h150l200 -299h-94 l-182 218l-186 -218h-95z" />
<glyph unicode="&#xfc;" horiz-adv-x="1177" d="M176 401v633h125v-583q0 -62 6.5 -111.5t24 -97t46 -79t76 -50.5t111.5 -19q84 0 146.5 33t97.5 91t51.5 126.5t16.5 149.5v540h124v-725q0 -131 7 -309h-123l-4 166q-65 -93 -144 -134.5t-192 -41.5q-199 0 -284 103.5t-85 307.5zM344 1325v156h150v-156h-150zM694 1325 v156h150v-156h-150z" />
<glyph unicode="&#xfd;" horiz-adv-x="1038" d="M39 1034h149l347 -866l344 866h125l-568 -1423h-127l164 395zM422 1212l184 295h164l-258 -295h-90z" />
<glyph unicode="&#xfe;" horiz-adv-x="1189" d="M176 -389v1870h125v-639q66 111 149 161t209 50q108 0 192.5 -43t135.5 -117t77 -166t26 -195q0 -106 -29 -202.5t-83.5 -174.5t-143.5 -124.5t-199 -46.5q-116 0 -190.5 44.5t-143.5 145.5v-563h-125zM303 514q0 -65 9.5 -124t32 -116t57.5 -98t90.5 -66.5t125.5 -25.5 q89 0 156.5 36.5t106 99.5t57 138t18.5 160q0 81 -16 154t-50 138.5t-97.5 104.5t-149.5 39q-89 0 -157 -38t-106.5 -102t-57.5 -139.5t-19 -160.5z" />
<glyph unicode="&#xff;" horiz-adv-x="1038" d="M39 1034h149l347 -866l344 866h125l-568 -1423h-127l164 395zM287 1325v156h149v-156h-149zM637 1325v156h149v-156h-149z" />
<glyph unicode="&#x152;" horiz-adv-x="2011" d="M113 733q0 365 189.5 564.5t551.5 199.5q68 0 204.5 -8t203.5 -8h612v-119h-680v-537h649v-118h-649v-588h709v-119h-592q-73 0 -217 -8t-217 -8q-377 0 -570.5 186.5t-193.5 562.5zM254 737q0 -307 152 -472t456 -165q91 0 199 23v1235q-119 18 -195 18 q-303 0 -457.5 -166.5t-154.5 -472.5z" />
<glyph unicode="&#x153;" horiz-adv-x="1826" d="M100 520q0 106 28 200.5t82.5 171t144 121t202.5 44.5q123 0 208 -47.5t144 -145.5q15 -27 31 -59q43 119 140 181.5t227 62.5q114 0 197 -38.5t130 -108.5t68.5 -156t23.5 -193v-57h-716q0 -38 2 -56q3 -56 13.5 -105.5t32.5 -96.5t54.5 -80.5t81.5 -53.5t111 -20 q93 0 163.5 51.5t96.5 136.5q7 26 10 47h137q0 -2 -12 -55q-37 -136 -139.5 -210t-251.5 -74q-115 0 -212 52t-141 150q-11 26 -16 43q-9 -25 -22 -47q-106 -194 -361 -194q-92 0 -168 28t-129 77.5t-89.5 117.5t-53.5 146.5t-17 166.5zM240 504q0 -65 10.5 -123.5 t34.5 -112.5t60.5 -93t92 -62t125.5 -23q85 0 148 36t98 97.5t51.5 132t16.5 150.5q0 66 -9 125.5t-32 117.5t-58 100t-91 67.5t-128 25.5t-128.5 -26t-91.5 -68t-58 -100t-32 -118t-9 -126zM1012 598h583q0 31 -2 45q-10 136 -82.5 218.5t-210.5 82.5q-127 0 -198 -83 t-86 -212q-4 -32 -4 -51z" />
<glyph unicode="&#x178;" horiz-adv-x="1255" d="M-12 1485h159l488 -727l481 727h152l-574 -850v-635h-133v639zM393 1704v156h150v-156h-150zM743 1704v156h150v-156h-150z" />
<glyph unicode="&#x2c6;" horiz-adv-x="598" d="M20 1212l207 299h150l201 -299h-95l-182 218l-186 -218h-95z" />
<glyph unicode="&#x2dc;" horiz-adv-x="600" d="M18 1270q14 73 63 119.5t122 46.5q35 0 100 -21.5t100 -21.5q75 0 101 65h78q-15 -71 -60.5 -121.5t-113.5 -50.5q-36 0 -105.5 21.5t-105.5 21.5q-74 0 -101 -59h-78z" />
<glyph unicode="&#x2000;" horiz-adv-x="968" />
<glyph unicode="&#x2001;" horiz-adv-x="1937" />
<glyph unicode="&#x2002;" horiz-adv-x="968" />
<glyph unicode="&#x2003;" horiz-adv-x="1937" />
<glyph unicode="&#x2004;" horiz-adv-x="645" />
<glyph unicode="&#x2005;" horiz-adv-x="484" />
<glyph unicode="&#x2006;" horiz-adv-x="322" />
<glyph unicode="&#x2007;" horiz-adv-x="322" />
<glyph unicode="&#x2008;" horiz-adv-x="242" />
<glyph unicode="&#x2009;" horiz-adv-x="387" />
<glyph unicode="&#x200a;" horiz-adv-x="107" />
<glyph unicode="&#x2010;" horiz-adv-x="673" d="M78 494v108h518v-108h-518z" />
<glyph unicode="&#x2011;" horiz-adv-x="673" d="M78 494v108h518v-108h-518z" />
<glyph unicode="&#x2012;" horiz-adv-x="673" d="M78 494v108h518v-108h-518z" />
<glyph unicode="&#x2013;" horiz-adv-x="1052" d="M14 492v86h1024v-86h-1024z" />
<glyph unicode="&#x2014;" horiz-adv-x="2078" d="M281 492v86h1517v-86h-1517z" />
<glyph unicode="&#x2018;" horiz-adv-x="600" d="M170 1059l149 422h111l-92 -422h-168z" />
<glyph unicode="&#x2019;" horiz-adv-x="600" d="M170 1059l94 422h166l-149 -422h-111z" />
<glyph unicode="&#x201a;" horiz-adv-x="614" d="M170 -246l104 422h170l-163 -422h-111z" />
<glyph unicode="&#x201c;" horiz-adv-x="1001" d="M170 1059l174 422h109l-113 -422h-170zM549 1059l174 422h108l-110 -422h-172z" />
<glyph unicode="&#x201d;" horiz-adv-x="1001" d="M170 1059l111 422h172l-174 -422h-109zM549 1059l113 422h169l-174 -422h-108z" />
<glyph unicode="&#x201e;" horiz-adv-x="993" d="M170 -246l104 422h170l-163 -422h-111zM549 -246l104 422h170l-161 -422h-113z" />
<glyph unicode="&#x2022;" horiz-adv-x="1054" d="M158 741q0 153 108.5 261t261.5 108q152 0 260.5 -108.5t108.5 -260.5q0 -153 -108 -261.5t-261 -108.5q-154 0 -262 108t-108 262z" />
<glyph unicode="&#x2026;" horiz-adv-x="2076" d="M274 0v176h164v-176h-164zM956 0v176h164v-176h-164zM1638 0v176h164v-176h-164z" />
<glyph unicode="&#x202f;" horiz-adv-x="387" />
<glyph unicode="&#x2039;" horiz-adv-x="598" d="M141 537l209 393h105l-185 -404l187 -393h-107z" />
<glyph unicode="&#x203a;" horiz-adv-x="598" d="M141 930h107l209 -404l-209 -393h-105l185 404z" />
<glyph unicode="&#x205f;" horiz-adv-x="484" />
<glyph unicode="&#x20ac;" d="M55 582l27 100h149q0 18 -1 47t-1 45v35q0 23 2 37h-172l27 100h150q17 119 53 215t97.5 176.5t158 125t221.5 44.5t207 -30.5t125 -69.5l-33 -123q-102 111 -297 111q-96 0 -170 -37.5t-119.5 -103t-71 -142t-34.5 -166.5h600l-27 -100h-577q-2 -14 -2 -37v-35 q0 -16 1 -45t1 -47h530l-27 -100h-501q5 -84 20.5 -155t46 -134.5t74.5 -107.5t110.5 -69.5t149.5 -25.5q185 0 293 103v-140q-59 -38 -126 -57t-171 -19q-110 0 -197.5 30.5t-146.5 83t-99.5 130.5t-62 165.5t-29.5 195.5h-178z" />
<glyph unicode="&#x2122;" horiz-adv-x="1955" d="M164 1401v78h639v-78h-266v-662h-101v662h-272zM895 739v740h147l248 -602l248 602h141v-740h-100v650l-256 -650h-68l-260 650v-650h-100z" />
<glyph unicode="&#x25fc;" horiz-adv-x="1034" d="M0 0v1034h1034v-1034h-1034z" />
<glyph unicode="&#xfb01;" horiz-adv-x="1124" d="M35 942v92h209q0 25 -1.5 69.5t-1.5 72.5t1.5 69t7.5 67t16 58t28.5 52t44.5 38t63.5 26.5t84.5 8.5l129 -6v-96q-50 4 -71 4q-109 0 -142.5 -42.5t-33.5 -156.5v-164h229v-92h-229v-942h-125v942h-209zM811 1325v156h150v-156h-150zM823 0v1034h125v-1034h-125z" />
<glyph unicode="&#xfb02;" horiz-adv-x="1124" d="M35 942v92h209q0 25 -1 70t-1.5 72.5t1 68.5t7.5 67t16.5 58t29 52t44 38t63 26.5t84.5 8.5l129 -6v-96q-50 4 -71 4q-109 0 -142.5 -42.5t-33.5 -156.5v-164h229v-92h-229v-942h-125v942h-209zM823 0v1481h125v-1481h-125z" />
</font>
</defs>
</svg>
