<?xml version="1.0" standalone="no"?>
<!DOCTYPE svg PUBLIC "-//W3C//DTD SVG 1.1//EN" "http://www.w3.org/Graphics/SVG/1.1/DTD/svg11.dtd" >
<svg xmlns="http://www.w3.org/2000/svg" xmlns:xlink="http://www.w3.org/1999/xlink" version="1.1">
<metadata></metadata>
<defs>
<font id="ltuniversbasicmediumitalic" horiz-adv-x="1228" >
<font-face units-per-em="2048" ascent="1638" descent="-410" />
<missing-glyph horiz-adv-x="614" />
<glyph horiz-adv-x="0" />
<glyph horiz-adv-x="682" />
<glyph unicode=" "  horiz-adv-x="614" />
<glyph unicode="&#x09;" horiz-adv-x="614" />
<glyph unicode="&#xa0;" horiz-adv-x="614" />
<glyph unicode="!" horiz-adv-x="868" d="M100 0l66 227h246l-66 -227h-246zM238 383l276 1098h279l-367 -1098h-188z" />
<glyph unicode="&#x22;" horiz-adv-x="854" d="M340 1481h207l-35 -471h-137zM692 1481h207l-35 -471h-137z" />
<glyph unicode="#" d="M-10 410l41 170h223l108 311h-200l39 170h225l152 420h188l-152 -420h238l149 420h189l-152 -420h203l-39 -170h-223l-111 -311h201l-39 -170h-225l-146 -410h-188l145 410h-237l-146 -410h-188l145 410h-200zM442 580h238l108 311h-235z" />
<glyph unicode="$" d="M-4 346q0 42 6 72h240q-9 -65 -9 -66q0 -78 47 -128.5t136 -65.5l137 495q-115 63 -156 90q-180 119 -180 295q0 106 46 189t125 134.5t179.5 78t214.5 26.5l54 193h120l-57 -201q152 -22 236 -99.5t84 -197.5q0 -37 -11 -84h-237q4 32 4 47q0 126 -125 164l-129 -461 q141 -72 205 -122q131 -100 131 -246q0 -122 -47 -217t-129 -151.5t-183.5 -85.5t-218.5 -30l-61 -211h-117l64 218q-142 16 -244 92q-122 94 -125 272zM465 1071q0 -76 72 -137q8 -6 23.5 -21t28 -25t27.5 -18l119 430q-93 -3 -168 -53q-102 -69 -102 -176zM530 154 q81 6 154 49q53 30 84 83.5t31 121.5q0 72 -39 120q-36 42 -101 84z" />
<glyph unicode="%" horiz-adv-x="1941" d="M154 979q0 103 33.5 203.5t95.5 175.5q121 147 311 147q133 0 200.5 -71.5t67.5 -188.5q0 -104 -32.5 -205.5t-94.5 -179.5q-57 -73 -137 -114t-174 -41q-135 0 -202.5 75.5t-67.5 198.5zM332 973q0 -60 29.5 -95.5t87.5 -35.5q99 0 163 119q34 60 52 133.5t18 136.5 t-28.5 101t-86.5 38q-69 0 -125 -68t-83 -157.5t-27 -171.5zM362 -53l1049 1571h158l-1047 -1571h-160zM1079 252q0 107 34 209.5t97 177.5q118 143 310 143q134 0 201 -71t67 -191q0 -103 -33 -205.5t-94 -179.5q-120 -153 -311 -153q-135 0 -203 74t-68 196zM1257 250 q0 -60 29.5 -95.5t87.5 -35.5q100 0 164 119q34 60 52 134t18 136t-29 100.5t-88 38.5q-69 0 -125 -68t-82.5 -157.5t-26.5 -171.5z" />
<glyph unicode="&#x26;" horiz-adv-x="1615" d="M37 362q0 120 64.5 216t168 150.5t228.5 68.5q-103 45 -148 104.5t-45 155.5q0 107 49 194t132.5 142t190.5 84.5t226 29.5q141 0 264 -24l-51 -172q-110 20 -182 20q-105 0 -193.5 -29t-148.5 -95.5t-60 -159.5q0 -51 24.5 -87.5t66 -55t84 -26.5t88.5 -8h272l82 293 h229l-82 -293h283l-49 -172h-283l-198 -698h-549q-179 0 -297 68q-78 45 -122 120.5t-44 173.5zM285 383q0 -61 32.5 -105.5t88.5 -68.5q86 -37 237 -37h223l150 526h-242q-206 0 -319 -55q-79 -38 -124.5 -104.5t-45.5 -155.5z" />
<glyph unicode="'" horiz-adv-x="638" d="M340 1481h207l-35 -471h-137z" />
<glyph unicode="(" horiz-adv-x="651" d="M61 168q0 244 54 430q56 196 174 396.5t323 486.5h164q-134 -219 -224 -385.5t-155 -339.5q-92 -242 -121 -406q-10 -62 -18 -184q-9 -129 -6 -258q-2 -49 4 -215h-160q-1 14 -3.5 38.5t-4.5 45.5q-27 290 -27 391z" />
<glyph unicode=")" horiz-adv-x="651" d="M-180 -307q50 79 145 237q122 206 193.5 361t115.5 321q43 167 58 361q12 147 12 276q0 35 -1 73.5t-2.5 85.5t-2.5 73h160q18 -151 22 -209q17 -189 17 -279q0 -207 -54 -409q-52 -190 -175 -403t-322 -488h-166z" />
<glyph unicode="*" horiz-adv-x="960" d="M223 1018l4 178l301 -39l-178 244l156 88l108 -281l125 281l154 -92l-195 -240l301 39l-2 -178l-299 41l179 -248l-160 -86l-107 281l-129 -283l-149 88l194 248z" />
<glyph unicode="+" horiz-adv-x="1323" d="M106 428v184h433v428h192v-428h432v-184h-432v-428h-192v428h-433z" />
<glyph unicode="," horiz-adv-x="614" d="M-207 -248l268 475h265l-346 -475h-187z" />
<glyph unicode="-" horiz-adv-x="710" d="M16 461l47 164h545l-49 -164h-543z" />
<glyph unicode="." horiz-adv-x="614" d="M-16 0l65 233h246l-66 -233h-245z" />
<glyph unicode="/" horiz-adv-x="675" d="M-211 -29l936 1540h180l-932 -1540h-184z" />
<glyph unicode="0" d="M41 393q0 111 34 255t83 274q38 99 76.5 176.5t96 157t121.5 131.5t152.5 85t190.5 33q103 0 180 -32t122 -88.5t67 -128t22 -158.5q0 -170 -49.5 -379.5t-143.5 -388.5q-187 -355 -528 -355q-210 0 -317 114.5t-107 303.5zM276 377q0 -106 51.5 -166.5t153.5 -60.5 q44 0 83.5 15.5t70 40t60 64.5t50.5 77t44 91t37.5 94t33.5 97q38 112 65 245.5t27 217.5q0 118 -45 179.5t-145 61.5q-136 0 -227.5 -126.5t-174.5 -383.5q-84 -260 -84 -446z" />
<glyph unicode="1" d="M324 1024l61 221q133 53 209 94q111 58 221 142h211l-424 -1481h-242l353 1217q-55 -39 -127 -80q-111 -62 -262 -113z" />
<glyph unicode="2" d="M-100 0l47 190q15 10 169.5 130.5t174.5 134.5q31 24 174.5 127.5t212.5 160.5q276 232 276 404q0 82 -53.5 132t-144.5 50q-148 0 -230 -112q-40 -56 -59 -144h-244q33 163 125 266q148 166 434 166q182 0 301 -89t119 -251q0 -221 -223 -434q-42 -40 -97.5 -85 t-95 -74.5t-113.5 -83.5t-104 -76q-34 -27 -155 -118.5t-146 -107.5h690l-45 -186h-1013z" />
<glyph unicode="3" d="M-29 330q0 16 5 41.5t6 38.5h245q-6 -46 -6 -62q0 -91 70 -143.5t176 -52.5q160 0 248 88q90 87 90 227q0 103 -72.5 157.5t-191.5 57.5q-52 0 -72 -2l47 174q10 -1 34 -3t43.5 -3.5t29.5 -1.5q162 0 256 67q100 74 100 215q0 101 -61.5 156t-161.5 55 q-97 0 -173.5 -44.5t-109.5 -143.5l-16 -59h-250q25 138 113 233.5t205 137.5t255 42q88 0 165.5 -20.5t140 -61.5t99 -109.5t36.5 -156.5q0 -103 -49 -186t-136 -140q-96 -62 -213 -79q81 -21 134 -67t73.5 -98t20.5 -112q0 -153 -81 -268t-217.5 -173.5t-306.5 -58.5 q-92 0 -176.5 23t-151.5 66.5t-107 112.5t-40 153z" />
<glyph unicode="4" d="M-41 328l64 221l866 932h307l-281 -983h234l-53 -170h-230l-94 -328h-231l94 328h-676zM201 498h483l229 778z" />
<glyph unicode="5" d="M16 301q0 26 15 88h245q-10 -36 -10 -74q0 -76 57 -119.5t148 -43.5q156 0 256 127q52 64 80.5 146t28.5 165q0 90 -54.5 150.5t-148.5 60.5q-95 0 -161.5 -44t-117.5 -134h-243l280 858h866l-57 -183h-643l-156 -473q69 80 148.5 114t179.5 34q110 0 192 -51t121 -130.5 t39 -173.5q0 -145 -50.5 -269t-145.5 -216q-166 -160 -432 -160q-194 0 -315.5 87t-121.5 241z" />
<glyph unicode="6" d="M68 453q0 151 49.5 329t126.5 322q103 197 248.5 299t357.5 102q169 0 276 -87t107 -228q0 -24 -6 -80h-242q4 36 4 61q-6 172 -184 172q-101 0 -189 -80.5t-155 -215.5q-56 -111 -94 -228q84 81 162.5 119.5t185.5 38.5q178 0 281.5 -106t103.5 -275q0 -132 -49 -253 t-129 -202q-163 -166 -424 -166q-196 0 -313 133t-117 345zM293 383q0 -100 64 -169t165 -69q68 0 128.5 32t103.5 87q52 63 79 149.5t27 172.5q0 97 -57 160t-160 63q-107 0 -188.5 -64t-121.5 -160t-40 -202z" />
<glyph unicode="7" d="M35 0l938 1292h-746l56 189h995l-57 -197l-902 -1284h-284z" />
<glyph unicode="8" d="M-8 350q0 99 42 182t110 136.5t146.5 85.5t160.5 41q-211 75 -211 270q0 131 75 232.5t200 154.5t278 53q124 0 225 -38.5t163 -116.5t62 -183q0 -87 -34 -160.5t-91 -122.5t-126.5 -80.5t-145.5 -43.5q217 -77 217 -289q0 -119 -49 -215t-132 -156.5t-188.5 -92.5 t-222.5 -32q-135 0 -242 41.5t-172 128t-65 205.5zM229 371q0 -104 70 -169t188 -65q151 0 245.5 98t94.5 230q0 100 -63 163.5t-184 63.5q-146 0 -248.5 -89t-102.5 -232zM473 1063q0 -93 66.5 -152t167.5 -59q128 0 217.5 79t89.5 210q0 91 -67 149t-167 58 q-134 0 -220.5 -83t-86.5 -202z" />
<glyph unicode="9" d="M-10 283q0 53 6 92h240q-5 -31 -5 -60q0 -76 54.5 -119.5t158.5 -43.5q99 0 173 57t137 174q87 163 135 317q-75 -76 -160.5 -112.5t-196.5 -36.5q-166 0 -271 105.5t-105 271.5q0 167 77.5 300.5t208.5 206t289 72.5q220 0 333.5 -117.5t113.5 -320.5q0 -145 -53.5 -344 t-131.5 -358q-97 -195 -237.5 -293.5t-345.5 -98.5q-189 0 -304.5 86.5t-115.5 221.5zM391 954q0 -105 57 -173t166 -68q133 0 228 102q53 56 81.5 133t28.5 160q0 101 -62 165t-165 64q-143 0 -233 -104q-47 -54 -74 -127.5t-27 -151.5z" />
<glyph unicode=":" horiz-adv-x="614" d="M-20 0l67 233h246l-68 -233h-245zM211 797l68 233h245l-65 -233h-248z" />
<glyph unicode=";" horiz-adv-x="614" d="M-207 -248l268 475h265l-349 -475h-184zM205 797l65 233h246l-65 -233h-246z" />
<glyph unicode="&#x3c;" horiz-adv-x="1323" d="M106 424v192l1057 418v-198l-831 -318l831 -313v-199z" />
<glyph unicode="=" horiz-adv-x="1323" d="M106 215v182h1057v-182h-1057zM106 641v184h1057v-184h-1057z" />
<glyph unicode="&#x3e;" horiz-adv-x="1320" d="M106 6v199l830 313l-830 318v198l1055 -418v-192z" />
<glyph unicode="?" horiz-adv-x="1095" d="M109 0l67 227h244l-66 -227h-245zM244 383q26 109 57 192q28 74 102 142q25 23 54.5 46t74.5 55.5t54 39.5q107 79 165 152t58 155q0 85 -64.5 126.5t-166.5 41.5q-115 0 -236 -37l51 181q153 30 273 30q85 0 156.5 -15t128.5 -45.5t89.5 -83.5t32.5 -124 q0 -65 -21.5 -125t-52.5 -106t-83.5 -96t-96.5 -83.5t-110 -78.5q-19 -13 -68.5 -50.5t-62.5 -48.5q-40 -36 -60 -64.5t-37 -78.5q-1 -4 -9.5 -31t-16.5 -54.5t-11 -39.5h-200z" />
<glyph unicode="@" horiz-adv-x="1642" d="M82 719q0 147 47 274q48 131 143 240q117 132 281 203q177 75 365 75q157 0 296 -51q134 -50 230 -143q87 -84 129 -191q43 -104 43 -231t-51 -248q-49 -117 -133 -192q-54 -48 -119 -72q-61 -25 -127 -25q-42 0 -76 15q-35 15 -55 41q-26 32 -31 71q-2 8 -2 25 q0 27 4 43q-21 -43 -57 -88q-18 -23 -58 -55q-77 -58 -180 -58q-109 0 -182 70q-45 42 -70 106q-24 64 -24 142q0 104 37 194q40 100 106 172q62 65 127 97q67 30 143 30q54 0 95 -14q46 -16 77 -43q49 -43 66 -107l37 134h157q-4 -14 -32.5 -103t-57 -183.5t-36.5 -135.5 q-23 -77 -27 -131q-3 -40 2 -58q9 -26 16 -33q21 -24 66 -24q99 0 180 129q60 99 78 213q20 118 0 213q-14 75 -57 147q-44 68 -107 119q-81 65 -180 94q-100 33 -225 33q-202 0 -369 -90q-161 -84 -258 -246q-70 -119 -88 -268q-13 -120 0 -213q19 -112 65 -195 q49 -90 129 -161q41 -36 109 -76q60 -33 123 -53q121 -41 262 -41q212 0 393 90q92 45 178 108l54 -73q-86 -62 -175 -111q-213 -113 -460 -113q-170 0 -319.5 56.5t-258.5 160.5q-106 100 -166 242q-57 136 -57 289zM641 655q0 -81 33 -131q39 -59 108 -59q54 0 103 43 q46 40 80 100q34 61 59 152q23 87 23 141q0 67 -39 109q-38 41 -101 41q-100 0 -176 -113q-39 -60 -65 -135q-25 -80 -25 -148z" />
<glyph unicode="A" horiz-adv-x="1476" d="M-176 0l999 1481h297l170 -1481h-252l-37 367h-679l-236 -367h-262zM436 545h545l-61 743z" />
<glyph unicode="B" horiz-adv-x="1404" d="M-10 0l430 1481h526q211 0 309 -92q93 -86 93 -230q0 -98 -41 -178t-113 -133q-97 -72 -223 -90q241 -66 241 -283q0 -123 -55 -223.5t-151 -161.5q-142 -90 -369 -90h-647zM289 182h340q154 0 243 80q95 85 95 221q0 79 -60 134t-162 55h-315zM479 848h262q165 0 258 70 q103 79 103 208q0 115 -94 152q-55 20 -146 20h-252z" />
<glyph unicode="C" horiz-adv-x="1409" d="M70 489q0 202 77.5 409t217.5 353q244 254 587 254q219 0 353.5 -96.5t134.5 -267.5q0 -14 -8 -84h-267q4 31 4 67q0 90 -68 141.5t-177 51.5q-118 0 -222 -62.5t-184 -175.5q-86 -123 -134 -278t-48 -312q0 -42 7.5 -82.5t29 -85.5t55 -78t91 -55t132.5 -22 q111 0 200.5 63t131.5 174h272q-77 -217 -238 -322.5t-380 -105.5q-121 0 -219 31t-161.5 81.5t-106.5 118t-61.5 138.5t-18.5 145z" />
<glyph unicode="D" horiz-adv-x="1574" d="M-10 0l430 1481h461q217 0 366 -70q262 -123 262 -444q0 -265 -125 -518q-136 -278 -405 -383q-170 -66 -414 -66h-575zM299 186h215q159 0 262 25q125 31 211 102t150 197q110 209 110 434q0 218 -174 301q-101 49 -256 49h-196z" />
<glyph unicode="E" horiz-adv-x="1290" d="M-10 0l430 1481h962l-55 -189h-711l-129 -442h674l-53 -184h-674l-139 -478h733l-55 -188h-983z" />
<glyph unicode="F" horiz-adv-x="1212" d="M-10 0l430 1481h921l-53 -189h-672l-131 -448h635l-53 -185h-635l-192 -659h-250z" />
<glyph unicode="G" horiz-adv-x="1499" d="M70 483q0 202 73 397.5t197 344.5q121 147 277.5 214.5t365.5 67.5q95 0 177 -21.5t148 -63.5t104 -113t38 -162q0 -41 -8 -82h-271q3 22 3 61q0 92 -66 142.5t-178 50.5q-227 0 -387 -205q-98 -125 -152.5 -294.5t-54.5 -330.5q0 -156 94 -241q99 -86 287 -86 q120 0 250 43l118 397h-331l53 180h573l-209 -723q-132 -44 -248.5 -64t-267.5 -20q-136 0 -249.5 40t-192.5 114q-143 137 -143 354z" />
<glyph unicode="H" horiz-adv-x="1617" d="M-10 0l430 1481h254l-182 -625h702l182 625h254l-432 -1481h-254l193 662h-701l-192 -662h-254z" />
<glyph unicode="I" horiz-adv-x="645" d="M-10 0l430 1481h254l-430 -1481h-254z" />
<glyph unicode="J" horiz-adv-x="1179" d="M-63 287q0 43 3 64t17 55h258q-14 -41 -14 -80q0 -70 39 -115t125 -45q142 0 221 125q41 62 71 168l301 1022h252l-317 -1088q-50 -172 -133 -264q-141 -154 -422 -154q-177 0 -289 84.5t-112 227.5z" />
<glyph unicode="K" horiz-adv-x="1400" d="M-10 0l430 1481h254l-430 -1481h-254zM483 801l748 680h313l-792 -697l465 -784h-297z" />
<glyph unicode="L" horiz-adv-x="1165" d="M-10 0l430 1481h254l-377 -1291h707l-56 -190h-958z" />
<glyph unicode="M" horiz-adv-x="2062" d="M-10 0l432 1481h397l80 -1190l776 1190h398l-433 -1481h-243l395 1319l-866 -1319h-228l-94 1319l-381 -1319h-233z" />
<glyph unicode="N" horiz-adv-x="1648" d="M-12 0l434 1481h348l287 -1276l370 1276h234l-438 -1481h-349l-286 1272l-367 -1272h-233z" />
<glyph unicode="O" horiz-adv-x="1587" d="M70 485q0 195 64.5 377t180.5 332q108 140 270 224.5t380 84.5q264 0 410.5 -136.5t146.5 -375.5q0 -177 -59 -347t-142 -294q-60 -89 -123.5 -154.5t-145 -117t-183.5 -77.5t-224 -26q-260 0 -417.5 134t-157.5 376zM330 492q0 -148 85.5 -239t243.5 -91q116 0 218 60 t180 165q93 126 145.5 287t52.5 307q0 153 -79.5 243.5t-239.5 90.5q-281 0 -463 -314q-66 -117 -104.5 -255t-38.5 -254z" />
<glyph unicode="P" horiz-adv-x="1343" d="M-10 0l430 1481h500q196 0 309 -80q131 -94 131 -283q0 -136 -63 -244t-175 -174q-149 -88 -374 -88h-328l-178 -612h-252zM475 797h256q163 0 260 69q55 39 87 102t32 138q0 105 -78 154q-55 34 -176 34h-235z" />
<glyph unicode="Q" horiz-adv-x="1589" d="M70 479q0 196 65.5 383t181.5 336q116 150 278 227.5t355 77.5q272 0 421 -138.5t149 -371.5q0 -171 -62 -346.5t-168 -312.5q-79 -103 -186 -176q98 15 164 20q72 8 162 8l-58 -186h-336q-25 0 -190 -6q-65 -4 -90 -6q-84 -8 -131 -8q-264 0 -409.5 135.5t-145.5 363.5z M332 496q0 -148 86 -240t244 -92q232 0 397 223q93 127 144.5 289t51.5 307q0 156 -78 246t-247 90q-144 0 -260 -84.5t-199 -233.5q-65 -117 -102 -253t-37 -252z" />
<glyph unicode="R" horiz-adv-x="1427" d="M-10 0l430 1481h500q186 0 288 -47q176 -79 176 -289q0 -114 -54 -199t-144 -135q-107 -61 -242 -76q104 -16 155.5 -67t51.5 -156q0 -68 -14 -184q-19 -171 -19 -217q0 -70 6 -111h-260q-4 62 -4 68q0 30 4 66t13.5 100.5t11.5 82.5q16 132 16 177q0 97 -57 135 q-24 17 -52 22.5t-85 5.5h-277l-192 -657h-252zM483 834h293q159 0 254 71q105 82 105 207q0 113 -101 158q-55 24 -151 24h-265z" />
<glyph unicode="S" horiz-adv-x="1327" d="M4 340q0 57 16 109h252q-20 -78 -20 -99q0 -98 76 -147t194 -49q169 0 262 75q88 71 88 187q0 40 -17.5 76t-41 60t-67 50.5t-74.5 40.5t-86 38t-80 36q-59 28 -101 56.5t-80 68.5t-57.5 94.5t-19.5 122.5q0 133 85.5 236t222 155.5t296.5 52.5q214 0 338.5 -87 t124.5 -226q0 -53 -12 -100h-250q6 25 6 65q0 86 -65.5 131t-172.5 45q-124 0 -215.5 -67t-91.5 -172q0 -27 8 -51.5t17.5 -42.5t32 -37.5t36.5 -31t47 -29t48 -24.5t55 -25t53 -24q37 -17 48.5 -22.5l46 -22t48 -25.5t43 -26.5t42.5 -31t34.5 -34t31.5 -40.5t21.5 -44.5 t16 -52t4.5 -57.5q0 -116 -47 -210t-131 -159q-169 -127 -467 -127q-241 0 -369.5 93t-128.5 272z" />
<glyph unicode="T" horiz-adv-x="1181" d="M145 1288l56 193h1188l-56 -193h-467l-377 -1288h-253l376 1288h-467z" />
<glyph unicode="U" horiz-adv-x="1595" d="M102 393q0 101 41 236l250 852h260l-254 -877q-34 -109 -34 -186q0 -120 72.5 -188t224.5 -68q233 0 350 178q56 86 110 270l256 871h252l-258 -889q-52 -172 -104 -273q-92 -179 -247.5 -262.5t-395.5 -83.5q-248 0 -385.5 111.5t-137.5 308.5z" />
<glyph unicode="V" horiz-adv-x="1349" d="M190 1481h267l65 -1252l766 1252h271l-951 -1481h-309z" />
<glyph unicode="W" horiz-adv-x="2230" d="M219 0l12 1481h265l-41 -1252l698 1252h311l19 -1254l647 1254h268l-817 -1481h-330l-14 1227l-692 -1227h-326z" />
<glyph unicode="X" horiz-adv-x="1382" d="M-205 0l756 788l-309 693h288l220 -551l477 551h303l-684 -715l336 -766h-287l-246 621l-549 -621h-305z" />
<glyph unicode="Y" horiz-adv-x="1239" d="M143 1481h275l219 -695l559 695h281l-777 -889l-170 -592h-254l179 608z" />
<glyph unicode="Z" horiz-adv-x="1243" d="M-143 0l57 211l1094 1079h-768l55 191h1085l-55 -193l-1112 -1098h862l-59 -190h-1159z" />
<glyph unicode="[" horiz-adv-x="651" d="M-137 -307l518 1788h414l-41 -138h-226l-440 -1513h227l-39 -137h-413z" />
<glyph unicode="\" horiz-adv-x="675" d="M86 1511h178l340 -1540h-182z" />
<glyph unicode="]" horiz-adv-x="651" d="M-217 -307l39 137h225l438 1513h-225l39 138h412l-516 -1788h-412z" />
<glyph unicode="^" horiz-adv-x="1323" d="M227 612l357 869h176l358 -869h-203l-243 639l-242 -639h-203z" />
<glyph unicode="_" horiz-adv-x="1046" d="M2 -154h1026v-102h-1026v102z" />
<glyph unicode="`" horiz-adv-x="595" d="M236 1493h268l137 -297h-166z" />
<glyph unicode="a" horiz-adv-x="1161" d="M-35 242q0 112 57.5 192.5t159.5 126.5q131 61 357 74q42 2 223 6l12 45q14 49 14 94q0 67 -37.5 103.5t-123.5 36.5q-88 0 -145 -44t-79 -124h-237q25 151 153.5 228t321.5 77q175 0 275 -63.5t100 -196.5q0 -68 -33 -189q-4 -14 -40 -132t-40 -132q-38 -135 -47 -172 q-25 -98 -35 -172h-225q0 30 22 143q-142 -163 -356 -163q-124 0 -210.5 66.5t-86.5 195.5zM207 270q0 -72 42 -107.5t118 -35.5q166 0 284 219q41 86 49 107q20 49 23 59q-22 -1 -65 -2t-64 -2q-179 -12 -270 -59q-117 -62 -117 -179z" />
<glyph unicode="b" horiz-adv-x="1263" d="M-47 0q33 91 78 254l360 1227h236l-172 -580q144 152 346 152q92 0 160 -30.5t106.5 -83.5t57 -115t18.5 -134q0 -129 -45 -264.5t-123 -235.5q-167 -210 -422 -210q-108 0 -192 47t-123 145l-54 -172h-231zM307 348q0 -89 60.5 -151t158.5 -62q168 0 279 178 q44 71 69 161t25 173q0 242 -201 242q-91 0 -172 -57t-135 -168q-84 -175 -84 -316z" />
<glyph unicode="c" horiz-adv-x="1112" d="M14 358q0 150 56.5 286.5t154.5 234.5q176 176 457 176q111 0 196.5 -29t138 -91.5t52.5 -152.5q0 -38 -12 -102h-236q10 41 10 84q0 70 -44 108.5t-128 38.5q-198 0 -321 -247q-84 -171 -84 -322q0 -96 53 -155.5t152 -59.5q104 0 177 61.5t105 163.5h240 q-119 -372 -551 -372q-199 0 -307.5 104.5t-108.5 273.5z" />
<glyph unicode="d" horiz-adv-x="1286" d="M18 346q0 153 57 299.5t158 247.5q165 162 390 162q232 0 313 -181l178 607h234l-357 -1219q-11 -35 -65 -262h-236l27 131q-75 -78 -158 -114.5t-190 -36.5q-163 0 -257 103t-94 263zM264 375q0 -105 53.5 -168.5t159.5 -63.5q97 0 175.5 58t125.5 157q37 76 61.5 166.5 t24.5 165.5q0 98 -56.5 152.5t-156.5 54.5q-165 0 -276 -162q-111 -159 -111 -360z" />
<glyph unicode="e" horiz-adv-x="1189" d="M14 324q0 135 53.5 281t141.5 249q175 201 459 201q173 0 276 -87t103 -251q0 -111 -46 -244h-737q-22 -80 -22 -147q0 -94 53 -148.5t160 -54.5q102 0 160 47.5t104 151.5h242q-134 -345 -502 -345q-211 0 -328 93.5t-117 253.5zM309 616h492q16 56 16 109q0 78 -40 128 t-132 50q-162 0 -256 -127q-41 -54 -80 -160z" />
<glyph unicode="f" horiz-adv-x="698" d="M-4 0l254 872h-205l45 160h207l37 121q28 91 58.5 150.5t77.5 103.5t112.5 64t156.5 20t174 -14l-49 -158q-44 8 -96 8q-50 0 -84.5 -12t-57.5 -38.5t-36 -57.5t-27 -82l-28 -105h229l-47 -160h-230l-256 -872h-235z" />
<glyph unicode="g" horiz-adv-x="1269" d="M-88 -137q0 26 4 51h240v-35q4 -76 51 -109.5t135 -33.5q132 0 198.5 58t112.5 179q35 94 39 107l21 70q-140 -144 -324 -144q-164 0 -262 104.5t-98 270.5q0 99 27.5 198t79 184t120 150.5t157 103.5t183.5 38q119 0 205 -46t123 -141l49 164h235q-44 -137 -90 -295 l-188 -647q-46 -160 -94.5 -254.5t-112.5 -148.5q-67 -57 -164 -79t-242 -22q-178 0 -291.5 71t-113.5 206zM274 401q2 -101 57.5 -167t162.5 -66q77 0 142 39.5t109 107.5q51 77 80 178.5t29 180.5q0 97 -56 159t-157 62q-85 0 -156.5 -46.5t-116.5 -119.5t-70 -159 q-24 -83 -24 -163v-6z" />
<glyph unicode="h" horiz-adv-x="1251" d="M-45 0l430 1481h238l-174 -594q158 164 360 164q141 0 219 -72t78 -201q0 -59 -41 -205l-166 -573h-237l167 567q35 120 35 174q0 67 -39.5 106.5t-115.5 39.5q-126 0 -226 -105q-89 -92 -137 -254l-153 -528h-238z" />
<glyph unicode="i" horiz-adv-x="561" d="M-45 0l299 1032h238l-299 -1032h-238zM313 1262l62 204h254l-62 -204h-254z" />
<glyph unicode="j" horiz-adv-x="561" d="M-344 -391l47 162q50 -4 53 -4q70 0 113 41.5t68 128.5l319 1095h238l-334 -1147q-26 -88 -59 -140t-81 -85q-85 -57 -237 -57q-63 0 -127 6zM313 1262l62 204h254l-60 -204h-256z" />
<glyph unicode="k" horiz-adv-x="1157" d="M-45 0l432 1481h236l-433 -1481h-235zM367 584l546 450h297l-598 -461l344 -573h-274z" />
<glyph unicode="l" horiz-adv-x="559" d="M-45 0l432 1481h236l-430 -1481h-238z" />
<glyph unicode="m" horiz-adv-x="1935" d="M-45 0l207 707q46 159 86 325h235l-43 -164q158 187 389 187q65 0 115.5 -19t80 -50t45 -67t17.5 -75q80 103 182.5 157t219.5 54q81 0 141 -22.5t93.5 -61t49 -82.5t15.5 -94q0 -63 -39 -199l-176 -596h-238l172 584q31 103 31 161q0 65 -37 105.5t-106 40.5 q-78 0 -147.5 -39.5t-117.5 -108.5q-52 -71 -98 -227l-149 -516h-238l170 580q33 121 33 168q0 25 -6.5 47.5t-22 45.5t-46.5 36.5t-75 13.5q-83 0 -156 -52t-119 -126.5t-71 -161.5l-159 -551h-238z" />
<glyph unicode="n" horiz-adv-x="1251" d="M-45 0l233 799q54 182 64 233h235l-38 -145q158 164 360 164q141 0 219 -72t78 -201q0 -59 -41 -205l-166 -573h-237l167 567q35 115 35 174q0 65 -40.5 105.5t-114.5 40.5q-129 0 -226 -105q-89 -92 -137 -254l-153 -528h-238z" />
<glyph unicode="o" horiz-adv-x="1236" d="M14 360q0 303 193 506q180 189 483 189q202 0 316 -100t114 -271q0 -234 -145 -457q-78 -119 -211 -183t-301 -64q-218 0 -333.5 104t-115.5 276zM252 342q0 -100 61 -157.5t168 -57.5q98 0 178.5 56t128.5 155q40 83 66.5 178.5t26.5 169.5q0 223 -224 223 q-191 0 -311 -211q-45 -82 -69.5 -176.5t-24.5 -179.5z" />
<glyph unicode="p" horiz-adv-x="1263" d="M-160 -389l326 1114q42 145 84 307h235l-30 -125q151 146 342 146q92 0 161.5 -31t108.5 -84.5t57.5 -117t18.5 -136.5q0 -129 -44.5 -262.5t-123.5 -233.5q-167 -208 -418 -208q-70 0 -130.5 19t-111.5 63t-77 110l-164 -561h-234zM309 348q0 -89 59.5 -151t157.5 -62 q170 0 279 178q44 71 69 162t25 172q0 242 -199 242q-92 0 -173.5 -57t-135.5 -168q-82 -167 -82 -316z" />
<glyph unicode="q" horiz-adv-x="1288" d="M18 346q0 153 57 299.5t158 247.5q165 162 390 162q232 0 313 -181l49 158h238q-67 -206 -93 -303l-331 -1118h-240l154 516q-74 -77 -156 -112t-188 -35q-163 0 -257 103t-94 263zM264 375q0 -105 53.5 -168.5t159.5 -63.5q97 0 175.5 58t125.5 155q37 76 61.5 165.5 t24.5 164.5q0 98 -56.5 154.5t-156.5 56.5q-162 0 -276 -166q-53 -79 -82 -172.5t-29 -183.5z" />
<glyph unicode="r" horiz-adv-x="806" d="M-45 0l229 795q10 37 29 114.5t31 122.5h233l-47 -184q78 107 165 154t196 47q32 0 57 -2l-55 -199q-44 8 -86 8q-137 0 -226 -82t-137 -248l-154 -526h-235z" />
<glyph unicode="s" horiz-adv-x="1001" d="M-63 250q0 14 0.5 22.5t1.5 20.5t2 26h239q-2 -33 -2 -67q0 -57 54.5 -92t134.5 -35q84 0 150.5 41t66.5 119q0 53 -30 86t-93 59l-137 55q-110 44 -162.5 98.5t-52.5 149.5q0 79 37.5 142.5t102 102t145.5 59t171 20.5q100 0 182 -29t127 -82q56 -62 56 -162 q0 -2 1 -21.5t-1 -23.5h-238q1 11 1 22q0 33 -9 62q-30 92 -152 92q-82 0 -139 -39t-57 -104q0 -50 35 -82t106 -59l123 -47q50 -19 85 -38.5t69 -48.5t51.5 -70.5t17.5 -94.5q0 -94 -42 -164.5t-114.5 -110t-156.5 -58.5t-180 -19q-105 0 -192.5 29.5t-144 92t-56.5 148.5z " />
<glyph unicode="t" horiz-adv-x="710" d="M39 872l45 160h209l53 182l258 103l-82 -285h244l-47 -160h-244l-147 -503q-27 -89 -27 -121q0 -90 113 -90q36 0 108 10l-43 -160q-97 -20 -168 -20q-254 0 -254 202q0 60 29 156l158 526h-205z" />
<glyph unicode="u" horiz-adv-x="1243" d="M23 254q0 68 40 205l166 573h236l-166 -567q-35 -120 -35 -176q0 -144 154 -144q128 0 225 105q86 91 135 254l156 528h237l-235 -799q-35 -115 -62 -233h-237l39 145q-157 -163 -357 -163q-146 0 -221 70.5t-75 201.5z" />
<glyph unicode="v" horiz-adv-x="1099" d="M70 1032h256l59 -839l516 839h254l-692 -1032h-264z" />
<glyph unicode="w" horiz-adv-x="1824" d="M92 1032h260l6 -827l498 827h279l12 -819l471 819h252l-656 -1032h-262l-18 817l-500 -817h-270z" />
<glyph unicode="x" horiz-adv-x="1077" d="M-168 0l520 543l-235 489h276l144 -358l311 358h264l-485 -508l245 -524h-276l-156 395l-340 -395h-268z" />
<glyph unicode="y" horiz-adv-x="1085" d="M27 -389l231 369l-192 1052h266l96 -813l467 813h238l-650 -1050l-221 -371h-235z" />
<glyph unicode="z" horiz-adv-x="976" d="M-113 0l47 168l707 700h-524l47 164h809l-47 -166l-701 -702h557l-47 -164h-848z" />
<glyph unicode="{" horiz-adv-x="782" d="M-35 524l37 125q173 14 258 115q34 42 63 114.5t57.5 164.5t47.5 137q44 102 108 165.5t173 98.5q99 31 229 37l-35 -119q-130 -9 -209 -78q-46 -41 -80.5 -109.5t-52 -132.5t-45 -144t-57.5 -132q-48 -82 -121.5 -127t-190.5 -55q95 -17 148 -68q55 -52 55 -143 q0 -11 -10 -88q-7 -48 -40.5 -165t-33.5 -171q0 -82 80 -117q38 -14 107 -20l-37 -121q-3 0 -12.5 1t-12.5 1q-315 21 -315 246q0 76 44 223.5t44 204.5q0 64 -60 108q-55 40 -139 49z" />
<glyph unicode="|" horiz-adv-x="526" d="M166 -438v2050h192v-2050h-192z" />
<glyph unicode="}" horiz-adv-x="782" d="M-242 -309l35 121q150 8 234 102q38 42 67 108t45.5 126t43 134.5t57.5 125.5q48 81 119.5 124.5t189.5 55.5q-91 17 -143 67q-58 55 -58 158q0 68 41 203.5t41 195.5q0 138 -184 150l35 119h18q159 0 241.5 -66t82.5 -170q0 -75 -44 -227t-44 -211q0 -65 34 -96 q53 -51 162 -62l-37 -127q-83 -7 -141 -30t-96.5 -65.5t-61 -88t-45.5 -117.5q-5 -15 -17.5 -56t-18.5 -58.5t-18.5 -53.5t-22 -55t-24.5 -49.5t-30 -49.5t-34.5 -42.5t-42.5 -42.5t-50 -35q-133 -80 -334 -88z" />
<glyph unicode="~" horiz-adv-x="1325" d="M51 352q19 64 49.5 120.5t72.5 105t100 76.5t124 28q62 0 135.5 -21.5t131 -48t129.5 -48t131 -21.5q62 0 105 41t65 104h127q-18 -62 -48 -118.5t-72.5 -105t-100.5 -77.5t-123 -29q-62 0 -138 22t-135 49t-129.5 49t-124.5 22q-62 0 -105.5 -42t-64.5 -106h-129z" />
<glyph unicode="&#xa1;" horiz-adv-x="868" d="M-18 -420l364 1098h189l-273 -1098h-280zM362 834l66 227h246l-68 -227h-244z" />
<glyph unicode="&#xa2;" d="M51 358q0 150 56.5 286.5t154.5 234.5q176 176 457 176q63 0 110 -8l117 200h131l-133 -231q162 -71 162 -234q0 -38 -12 -102h-236q10 41 10 84q0 46 -22 82l-408 -713q27 -6 58 -6q104 0 177 61.5t105 163.5h240q-119 -372 -551 -372q-53 0 -111 10l-120 -213h-134 l144 248q-96 47 -145.5 133t-49.5 200zM291 342q0 -94 49 -152l410 717q-16 4 -54 4q-198 0 -321 -247q-84 -171 -84 -322z" />
<glyph unicode="&#xa3;" d="M-82 0l49 172h133l160 559h-168l47 162h168q49 163 93.5 263t107.5 175q151 178 432 178q103 0 189.5 -29t143 -92.5t56.5 -150.5q0 -50 -16 -113h-234q11 46 11 68q0 70 -46 112t-131 42q-206 0 -313 -308q-3 -9 -20.5 -63.5t-26.5 -81.5h315l-47 -162h-313l-162 -559 h647l-51 -172h-1024z" />
<glyph unicode="&#xa4;" d="M117 1122l116 117l134 -133q63 37 88 47q76 31 157 31q82 0 166 -33q37 -15 88 -45l131 131l115 -115l-131 -133q39 -60 57 -123q21 -72 21 -127q0 -75 -33 -159q-19 -46 -45 -88l133 -132l-117 -118l-133 135q-44 -29 -82 -45q-73 -33 -164 -33q-83 0 -159 31 q-2 1 -18.5 7t-24.5 11q-3 1 -47 29l-136 -135l-114 116l133 134q-34 55 -47 86q-31 79 -31 163q0 87 29 158q14 32 20 43q6 13 29 49zM346 739q0 -49 19 -98q18 -46 51 -82q37 -43 92 -65q54 -23 108 -23q50 0 97 18t84 52q43 40 65 88q23 54 23 110q0 55 -23 109 q-22 55 -65 92q-40 37 -82 53q-49 19 -99 19q-47 0 -96 -19t-86 -53q-44 -38 -65 -90q-23 -54 -23 -111z" />
<glyph unicode="&#xa5;" d="M35 342l39 135h325q8 29 20.5 72t16.5 59h-323l39 137h247l-215 736h273l166 -684l540 684h275l-631 -736h246l-41 -137h-326q-3 -10 -15 -53t-22 -78h326l-39 -135h-326l-98 -342h-250l98 342h-325z" />
<glyph unicode="&#xa6;" horiz-adv-x="526" d="M166 -182v512h192v-512h-192zM166 842v514h192v-514h-192z" />
<glyph unicode="&#xa7;" horiz-adv-x="1255" d="M80 20l47 162q132 -55 266 -55q114 0 185 35q88 43 88 119q0 56 -64 98q-26 17 -149 78q-68 32 -106.5 55t-65.5 51q-52 55 -52 123q0 136 138 229q75 51 180 91q-131 76 -131 192q0 77 39 138.5t102.5 98t139 55.5t155.5 19q136 0 295 -43l-43 -159q-133 49 -246 49 q-46 0 -90 -12t-77.5 -41.5t-33.5 -69.5q0 -31 19.5 -53.5t62.5 -49.5l197 -118q127 -74 127 -189q0 -123 -115 -213q-61 -48 -168 -94q41 -21 74 -47q61 -54 61 -143q0 -74 -29 -135t-77 -101t-113 -67.5t-133.5 -39.5t-140.5 -12q-199 0 -342 49zM469 739q0 -60 59 -102 q13 -9 107 -57q74 35 123 73q73 59 73 127q0 53 -57 97q-16 13 -46.5 31t-47.5 30q-82 -34 -131 -70q-80 -60 -80 -129z" />
<glyph unicode="&#xa8;" horiz-adv-x="595" d="M125 1262l63 208h218l-64 -208h-217zM549 1262l63 208h219l-63 -208h-219z" />
<glyph unicode="&#xa9;" horiz-adv-x="1632" d="M47 743q0 162 68 314q69 151 188 258q103 92 240 147q133 51 276 51q146 0 279 -51q126 -50 237 -147q120 -108 189 -258q65 -145 65 -314q0 -143 -51 -276q-52 -135 -147 -240q-107 -119 -258 -188q-152 -68 -314 -68q-161 0 -313 68q-155 71 -260 188q-94 105 -148 240 q-51 133 -51 276zM147 743q0 -122 46 -239q48 -121 129 -211q91 -101 225 -162q134 -59 272 -59q139 0 273 59q131 59 225 164q78 84 127 207q45 118 45 241q0 144 -57 273q-59 131 -164 225q-84 78 -207 127q-118 45 -242 45q-129 0 -239 -43q-112 -42 -209 -129 q-108 -97 -166 -225q-58 -132 -58 -273zM440 741q0 106 23 185q24 88 80 153q57 64 129 92q67 27 155 27q87 0 160 -31q84 -38 121 -100q33 -54 33 -119h-146q-3 24 -12 45q-13 26 -22 35q-27 30 -60 41q-35 12 -76 12q-108 0 -168 -80q-38 -50 -53 -118q-14 -63 -14 -140 q0 -163 65 -254q18 -26 54 -51q17 -11 55 -22q36 -8 61 -8q40 0 80 14q37 15 62 43q28 36 34 82h146q-3 -39 -14 -70q-12 -38 -33 -65q-45 -62 -123 -93q-68 -26 -158 -26q-97 0 -172 35q-106 50 -160 168q-47 106 -47 245z" />
<glyph unicode="&#xaa;" horiz-adv-x="720" d="M137 1020q0 46 16.5 83.5t40.5 62t64 43t75 28.5t85.5 16.5t83.5 8.5t80 4h28l13 49q4 16 4 28q0 30 -21.5 48t-64.5 18q-50 0 -85.5 -21.5t-45.5 -64.5h-162q10 33 36.5 69t55.5 58q74 55 219 55q117 0 168 -39.5t51 -113.5q0 -33 -20 -107q-11 -38 -32.5 -103.5 t-29.5 -92.5q-14 -48 -30 -140q-1 -6 -2 -15t-2 -15h-156q6 40 14 69q-55 -44 -102 -62t-107 -18q-78 0 -126 41.5t-48 110.5zM299 1040q0 -33 22.5 -52t59.5 -19q80 0 135 65q35 42 64 135h-52q-229 -4 -229 -129z" />
<glyph unicode="&#xab;" horiz-adv-x="1071" d="M41 547l340 375h194l-327 -390l94 -409h-188zM481 547l338 375h193l-326 -392l94 -407h-188z" />
<glyph unicode="&#xac;" horiz-adv-x="1325" d="M106 641v184h1057v-610h-190v426h-867z" />
<glyph unicode="&#xad;" horiz-adv-x="710" d="M16 461l47 164h545l-49 -164h-543z" />
<glyph unicode="&#xae;" horiz-adv-x="958" d="M236 1124v2q0 76 34 156q33 70 95 129q60 54 118 74q65 24 138 24t137 -24q63 -22 121 -74q60 -53 90 -125q35 -75 35 -162q0 -79 -33 -157q-34 -72 -94 -129q-60 -53 -119 -74q-67 -25 -137 -25q-95 9 -138 25q-59 21 -121 76q-60 57 -94 129q-32 75 -32 155zM303 1124 q0 -56 23 -114q21 -54 59 -99q43 -49 107 -77q63 -29 129 -29t129 29q57 25 106 77q38 45 59 99q23 58 23 114q0 63 -27 129q-28 64 -77 107q-43 40 -99 61q-53 21 -114 21q-63 0 -115 -21q-55 -21 -98 -61q-53 -50 -78 -107q-27 -66 -27 -129zM471 924v407h164 q73 0 104 -22q17 -14 25 -29q10 -23 10 -51q0 -44 -24 -68q-18 -18 -62 -28q40 -8 57 -35q12 -20 17 -51q1 -6 4 -30t4 -40q3 -18 6 -33q3 -13 8 -20h-86q-7 20 -10 53q0 25 -2 37q-3 34 -12 55q-6 12 -15 18q-15 11 -36 11h-76v-174h-76zM547 1151h59q33 0 45 4q14 3 25 14 q18 18 18 48q0 28 -20 45q-11 8 -21 10q-12 4 -45 4h-61v-125z" />
<glyph unicode="&#xaf;" horiz-adv-x="595" d="M133 1276l33 123h625l-31 -123h-627z" />
<glyph unicode="&#xb0;" horiz-adv-x="827" d="M207 1184q0 67 29 133q25 58 79 108q47 43 101 64q53 20 116 20q64 0 117 -20q58 -22 103 -64q50 -47 77 -108q29 -66 29 -133t-29 -133q-24 -56 -79 -107q-45 -42 -101 -63q-55 -21 -117 -21q-123 0 -217 84q-55 51 -79 107q-29 66 -29 133zM362 1184q0 -37 11 -62 q14 -32 33 -51q25 -28 59 -43q28 -14 67 -14q38 0 70 16q28 12 57 41q19 19 33 51q13 29 13 62q0 39 -15 69q-14 32 -43 58q-15 15 -53 32q-25 11 -62 11q-36 0 -61 -11q-34 -15 -51 -32q-29 -26 -43 -58q-15 -30 -15 -69z" />
<glyph unicode="&#xb1;" horiz-adv-x="1323" d="M106 -45v184h1057v-184h-1057zM106 559v182h433v344h192v-344h432v-182h-432v-336h-192v336h-433z" />
<glyph unicode="&#xb2;" horiz-adv-x="798" d="M70 635l36 129q29 18 55 33.5t42 25.5q234 143 340 236q157 134 157 229q0 43 -29.5 68.5t-76.5 25.5q-117 0 -164 -135h-174q37 127 136 192.5t231 65.5q115 0 185.5 -50.5t70.5 -139.5q0 -33 -10.5 -67.5t-24 -61t-42.5 -60.5t-48 -54t-59.5 -54.5t-58 -48.5t-61.5 -49 q-114 -88 -227 -156h387l-37 -129h-628z" />
<glyph unicode="&#xb3;" horiz-adv-x="798" d="M86 819q0 22 8 62h168q-2 -12 -2 -35q0 -51 37.5 -78t99.5 -27q80 0 138.5 45.5t58.5 120.5q0 100 -162 107q-35 0 -51 -2l35 123q14 -2 53 -2q95 2 160 39.5t65 115.5q0 50 -36.5 74t-96.5 24q-59 0 -104 -34t-68 -101h-168q38 129 137.5 191.5t233.5 62.5 q111 0 191.5 -49.5t80.5 -142.5q0 -90 -60 -151.5t-155 -88.5q113 -42 113 -155q0 -71 -34 -129t-89.5 -94t-122 -55t-135.5 -19q-82 0 -147 20t-106.5 65.5t-41.5 112.5z" />
<glyph unicode="&#xb4;" horiz-adv-x="595" d="M268 1196l277 297h268l-375 -297h-170z" />
<glyph unicode="&#xb6;" horiz-adv-x="1306" d="M160 913q0 130 58.5 239.5t155 180t216.5 109.5t246 39h483l-432 -1481h-185l388 1329h-226l-387 -1329h-184l170 596q-142 13 -222.5 98.5t-80.5 218.5z" />
<glyph unicode="&#xb7;" horiz-adv-x="614" d="M131 524l66 232h245l-65 -232h-246z" />
<glyph unicode="&#xb8;" horiz-adv-x="595" d="M-129 -379l41 74q75 -43 168 -43q54 0 91.5 24t37.5 72q0 32 -27 50t-67 18q-25 0 -72 -15l-35 29l152 184h82l-107 -135q58 8 74 8q64 0 104.5 -30t40.5 -84q0 -49 -25 -88t-66 -61.5t-89.5 -34t-99.5 -11.5q-116 0 -203 43z" />
<glyph unicode="&#xb9;" horiz-adv-x="798" d="M299 1208l43 144q131 49 264 135h146l-252 -854h-168l200 674q-85 -51 -233 -99z" />
<glyph unicode="&#xba;" horiz-adv-x="786" d="M170 1083q0 55 10 99q35 151 145.5 239t256.5 88q118 0 187 -57t69 -160q0 -40 -13 -94q-35 -150 -142.5 -239t-256.5 -89q-119 0 -187.5 56t-68.5 157zM334 1098q0 -55 29 -89t86 -34q79 0 130.5 61.5t77.5 149.5q15 58 15 94q0 56 -28.5 89.5t-84.5 33.5 q-81 0 -135.5 -62.5t-77.5 -150.5q-12 -46 -12 -92z" />
<glyph unicode="&#xbb;" horiz-adv-x="1071" d="M-25 123l326 389l-92 410h186l113 -426l-340 -373h-193zM414 123l327 389l-96 410h191l110 -426l-338 -373h-194z" />
<glyph unicode="&#xbc;" horiz-adv-x="1931" d="M283 1208l41 144q131 49 264 135h145l-252 -854h-166l199 674q-88 -53 -231 -99zM336 -53l1046 1571h160l-1046 -1571h-160zM1006 180l41 152l522 524h203l-164 -557h143l-37 -119h-141l-51 -180h-160l51 180h-407zM1182 299h268l117 391z" />
<glyph unicode="&#xbd;" horiz-adv-x="1931" d="M270 1208l43 144q127 47 262 135h148l-252 -854h-168l201 674q-84 -51 -234 -99zM315 -53l1049 1571h158l-1047 -1571h-160zM977 0l37 129q204 125 272 172q322 220 322 352q0 43 -30 69t-77 26q-117 0 -164 -136h-172q37 128 136 194t231 66q115 0 184.5 -50.5 t69.5 -141.5q0 -33 -10.5 -67t-23.5 -61t-41.5 -60.5t-47.5 -53.5t-59 -54t-57.5 -48.5t-61.5 -48.5q-115 -89 -230 -158h387l-38 -129h-627z" />
<glyph unicode="&#xbe;" horiz-adv-x="1931" d="M70 819q0 22 8 62h168q-4 -24 -4 -35q0 -51 38.5 -78t100.5 -27q80 0 138.5 45.5t58.5 120.5q0 100 -162 107q-38 0 -54 -2l37 123q14 -2 54 -2q95 2 160 39.5t65 115.5q0 50 -36.5 74t-96.5 24q-59 0 -105 -34t-69 -101h-168q38 129 138 191.5t234 62.5 q112 0 192.5 -49.5t80.5 -142.5q0 -90 -60 -151.5t-155 -88.5q112 -42 112 -155q0 -94 -59.5 -163.5t-144.5 -101.5t-179 -32q-82 0 -146 20t-105 65.5t-41 112.5zM389 -53l1049 1571h159q-148 -249 -410 -642t-450 -661l-188 -268h-160zM1065 180l41 152l522 524h203 l-164 -557h143l-36 -119h-140l-53 -180h-162l54 180h-408zM1241 299h268l117 391z" />
<glyph unicode="&#xbf;" horiz-adv-x="1095" d="M-70 -172q0 38 8 74.5t19 67t32.5 63t40 56.5t49.5 53.5t53 48.5t58.5 46.5t58 42t60.5 41.5t56 39q76 54 107 90t52 101q18 47 35 125h203q-30 -125 -55 -193q-29 -72 -113 -147q-29 -25 -77.5 -62t-88.5 -66t-85 -69t-76 -77t-51.5 -83.5t-20.5 -93.5q0 -83 66.5 -122 t166.5 -39q105 0 234 38l-52 -182q-158 -31 -272 -31q-83 0 -152.5 14t-129 45t-93 87t-33.5 133zM584 834l67 227h246l-68 -227h-245z" />
<glyph unicode="&#xc0;" horiz-adv-x="1476" d="M-176 0l999 1481h297l170 -1481h-252l-37 367h-679l-236 -367h-262zM436 545h545l-61 743zM741 1872h269l137 -297h-166z" />
<glyph unicode="&#xc1;" horiz-adv-x="1476" d="M-176 0l999 1481h297l170 -1481h-252l-37 367h-679l-236 -367h-262zM436 545h545l-61 743zM819 1575l277 297h268l-375 -297h-170z" />
<glyph unicode="&#xc2;" horiz-adv-x="1476" d="M-176 0l999 1481h297l170 -1481h-252l-37 367h-679l-236 -367h-262zM436 545h545l-61 743zM641 1575l303 297h225l154 -297h-176l-113 192l-215 -192h-178z" />
<glyph unicode="&#xc3;" horiz-adv-x="1476" d="M-176 0l999 1481h297l170 -1481h-252l-37 367h-679l-236 -367h-262zM436 545h545l-61 743zM590 1597q33 103 108.5 168.5t169.5 65.5q50 0 82 -14q10 -1 44 -18t40 -19q76 -33 121 -33q66 0 100 86h117q-32 -98 -106 -166t-162 -68q-50 0 -117 29q-9 2 -39 16.5t-37 16.5 q-50 22 -96 22q-75 0 -113 -86h-112z" />
<glyph unicode="&#xc4;" horiz-adv-x="1476" d="M-176 0l999 1481h297l170 -1481h-252l-37 367h-679l-236 -367h-262zM436 545h545l-61 743zM676 1640l63 209h217l-63 -209h-217zM1100 1640l63 209h219l-63 -209h-219z" />
<glyph unicode="&#xc5;" horiz-adv-x="1476" d="M-176 0l999 1481h297l170 -1481h-252l-37 367h-679l-236 -367h-262zM436 545h545l-61 743zM788 1747q0 86 61.5 147.5t147.5 61.5q88 0 149.5 -60.5t61.5 -148.5t-61.5 -148.5t-149.5 -60.5q-87 0 -148 61t-61 148zM877 1747q0 -51 36 -86t86 -35q51 0 85 35t34 86 q0 50 -34.5 85.5t-84.5 35.5t-86 -36t-36 -85z" />
<glyph unicode="&#xc6;" horiz-adv-x="2007" d="M-209 0l1161 1481h1147l-57 -191h-731l-64 -440h629l-53 -186h-604l-72 -474h598l-55 -190h-820l52 360h-572l-276 -360h-283zM477 539h477l115 778q-1 0 2 4l-70 -91q-99 -130 -524 -691z" />
<glyph unicode="&#xc7;" horiz-adv-x="1409" d="M70 487q0 200 78.5 407t216.5 355q240 256 587 256q220 0 354 -95.5t134 -268.5q0 -16 -8 -86h-267q4 31 4 69q0 90 -68 141.5t-177 51.5q-118 0 -222 -62.5t-184 -175.5q-86 -123 -134 -278t-48 -312q0 -42 7.5 -82.5t29 -85.5t55 -78t91 -55t132.5 -22q111 0 200 63.5 t132 173.5h272q-52 -147 -145.5 -244.5t-211.5 -141t-263 -42.5q-5 0 -22.5 1t-22.5 1l-78 -98q58 8 76 8q64 0 103.5 -30t39.5 -84q0 -95 -84 -145t-196 -50q-114 0 -201 43l41 74q75 -43 168 -43q54 0 90.5 24t36.5 72q0 32 -27 50t-67 18q-25 0 -72 -15l-33 29l127 154 q-95 14 -171.5 50.5t-126.5 86t-83.5 111.5t-48 125.5t-14.5 129.5z" />
<glyph unicode="&#xc8;" horiz-adv-x="1290" d="M-10 0l430 1481h962l-55 -189h-711l-129 -442h674l-53 -184h-674l-139 -478h733l-55 -188h-983zM690 1872h268l138 -297h-166z" />
<glyph unicode="&#xc9;" horiz-adv-x="1290" d="M-10 0l430 1481h962l-55 -189h-711l-129 -442h674l-53 -184h-674l-139 -478h733l-55 -188h-983zM731 1575l277 297h268l-375 -297h-170z" />
<glyph unicode="&#xca;" horiz-adv-x="1290" d="M-10 0l430 1481h962l-55 -189h-711l-129 -442h674l-53 -184h-674l-139 -478h733l-55 -188h-983zM575 1575l304 297h225l153 -297h-176l-112 192l-215 -192h-179z" />
<glyph unicode="&#xcb;" horiz-adv-x="1290" d="M-10 0l430 1481h962l-55 -189h-711l-129 -442h674l-53 -184h-674l-139 -478h733l-55 -188h-983zM606 1640l64 209h217l-64 -209h-217zM1030 1640l64 209h219l-64 -209h-219z" />
<glyph unicode="&#xcc;" horiz-adv-x="645" d="M-10 0l430 1481h254l-430 -1481h-254zM326 1872h268l137 -297h-166z" />
<glyph unicode="&#xcd;" horiz-adv-x="645" d="M-10 0l430 1481h254l-430 -1481h-254zM403 1575l277 297h268l-375 -297h-170z" />
<glyph unicode="&#xce;" horiz-adv-x="645" d="M-10 0l430 1481h254l-430 -1481h-254zM223 1575l303 297h226l153 -297h-176l-113 192l-215 -192h-178z" />
<glyph unicode="&#xcf;" horiz-adv-x="645" d="M-10 0l430 1481h254l-430 -1481h-254zM254 1640l63 209h218l-64 -209h-217zM678 1640l63 209h220l-64 -209h-219z" />
<glyph unicode="&#xd0;" horiz-adv-x="1574" d="M-10 0l215 739h-142l39 146h144l174 596h436q314 0 475 -119q178 -134 178 -395q0 -265 -125 -518q-136 -278 -405 -383q-170 -66 -414 -66h-575zM299 186h215q157 0 260 25q125 31 212 103t151 198q110 209 110 432q0 207 -160 293q-105 57 -286 57h-180l-121 -409h372 l-43 -146h-370z" />
<glyph unicode="&#xd1;" horiz-adv-x="1648" d="M-12 0l434 1481h348l287 -1276l370 1276h234l-438 -1481h-349l-286 1272l-367 -1272h-233zM705 1597q33 103 108.5 168.5t169.5 65.5q51 0 82 -14q10 -1 44 -18t40 -19q76 -33 121 -33q66 0 100 86h117q-32 -98 -106 -166t-162 -68q-50 0 -117 29q-9 2 -39 16.5t-37 16.5 q-50 22 -96 22q-75 0 -113 -86h-112z" />
<glyph unicode="&#xd2;" horiz-adv-x="1587" d="M70 485q0 195 64.5 377t180.5 332q108 140 270 224.5t380 84.5q264 0 410.5 -136.5t146.5 -375.5q0 -177 -59 -347t-142 -294q-60 -89 -123.5 -154.5t-145 -117t-183.5 -77.5t-224 -26q-260 0 -417.5 134t-157.5 376zM330 492q0 -148 85.5 -239t243.5 -91q116 0 218 60 t180 165q93 126 145.5 287t52.5 307q0 153 -79.5 243.5t-239.5 90.5q-281 0 -463 -314q-66 -117 -104.5 -255t-38.5 -254zM791 1872h268l137 -297h-166z" />
<glyph unicode="&#xd3;" horiz-adv-x="1587" d="M70 485q0 195 64.5 377t180.5 332q108 140 270 224.5t380 84.5q264 0 410.5 -136.5t146.5 -375.5q0 -177 -59 -347t-142 -294q-60 -89 -123.5 -154.5t-145 -117t-183.5 -77.5t-224 -26q-260 0 -417.5 134t-157.5 376zM330 492q0 -148 85.5 -239t243.5 -91q116 0 218 60 t180 165q93 126 145.5 287t52.5 307q0 153 -79.5 243.5t-239.5 90.5q-281 0 -463 -314q-66 -117 -104.5 -255t-38.5 -254zM864 1575l277 297h268l-375 -297h-170z" />
<glyph unicode="&#xd4;" horiz-adv-x="1587" d="M70 485q0 195 64.5 377t180.5 332q108 140 270 224.5t380 84.5q264 0 410.5 -136.5t146.5 -375.5q0 -177 -59 -347t-142 -294q-60 -89 -123.5 -154.5t-145 -117t-183.5 -77.5t-224 -26q-260 0 -417.5 134t-157.5 376zM330 492q0 -148 85.5 -239t243.5 -91q116 0 218 60 t180 165q93 126 145.5 287t52.5 307q0 153 -79.5 243.5t-239.5 90.5q-281 0 -463 -314q-66 -117 -104.5 -255t-38.5 -254zM670 1575l303 297h225l154 -297h-176l-113 192l-215 -192h-178z" />
<glyph unicode="&#xd5;" horiz-adv-x="1587" d="M70 485q0 195 64.5 377t180.5 332q108 140 270 224.5t380 84.5q264 0 410.5 -136.5t146.5 -375.5q0 -177 -59 -347t-142 -294q-60 -89 -123.5 -154.5t-145 -117t-183.5 -77.5t-224 -26q-260 0 -417.5 134t-157.5 376zM330 492q0 -148 85.5 -239t243.5 -91q116 0 218 60 t180 165q93 126 145.5 287t52.5 307q0 153 -79.5 243.5t-239.5 90.5q-281 0 -463 -314q-66 -117 -104.5 -255t-38.5 -254zM659 1597q33 103 109 168.5t170 65.5q50 0 82 -14q10 -1 44 -18t40 -19q76 -33 121 -33q66 0 100 86h117q-32 -98 -106 -166t-162 -68q-50 0 -117 29 q-9 2 -39 16.5t-37 16.5q-50 22 -96 22q-75 0 -113 -86h-113z" />
<glyph unicode="&#xd6;" horiz-adv-x="1587" d="M70 485q0 195 64.5 377t180.5 332q108 140 270 224.5t380 84.5q264 0 410.5 -136.5t146.5 -375.5q0 -177 -59 -347t-142 -294q-60 -89 -123.5 -154.5t-145 -117t-183.5 -77.5t-224 -26q-260 0 -417.5 134t-157.5 376zM330 492q0 -148 85.5 -239t243.5 -91q116 0 218 60 t180 165q93 126 145.5 287t52.5 307q0 153 -79.5 243.5t-239.5 90.5q-281 0 -463 -314q-66 -117 -104.5 -255t-38.5 -254zM713 1640l63 209h217l-63 -209h-217zM1137 1640l63 209h219l-63 -209h-219z" />
<glyph unicode="&#xd7;" horiz-adv-x="1325" d="M129 145l373 375l-373 373l133 133l373 -373l371 371l133 -131l-371 -373l371 -375l-131 -131l-373 373l-373 -373z" />
<glyph unicode="&#xd8;" horiz-adv-x="1587" d="M-82 25l217 194q-65 112 -65 266q0 195 64.5 377t180.5 332q108 140 270 224.5t380 84.5q285 0 432 -160l211 189l75 -92l-217 -195q56 -109 56 -254q0 -177 -59 -347t-142 -294q-60 -89 -123.5 -154.5t-145 -117t-183.5 -77.5t-224 -26q-280 0 -436 150l-215 -193z M330 492q0 -45 10 -93l870 779q-78 137 -274 137q-144 0 -260.5 -83t-202.5 -231q-66 -117 -104.5 -255t-38.5 -254zM389 285q86 -123 270 -123q116 0 218 60t180 165q93 126 145.5 287t52.5 307q0 49 -4 72z" />
<glyph unicode="&#xd9;" horiz-adv-x="1595" d="M102 393q0 101 41 236l250 852h260l-254 -877q-34 -109 -34 -186q0 -120 72.5 -188t224.5 -68q233 0 350 178q56 86 110 270l256 871h252l-258 -889q-52 -172 -104 -273q-92 -179 -247.5 -262.5t-395.5 -83.5q-248 0 -385.5 111.5t-137.5 308.5zM791 1872h268l137 -297 h-166z" />
<glyph unicode="&#xda;" horiz-adv-x="1595" d="M102 393q0 101 41 236l250 852h260l-254 -877q-34 -109 -34 -186q0 -120 72.5 -188t224.5 -68q233 0 350 178q56 86 110 270l256 871h252l-258 -889q-52 -172 -104 -273q-92 -179 -247.5 -262.5t-395.5 -83.5q-248 0 -385.5 111.5t-137.5 308.5zM858 1575l277 297h268 l-375 -297h-170z" />
<glyph unicode="&#xdb;" horiz-adv-x="1595" d="M102 393q0 101 41 236l250 852h260l-254 -877q-34 -109 -34 -186q0 -120 72.5 -188t224.5 -68q233 0 350 178q56 86 110 270l256 871h252l-258 -889q-52 -172 -104 -273q-92 -179 -247.5 -262.5t-395.5 -83.5q-248 0 -385.5 111.5t-137.5 308.5zM678 1575l303 297h225 l154 -297h-176l-113 192l-215 -192h-178z" />
<glyph unicode="&#xdc;" horiz-adv-x="1595" d="M102 393q0 101 41 236l250 852h260l-254 -877q-34 -109 -34 -186q0 -120 72.5 -188t224.5 -68q233 0 350 178q56 86 110 270l256 871h252l-258 -889q-52 -172 -104 -273q-92 -179 -247.5 -262.5t-395.5 -83.5q-248 0 -385.5 111.5t-137.5 308.5zM721 1640l63 209h217 l-63 -209h-217zM1145 1640l63 209h219l-63 -209h-219z" />
<glyph unicode="&#xdd;" horiz-adv-x="1239" d="M143 1481h275l219 -695l559 695h281l-777 -889l-170 -592h-254l179 608zM655 1575l277 297h268l-375 -297h-170z" />
<glyph unicode="&#xde;" horiz-adv-x="1343" d="M-10 0l430 1481h250l-70 -246h270q69 0 130.5 -12.5t116.5 -40.5t95 -69.5t63 -103t23 -137.5q0 -139 -62.5 -250.5t-170.5 -177.5q-140 -86 -369 -86h-350l-104 -358h-252zM401 545h291q163 0 254 82q101 91 101 223q0 114 -89 164q-59 35 -170 35h-243z" />
<glyph unicode="&#xdf;" horiz-adv-x="1368" d="M-45 0l283 952q31 107 63.5 183t83 148.5t114 116.5t156.5 70.5t211 26.5q182 0 285 -70q115 -80 115 -225q0 -137 -162 -235l-103 -62q-81 -50 -81 -123q0 -45 53 -92l151 -131q84 -73 84 -213q0 -113 -66.5 -199t-169.5 -128t-224 -42q-147 0 -248 61.5t-101 170.5 q0 43 11 94h225q-10 -37 -10 -74q0 -45 42 -74.5t99 -29.5q104 0 159.5 50.5t55.5 139.5q0 31 -7.5 55.5t-28 49.5t-38.5 41.5t-55 48.5l-88 74q-50 40 -73 83t-23 99q0 70 42.5 122.5t120.5 100.5l64 39q67 41 99 79t32 93q0 70 -47 113t-141 43q-67 0 -121 -24t-91.5 -68 t-61 -85t-46.5 -96q-40 -106 -53 -157q-234 -797 -275 -926h-235z" />
<glyph unicode="&#xe0;" horiz-adv-x="1161" d="M-35 242q0 112 57.5 192.5t159.5 126.5q131 61 357 74q42 2 223 6l12 45q14 49 14 94q0 67 -37.5 103.5t-123.5 36.5q-88 0 -145 -44t-79 -124h-237q25 151 153.5 228t321.5 77q175 0 275 -63.5t100 -196.5q0 -68 -33 -189q-4 -14 -40 -132t-40 -132q-38 -135 -47 -172 q-25 -98 -35 -172h-225q0 30 22 143q-142 -163 -356 -163q-124 0 -210.5 66.5t-86.5 195.5zM207 270q0 -72 42 -107.5t118 -35.5q166 0 284 219q41 86 49 107q20 49 23 59q-22 -1 -65 -2t-64 -2q-179 -12 -270 -59q-117 -62 -117 -179zM467 1493h268l137 -297h-165z" />
<glyph unicode="&#xe1;" horiz-adv-x="1161" d="M-35 242q0 112 57.5 192.5t159.5 126.5q131 61 357 74q42 2 223 6l12 45q14 49 14 94q0 67 -37.5 103.5t-123.5 36.5q-88 0 -145 -44t-79 -124h-237q25 151 153.5 228t321.5 77q175 0 275 -63.5t100 -196.5q0 -68 -33 -189q-4 -14 -40 -132t-40 -132q-38 -135 -47 -172 q-25 -98 -35 -172h-225q0 30 22 143q-142 -163 -356 -163q-124 0 -210.5 66.5t-86.5 195.5zM207 270q0 -72 42 -107.5t118 -35.5q166 0 284 219q41 86 49 107q20 49 23 59q-22 -1 -65 -2t-64 -2q-179 -12 -270 -59q-117 -62 -117 -179zM539 1196l276 297h268l-374 -297h-170 z" />
<glyph unicode="&#xe2;" horiz-adv-x="1161" d="M-35 242q0 112 57.5 192.5t159.5 126.5q131 61 357 74q42 2 223 6l12 45q14 49 14 94q0 67 -37.5 103.5t-123.5 36.5q-88 0 -145 -44t-79 -124h-237q25 151 153.5 228t321.5 77q175 0 275 -63.5t100 -196.5q0 -68 -33 -189q-4 -14 -40 -132t-40 -132q-38 -135 -47 -172 q-25 -98 -35 -172h-225q0 30 22 143q-142 -163 -356 -163q-124 0 -210.5 66.5t-86.5 195.5zM207 270q0 -72 42 -107.5t118 -35.5q166 0 284 219q41 86 49 107q20 49 23 59q-22 -1 -65 -2t-64 -2q-179 -12 -270 -59q-117 -62 -117 -179zM356 1196l303 297h226l153 -297h-176 l-112 193l-215 -193h-179z" />
<glyph unicode="&#xe3;" horiz-adv-x="1161" d="M-35 242q0 112 57.5 192.5t159.5 126.5q131 61 357 74q42 2 223 6l12 45q14 49 14 94q0 67 -37.5 103.5t-123.5 36.5q-88 0 -145 -44t-79 -124h-237q25 151 153.5 228t321.5 77q175 0 275 -63.5t100 -196.5q0 -68 -33 -189q-4 -14 -40 -132t-40 -132q-38 -135 -47 -172 q-25 -98 -35 -172h-225q0 30 22 143q-142 -163 -356 -163q-124 0 -210.5 66.5t-86.5 195.5zM207 270q0 -72 42 -107.5t118 -35.5q166 0 284 219q41 86 49 107q20 49 23 59q-22 -1 -65 -2t-64 -2q-179 -12 -270 -59q-117 -62 -117 -179zM330 1217q33 103 109 168t169 65 q50 0 82 -14q10 -2 42.5 -18.5t41.5 -18.5q73 -33 121 -33q71 0 100 86h117q-32 -99 -105.5 -166t-162.5 -67q-49 0 -117 28q-7 2 -37 16.5t-39 16.5q-50 23 -96 23q-71 0 -113 -86h-112z" />
<glyph unicode="&#xe4;" horiz-adv-x="1161" d="M-35 242q0 112 57.5 192.5t159.5 126.5q131 61 357 74q42 2 223 6l12 45q14 49 14 94q0 67 -37.5 103.5t-123.5 36.5q-88 0 -145 -44t-79 -124h-237q25 151 153.5 228t321.5 77q175 0 275 -63.5t100 -196.5q0 -68 -33 -189q-4 -14 -40 -132t-40 -132q-38 -135 -47 -172 q-25 -98 -35 -172h-225q0 30 22 143q-142 -163 -356 -163q-124 0 -210.5 66.5t-86.5 195.5zM207 270q0 -72 42 -107.5t118 -35.5q166 0 284 219q41 86 49 107q20 49 23 59q-22 -1 -65 -2t-64 -2q-179 -12 -270 -59q-117 -62 -117 -179zM393 1262l64 208h217l-64 -208h-217z M817 1262l64 208h219l-64 -208h-219z" />
<glyph unicode="&#xe5;" horiz-adv-x="1161" d="M-35 242q0 112 57.5 192.5t159.5 126.5q131 61 357 74q42 2 223 6l12 45q14 49 14 94q0 67 -37.5 103.5t-123.5 36.5q-88 0 -145 -44t-79 -124h-237q25 151 153.5 228t321.5 77q175 0 275 -63.5t100 -196.5q0 -68 -33 -189q-4 -14 -40 -132t-40 -132q-38 -135 -47 -172 q-25 -98 -35 -172h-225q0 30 22 143q-142 -163 -356 -163q-124 0 -210.5 66.5t-86.5 195.5zM207 270q0 -72 42 -107.5t118 -35.5q166 0 284 219q41 86 49 107q20 49 23 59q-22 -1 -65 -2t-64 -2q-179 -12 -270 -59q-117 -62 -117 -179zM530 1376q0 86 61.5 147.5t147.5 61.5 q88 0 149.5 -60.5t61.5 -148.5t-61.5 -148.5t-149.5 -60.5q-87 0 -148 61t-61 148zM618 1376q0 -51 36 -86t87 -35t85 35t34 86q0 50 -35 85.5t-84 35.5q-50 0 -86.5 -36t-36.5 -85z" />
<glyph unicode="&#xe6;" horiz-adv-x="1812" d="M-35 258q0 67 22 121.5t57 91t85.5 63.5t100 42t108 24t101.5 11.5t89 2.5h217q11 42 13 52q16 66 16 106q0 67 -39 107.5t-117 40.5q-81 0 -137 -45t-75 -121h-242q13 78 58.5 137.5t112 95t143.5 53t161 17.5q140 0 220.5 -48t98.5 -126q125 174 373 174 q176 0 272.5 -91.5t96.5 -267.5q0 -93 -37 -219h-731q-27 -94 -27 -137q0 -95 57.5 -156t157.5 -61q93 0 158 53t90 144h246q-53 -166 -187 -254t-317 -88q-138 0 -226 50.5t-136 168.5q-70 -116 -173 -167.5t-247 -51.5q-71 0 -134 15.5t-115.5 47.5t-83 87.5t-30.5 127.5z M205 262q0 -71 49 -109t129 -38q94 0 153 58.5t113 170.5q5 10 15 29t15.5 31t14 32.5t15.5 42.5h-156q-348 0 -348 -217zM971 614h489q17 76 17 119q0 76 -50 126t-137 50q-141 0 -227 -110q-51 -63 -92 -185z" />
<glyph unicode="&#xe7;" horiz-adv-x="1112" d="M14 358q0 150 56.5 286.5t154.5 234.5q176 176 457 176q111 0 196.5 -29t138 -91.5t52.5 -152.5q0 -38 -12 -102h-236q10 41 10 84q0 70 -44 108.5t-128 38.5q-198 0 -321 -247q-84 -171 -84 -322q0 -96 53 -155.5t152 -59.5q104 0 176 59.5t104 161.5h242 q-58 -176 -189.5 -271t-334.5 -95q-3 0 -13.5 -1t-13.5 -1l-80 -101q58 8 76 8q64 0 103.5 -30t39.5 -84q0 -95 -84 -145t-196 -50q-114 0 -201 43l39 74q75 -43 168 -43q54 0 91.5 24t37.5 72q0 32 -27 50t-67 18q-25 0 -72 -15l-33 29l127 156q-164 21 -251 121t-87 251z " />
<glyph unicode="&#xe8;" horiz-adv-x="1189" d="M14 324q0 135 53.5 281t141.5 249q175 201 459 201q173 0 276 -87t103 -251q0 -111 -46 -244h-737q-22 -80 -22 -147q0 -94 53 -148.5t160 -54.5q102 0 160 47.5t104 151.5h242q-134 -345 -502 -345q-211 0 -328 93.5t-117 253.5zM309 616h492q16 56 16 109q0 78 -40 128 t-132 50q-162 0 -256 -127q-41 -54 -80 -160zM471 1493h268l138 -297h-166z" />
<glyph unicode="&#xe9;" horiz-adv-x="1189" d="M14 324q0 135 53.5 281t141.5 249q175 201 459 201q173 0 276 -87t103 -251q0 -111 -46 -244h-737q-22 -80 -22 -147q0 -94 53 -148.5t160 -54.5q102 0 160 47.5t104 151.5h242q-134 -345 -502 -345q-211 0 -328 93.5t-117 253.5zM309 616h492q16 56 16 109q0 78 -40 128 t-132 50q-162 0 -256 -127q-41 -54 -80 -160zM569 1196l277 297h268l-375 -297h-170z" />
<glyph unicode="&#xea;" horiz-adv-x="1189" d="M14 324q0 135 53.5 281t141.5 249q175 201 459 201q173 0 276 -87t103 -251q0 -111 -46 -244h-737q-22 -80 -22 -147q0 -94 53 -148.5t160 -54.5q102 0 160 47.5t104 151.5h242q-134 -345 -502 -345q-211 0 -328 93.5t-117 253.5zM309 616h492q16 56 16 109q0 78 -40 128 t-132 50q-162 0 -256 -127q-41 -54 -80 -160zM369 1196l303 297h225l154 -297h-177l-112 193l-215 -193h-178z" />
<glyph unicode="&#xeb;" horiz-adv-x="1189" d="M14 324q0 135 53.5 281t141.5 249q175 201 459 201q173 0 276 -87t103 -251q0 -111 -46 -244h-737q-22 -80 -22 -147q0 -94 53 -148.5t160 -54.5q102 0 160 47.5t104 151.5h242q-134 -345 -502 -345q-211 0 -328 93.5t-117 253.5zM309 616h492q16 56 16 109q0 78 -40 128 t-132 50q-162 0 -256 -127q-41 -54 -80 -160zM416 1262l63 208h217l-63 -208h-217zM840 1262l63 208h219l-63 -208h-219z" />
<glyph unicode="&#xec;" horiz-adv-x="561" d="M-45 0l299 1034h238l-299 -1034h-238zM174 1493h268l138 -297h-166z" />
<glyph unicode="&#xed;" horiz-adv-x="561" d="M-45 0l299 1034h238l-299 -1034h-238zM250 1196l276 297h269l-375 -297h-170z" />
<glyph unicode="&#xee;" horiz-adv-x="561" d="M-45 0l299 1034h238l-299 -1034h-238zM68 1196l303 297h225l154 -297h-177l-112 193l-215 -193h-178z" />
<glyph unicode="&#xef;" horiz-adv-x="561" d="M-45 0l299 1034h238l-299 -1034h-238zM104 1262l64 208h217l-63 -208h-218zM528 1262l64 208h219l-63 -208h-220z" />
<glyph unicode="&#xf0;" horiz-adv-x="1236" d="M14 371q0 166 74.5 311.5t212 235.5t307.5 90q220 0 293 -185q-3 57 -8 88q-37 230 -238 359l-188 -113l-74 60l170 102q-84 40 -172 63l113 158q138 -34 254 -94l178 106l74 -57l-164 -98q143 -95 216 -245.5t73 -336.5q0 -188 -52.5 -353.5t-154.5 -279.5 q-183 -205 -473 -205q-202 0 -321.5 104t-119.5 290zM252 354q0 -102 61 -164.5t162 -62.5q93 0 171.5 53.5t133.5 145.5q42 70 65 155.5t23 159.5q0 105 -62 167t-175 62q-95 0 -170.5 -51t-124.5 -139q-39 -73 -61.5 -160.5t-22.5 -165.5z" />
<glyph unicode="&#xf1;" horiz-adv-x="1251" d="M-45 0l233 799q54 182 64 233h235l-38 -145q158 164 360 164q141 0 219 -72t78 -201q0 -59 -41 -205l-166 -573h-237l167 567q35 115 35 174q0 65 -40.5 105.5t-114.5 40.5q-129 0 -226 -105q-89 -92 -137 -254l-153 -528h-238zM393 1219q33 103 109.5 168t169.5 65 q50 0 82 -14q9 -2 42 -18.5t42 -18.5q70 -33 120 -33q69 0 101 86h117q-32 -99 -106.5 -166t-162.5 -67q-48 0 -116 28q-9 2 -39 16.5t-37 16.5q-52 23 -97 23q-73 0 -112 -86h-113z" />
<glyph unicode="&#xf2;" horiz-adv-x="1236" d="M14 360q0 303 193 506q180 189 483 189q202 0 316 -100t114 -271q0 -234 -145 -457q-78 -119 -211 -183t-301 -64q-218 0 -333.5 104t-115.5 276zM252 342q0 -100 61 -157.5t168 -57.5q98 0 178.5 56t128.5 155q40 83 66.5 178.5t26.5 169.5q0 223 -224 223 q-191 0 -311 -211q-45 -82 -69.5 -176.5t-24.5 -179.5zM500 1493h268l137 -297h-166z" />
<glyph unicode="&#xf3;" horiz-adv-x="1236" d="M14 360q0 303 193 506q180 189 483 189q202 0 316 -100t114 -271q0 -234 -145 -457q-78 -119 -211 -183t-301 -64q-218 0 -333.5 104t-115.5 276zM252 342q0 -100 61 -157.5t168 -57.5q98 0 178.5 56t128.5 155q40 83 66.5 178.5t26.5 169.5q0 223 -224 223 q-191 0 -311 -211q-45 -82 -69.5 -176.5t-24.5 -179.5zM582 1196l276 297h268l-374 -297h-170z" />
<glyph unicode="&#xf4;" horiz-adv-x="1236" d="M14 360q0 303 193 506q180 189 483 189q202 0 316 -100t114 -271q0 -234 -145 -457q-78 -119 -211 -183t-301 -64q-218 0 -333.5 104t-115.5 276zM252 342q0 -100 61 -157.5t168 -57.5q98 0 178.5 56t128.5 155q40 83 66.5 178.5t26.5 169.5q0 223 -224 223 q-191 0 -311 -211q-45 -82 -69.5 -176.5t-24.5 -179.5zM389 1196l303 297h226l153 -297h-176l-113 193l-215 -193h-178z" />
<glyph unicode="&#xf5;" horiz-adv-x="1236" d="M14 360q0 303 193 506q180 189 483 189q202 0 316 -100t114 -271q0 -234 -145 -457q-78 -119 -211 -183t-301 -64q-218 0 -333.5 104t-115.5 276zM252 342q0 -100 61 -157.5t168 -57.5q98 0 178.5 56t128.5 155q40 83 66.5 178.5t26.5 169.5q0 223 -224 223 q-191 0 -311 -211q-45 -82 -69.5 -176.5t-24.5 -179.5zM369 1219q33 103 109 168t169 65q51 0 82 -14q10 -2 42.5 -18.5t41.5 -18.5q73 -33 121 -33q68 0 100 86h117q-32 -99 -105.5 -166t-162.5 -67q-49 0 -117 28q-7 2 -37 16.5t-39 16.5q-50 23 -96 23q-71 0 -113 -86 h-112z" />
<glyph unicode="&#xf6;" horiz-adv-x="1236" d="M14 360q0 303 193 506q180 189 483 189q202 0 316 -100t114 -271q0 -234 -145 -457q-78 -119 -211 -183t-301 -64q-218 0 -333.5 104t-115.5 276zM252 342q0 -100 61 -157.5t168 -57.5q98 0 178.5 56t128.5 155q40 83 66.5 178.5t26.5 169.5q0 223 -224 223 q-191 0 -311 -211q-45 -82 -69.5 -176.5t-24.5 -179.5zM428 1262l64 208h217l-64 -208h-217zM852 1262l63 208h220l-64 -208h-219z" />
<glyph unicode="&#xf7;" horiz-adv-x="1325" d="M109 428v184h1054v-184h-1054zM524 18v250h226v-250h-226zM524 768v252h226v-252h-226z" />
<glyph unicode="&#xf8;" horiz-adv-x="1236" d="M-80 -27l168 156q-74 95 -74 231q0 303 193 506q180 189 483 189q187 0 301 -88l162 149l74 -74l-164 -151q57 -83 57 -207q0 -234 -145 -457q-78 -119 -211 -183t-301 -64q-192 0 -305 81l-170 -155zM252 342q0 -28 6 -55l586 542q-55 80 -187 80q-191 0 -311 -211 q-45 -82 -69.5 -176.5t-24.5 -179.5zM303 195q62 -68 178 -68q98 0 178.5 56t128.5 155q40 83 66.5 178.5t26.5 169.5q0 25 -2 37z" />
<glyph unicode="&#xf9;" horiz-adv-x="1243" d="M23 254q0 68 40 205l166 573h236l-166 -567q-35 -120 -35 -176q0 -144 154 -144q128 0 225 105q86 91 135 254l156 528h237l-235 -799q-35 -115 -62 -233h-237l39 145q-157 -163 -357 -163q-146 0 -221 70.5t-75 201.5zM504 1493h268l137 -297h-166z" />
<glyph unicode="&#xfa;" horiz-adv-x="1243" d="M23 254q0 68 40 205l166 573h236l-166 -567q-35 -120 -35 -176q0 -144 154 -144q128 0 225 105q86 91 135 254l156 528h237l-235 -799q-35 -115 -62 -233h-237l39 145q-157 -163 -357 -163q-146 0 -221 70.5t-75 201.5zM584 1196l276 297h268l-374 -297h-170z" />
<glyph unicode="&#xfb;" horiz-adv-x="1243" d="M23 254q0 68 40 205l166 573h236l-166 -567q-35 -120 -35 -176q0 -144 154 -144q128 0 225 105q86 91 135 254l156 528h237l-235 -799q-35 -115 -62 -233h-237l39 145q-157 -163 -357 -163q-146 0 -221 70.5t-75 201.5zM389 1196l303 297h226l153 -297h-176l-113 193 l-215 -193h-178z" />
<glyph unicode="&#xfc;" horiz-adv-x="1243" d="M23 254q0 68 40 205l166 573h236l-166 -567q-35 -120 -35 -176q0 -144 154 -144q128 0 225 105q86 91 135 254l156 528h237l-235 -799q-35 -115 -62 -233h-237l39 145q-157 -163 -357 -163q-146 0 -221 70.5t-75 201.5zM426 1262l63 208h218l-64 -208h-217zM850 1262 l63 208h220l-64 -208h-219z" />
<glyph unicode="&#xfd;" horiz-adv-x="1085" d="M27 -389l231 369l-192 1052h266l96 -813l467 813h238l-650 -1050l-221 -371h-235zM477 1198l277 297h268l-375 -297h-170z" />
<glyph unicode="&#xfe;" horiz-adv-x="1263" d="M-160 -389l543 1870h235l-165 -576q153 148 344 148q92 0 161.5 -31t108.5 -84.5t57.5 -117t18.5 -136.5q0 -129 -44.5 -262.5t-123.5 -233.5q-167 -208 -418 -208q-70 0 -130.5 19t-111.5 63t-77 110l-162 -561h-236zM309 348q0 -89 59.5 -151t157.5 -62q170 0 279 178 q44 71 69 162t25 172q0 242 -199 242q-92 0 -173.5 -57t-135.5 -168q-82 -167 -82 -316z" />
<glyph unicode="&#xff;" horiz-adv-x="1085" d="M27 -389l231 369l-192 1052h266l96 -813l467 813h238l-650 -1050l-221 -371h-235zM330 1262l63 208h217l-63 -208h-217zM754 1262l63 208h219l-63 -208h-219z" />
<glyph unicode="&#x152;" horiz-adv-x="2031" d="M82 489q0 163 64.5 344.5t164.5 311.5q130 169 317 260.5t416 91.5q57 0 165.5 -6.5t131.5 -7.5q31 -2 91 -2h694l-58 -191h-630l-127 -440h592l-56 -186h-592l-137 -474h654l-56 -190q-662 0 -743 -2q-50 0 -148 -4q-110 -4 -166 -4q-275 0 -426 128t-151 371zM336 512 q0 -162 91 -252t271 -90q89 0 172 14l328 1116q-100 17 -182 17q-243 0 -414 -160q-117 -111 -191.5 -294t-74.5 -351z" />
<glyph unicode="&#x153;" horiz-adv-x="1943" d="M14 342q0 158 58.5 298.5t160.5 242.5q88 86 211 129t261 43q127 0 214.5 -49t124.5 -138q55 80 162.5 133.5t245.5 53.5q173 0 276 -88t103 -258q0 -96 -41 -236h-731q-25 -80 -25 -143q0 -92 52 -147.5t155 -55.5q176 0 256 195h246q-130 -342 -502 -342 q-154 0 -240 47.5t-129 130.5q-171 -178 -421 -178q-208 0 -322.5 101t-114.5 261zM250 326q0 -89 59 -144t154 -55q92 0 172 55t135 152q48 87 79.5 188.5t31.5 179.5q0 98 -52 152.5t-155 54.5q-155 0 -275 -153q-68 -88 -108.5 -208t-40.5 -222zM1102 616h483 q14 50 14 105q0 82 -39 132t-128 50q-136 0 -224 -98q-59 -64 -106 -189z" />
<glyph unicode="&#x178;" horiz-adv-x="1239" d="M143 1481h275l219 -695l559 695h281l-777 -889l-170 -592h-254l179 608zM512 1640l63 209h218l-64 -209h-217zM936 1640l63 209h220l-64 -209h-219z" />
<glyph unicode="&#x2c6;" horiz-adv-x="595" d="M102 1196l304 297h225l153 -297h-176l-112 193l-215 -193h-179z" />
<glyph unicode="&#x2dc;" horiz-adv-x="598" d="M80 1219q33 103 109 168t169 65q44 0 82 -14q10 -2 43.5 -18.5t40.5 -18.5q79 -33 121 -33q68 0 100 86h117q-32 -99 -106 -166t-162 -67q-49 0 -117 28q-8 2 -38 16.5t-38 16.5q-59 23 -96 23q-73 0 -112 -86h-113z" />
<glyph unicode="&#x2000;" horiz-adv-x="978" />
<glyph unicode="&#x2001;" horiz-adv-x="1956" />
<glyph unicode="&#x2002;" horiz-adv-x="978" />
<glyph unicode="&#x2003;" horiz-adv-x="1956" />
<glyph unicode="&#x2004;" horiz-adv-x="652" />
<glyph unicode="&#x2005;" horiz-adv-x="489" />
<glyph unicode="&#x2006;" horiz-adv-x="326" />
<glyph unicode="&#x2007;" horiz-adv-x="326" />
<glyph unicode="&#x2008;" horiz-adv-x="244" />
<glyph unicode="&#x2009;" horiz-adv-x="391" />
<glyph unicode="&#x200a;" horiz-adv-x="108" />
<glyph unicode="&#x2010;" horiz-adv-x="710" d="M16 461l47 164h545l-49 -164h-543z" />
<glyph unicode="&#x2011;" horiz-adv-x="710" d="M16 461l47 164h545l-49 -164h-543z" />
<glyph unicode="&#x2012;" horiz-adv-x="710" d="M16 461l47 164h545l-49 -164h-543z" />
<glyph unicode="&#x2013;" horiz-adv-x="1046" d="M-84 465l35 160h1024l-35 -160h-1024z" />
<glyph unicode="&#x2014;" horiz-adv-x="2070" d="M195 465l47 160h1515l-47 -160h-1515z" />
<glyph unicode="&#x2018;" horiz-adv-x="638" d="M211 1012l324 469h178l-250 -469h-252z" />
<glyph unicode="&#x2019;" horiz-adv-x="638" d="M240 1012l254 469h247l-323 -469h-178z" />
<glyph unicode="&#x201a;" horiz-adv-x="638" d="M-129 -242l256 469h250l-328 -469h-178z" />
<glyph unicode="&#x201c;" horiz-adv-x="1077" d="M211 1012l328 469h178l-256 -469h-250zM645 1012l326 469h180l-256 -469h-250z" />
<glyph unicode="&#x201d;" horiz-adv-x="1077" d="M240 1012l254 469h251l-327 -469h-178zM674 1012l256 469h250l-328 -469h-178z" />
<glyph unicode="&#x201e;" horiz-adv-x="1071" d="M-129 -242l254 469h250l-326 -469h-178zM305 -242l254 469h250l-326 -469h-178z" />
<glyph unicode="&#x2022;" horiz-adv-x="1048" d="M154 737q0 78 32 150q29 68 90 123q51 48 113 71q64 25 133 25t133 -25q65 -24 115 -71q62 -58 90 -125q31 -70 31 -148q0 -69 -25 -133q-26 -69 -69 -115q-56 -60 -123 -88q-72 -32 -152 -32q-82 0 -149 30q-68 29 -123 90q-48 51 -72 115q-24 62 -24 133z" />
<glyph unicode="&#x2026;" horiz-adv-x="2070" d="M25 0l65 233h246l-66 -233h-245zM707 0l65 233h246l-66 -233h-245zM1391 0l65 233h244l-66 -233h-243z" />
<glyph unicode="&#x202f;" horiz-adv-x="391" />
<glyph unicode="&#x2039;" horiz-adv-x="632" d="M41 547l340 375h192l-325 -392l92 -407h-188z" />
<glyph unicode="&#x203a;" horiz-adv-x="632" d="M-25 123l326 389l-92 410h188l111 -426l-340 -373h-193z" />
<glyph unicode="&#x205f;" horiz-adv-x="489" />
<glyph unicode="&#x20ac;" d="M33 522h211q-11 -71 -11 -137q0 -211 125 -310.5t340 -99.5q168 0 310 93v196q-140 -108 -293 -108q-129 0 -187.5 55t-58.5 176q0 57 12 135h422l78 160h-467q8 46 45 160h506l78 159h-525q29 58 46.5 90.5t42.5 72.5t44.5 60.5t47 43.5t57.5 33t68.5 17t85.5 7 q88 0 150 -30.5t95 -80.5l93 183q-42 47 -119.5 77.5t-190.5 30.5q-111 0 -199.5 -23t-152.5 -61.5t-120 -105.5t-96 -138t-87 -176h-172l-78 -159h189q-1 -5 -13.5 -43t-21 -68t-11.5 -49h-165z" />
<glyph unicode="&#x2122;" horiz-adv-x="2015" d="M324 1374v107h630v-107h-245v-629h-140v629h-245zM1030 745v736h215l187 -557l186 557h209v-736h-127l2 633l-217 -633h-117l-213 633v-633h-125z" />
<glyph unicode="&#x25fc;" horiz-adv-x="1034" d="M0 0v1034h1034v-1034h-1034z" />
<glyph unicode="&#xfb01;" horiz-adv-x="1241" d="M-4 0l254 872h-205l45 160h207l37 121q28 91 58.5 150.5t77.5 103.5t112.5 64t156.5 20t174 -14l-49 -158q-44 8 -96 8q-50 0 -84.5 -12t-57.5 -38.5t-36 -57.5t-27 -82l-28 -105h229l-47 -160h-230l-256 -872h-235zM635 0l301 1034h235l-299 -1034h-237zM993 1262 l62 204h254l-62 -204h-254z" />
<glyph unicode="&#xfb02;" horiz-adv-x="1234" d="M-4 0l254 872h-205l45 160h207l37 121q28 91 58.5 150.5t77.5 103.5t112.5 64t156.5 20t174 -14l-49 -158q-44 8 -96 8q-50 0 -84.5 -12t-57.5 -38.5t-36 -57.5t-27 -82l-28 -105h229l-47 -160h-230l-256 -872h-235zM633 0l430 1481h235l-430 -1481h-235z" />
</font>
</defs>
</svg>
