<?xml version="1.0" standalone="no"?>
<!DOCTYPE svg PUBLIC "-//W3C//DTD SVG 1.1//EN" "http://www.w3.org/Graphics/SVG/1.1/DTD/svg11.dtd" >
<svg xmlns="http://www.w3.org/2000/svg" xmlns:xlink="http://www.w3.org/1999/xlink" version="1.1">
<metadata></metadata>
<defs>
<font id="ltuniversbasicbold" horiz-adv-x="1286" >
<font-face units-per-em="2048" ascent="1638" descent="-410" />
<missing-glyph horiz-adv-x="643" />
<glyph horiz-adv-x="0" />
<glyph horiz-adv-x="682" />
<glyph unicode=" "  horiz-adv-x="643" />
<glyph unicode="&#x09;" horiz-adv-x="643" />
<glyph unicode="&#xa0;" horiz-adv-x="643" />
<glyph unicode="!" horiz-adv-x="694" d="M174 1481h346l-57 -1071h-234zM201 0v262h291v-262h-291z" />
<glyph unicode="&#x22;" horiz-adv-x="976" d="M174 1481h258l-45 -502h-166zM547 1481h256l-45 -502h-166z" />
<glyph unicode="#" d="M59 385v205h224l49 284h-187v205h224l71 402h230l-72 -402h215l70 402h229l-72 -402h187v-205h-221l-52 -284h187v-205h-223l-70 -385h-227l67 385h-215l-67 -385h-230l70 385h-187zM510 590h215l51 284h-215z" />
<glyph unicode="$" d="M90 420h291q0 -114 49.5 -171t153.5 -71v430q-15 4 -45 13q-47 13 -71 20.5t-67.5 22t-67 26t-58.5 31.5t-54 39.5t-42.5 48t-35 60.5t-20 73t-8.5 88q0 84 25.5 153t69.5 116t104.5 80t127.5 49t142 18v203h143v-205q209 -14 315.5 -105t112.5 -301h-287 q-2 88 -32.5 134t-108.5 67v-412q178 -46 250 -78q159 -73 201 -212q18 -59 18 -131q0 -105 -38.5 -187t-105.5 -132.5t-148.5 -78t-176.5 -33.5v-200h-143v198q-110 3 -196 27.5t-154.5 75t-105.5 137.5t-38 207zM412 1057q0 -82 45.5 -127t126.5 -70v387q-76 -8 -124 -58 t-48 -132zM727 180q78 14 124 67t46 138q0 82 -44.5 125t-125.5 68v-398z" />
<glyph unicode="%" horiz-adv-x="1890" d="M47 1110q0 88 19.5 160.5t60 129t109 87.5t159.5 31q90 0 157 -31.5t105.5 -88t57 -127.5t18.5 -157q0 -87 -18.5 -160t-57.5 -132t-107.5 -92.5t-160.5 -33.5q-90 0 -157.5 33t-107 91.5t-58.5 131t-19 158.5zM256 1092q0 -244 133 -244t133 256q0 36 -1 62.5t-8.5 67.5 t-20 67.5t-38 46.5t-61.5 20q-46 0 -76 -28t-42 -77t-15.5 -86t-3.5 -85zM428 -55l842 1601h184l-838 -1601h-188zM1157 399q0 88 19.5 160.5t60 129t109 87.5t159.5 31q89 0 156 -31.5t106 -88t57.5 -127.5t18.5 -157q0 -87 -18.5 -159.5t-57 -132t-106.5 -92.5t-160 -33 q-91 0 -159 33t-107.5 91t-58.5 130.5t-19 158.5zM1366 381q0 -244 135 -244q133 0 133 256q0 26 -0.5 43t-3 47t-7 51t-14.5 46t-23 40.5t-34 26t-47 10.5q-38 0 -65.5 -20.5t-41 -48.5t-21.5 -70.5t-9.5 -71t-1.5 -65.5z" />
<glyph unicode="&#x26;" horiz-adv-x="1658" d="M113 428q0 152 92 247t241 128v4q-266 67 -266 328q0 79 29.5 144.5t77.5 109t112 73.5t131.5 43t137.5 13q126 0 274 -23v-217q-103 18 -172 18q-41 0 -77.5 -4t-76.5 -17t-68 -33.5t-46.5 -56.5t-18.5 -83q0 -60 29.5 -103t78.5 -64t98 -29.5t102 -8.5h235v281h291 v-281h285v-215h-285v-682h-623q-87 0 -164.5 11t-156 40.5t-134.5 76t-91 123.5t-35 177zM432 453q0 -46 15 -83t38.5 -61.5t59.5 -42t70 -27t78.5 -14.5t75.5 -6.5t71 -1.5h186v465h-240q-52 0 -94.5 -4t-93 -18t-85 -37.5t-58 -67t-23.5 -102.5z" />
<glyph unicode="'" horiz-adv-x="604" d="M174 1481h256l-45 -502h-166z" />
<glyph unicode="(" horiz-adv-x="649" d="M115 578q0 77 8.5 153t29.5 161.5t37 143.5t53 156.5t53 139t60 149.5h205q-3 -9 -29 -95.5t-30.5 -103.5t-26.5 -93.5t-27.5 -104t-22 -94t-21.5 -105t-13.5 -96t-11 -107t-2.5 -100.5q0 -208 48 -416.5t136 -474.5h-207q-55 127 -90 218.5t-73 210.5t-57 233t-19 225z " />
<glyph unicode=")" horiz-adv-x="649" d="M88 1481h207q114 -260 177 -470t63 -419q0 -205 -64 -419t-176 -482h-205q4 14 31.5 106.5t34 115t29 104t29.5 115.5t22 105.5t20.5 118t10.5 107.5t5 117q0 213 -47.5 423t-136.5 478z" />
<glyph unicode="*" horiz-adv-x="948" d="M82 993v211l295 -47l-191 232l183 106l106 -281l105 281l182 -111l-189 -227l293 47v-211l-288 47l190 -237l-190 -101l-105 277l-106 -281l-181 105l189 237z" />
<glyph unicode="+" horiz-adv-x="1361" d="M143 420v227h422v420h234v-420h420v-227h-420v-420h-234v420h-422z" />
<glyph unicode="," horiz-adv-x="643" d="M74 -244l123 506h311l-215 -506h-219z" />
<glyph unicode="-" horiz-adv-x="665" d="M53 444v197h559v-197h-559z" />
<glyph unicode="." horiz-adv-x="643" d="M174 0v262h293v-262h-293z" />
<glyph unicode="/" horiz-adv-x="579" d="M-47 -31l463 1549h211l-461 -1549h-213z" />
<glyph unicode="0" d="M80 756q0 120 17.5 227t59 206.5t105 171t161.5 114.5t222 43q125 0 223.5 -43t161 -114.5t103 -172t57 -207t16.5 -227.5q0 -124 -16.5 -233t-58 -211.5t-104.5 -175.5t-162 -117t-226 -44q-105 0 -191.5 31t-146.5 87t-104 128.5t-69 162.5t-36.5 181.5t-11.5 192.5z M389 731q0 -48 1 -86t6.5 -97.5t15 -105t28.5 -95.5t44.5 -83t65 -54.5t89.5 -21.5q51 0 92 21.5t67.5 54t46 82.5t29.5 96t16 105t7.5 99t1.5 89q0 41 -0.5 69t-3 76.5t-6.5 84.5t-13 83t-21.5 80.5t-31.5 69t-43 57.5t-57.5 36t-73.5 14q-42 0 -77 -14t-60 -36t-45 -58 t-32.5 -69t-22 -81t-13.5 -83t-6.5 -85.5t-3 -77.5t-0.5 -70z" />
<glyph unicode="1" d="M242 991v252q120 41 200 92t181 146h258v-1481h-303v1186q-135 -123 -336 -195z" />
<glyph unicode="2" d="M90 0v244q13 10 43 34q70 55 112 89t124.5 104t136.5 122t122.5 125.5t109 132t69.5 124t29 119.5q0 95 -54.5 150.5t-144.5 55.5q-98 0 -154 -62t-59 -167h-309q2 94 32 170t80.5 127t119 85t144.5 49.5t160 15.5q94 0 181.5 -25.5t159.5 -74t115.5 -129.5t43.5 -183 q0 -85 -37.5 -175.5t-90 -162.5t-137.5 -158.5t-148 -140.5t-157 -132t-132 -112h710v-225h-1069z" />
<glyph unicode="3" d="M57 414h308q3 -110 73 -169t176 -59q114 0 190.5 64.5t76.5 181.5q0 54 -19 95.5t-50 67t-73.5 42t-84.5 23t-89 6.5q-19 0 -55.5 -3.5t-44.5 -3.5v207q54 -4 80 -4q60 0 111 10.5t98 34.5t74.5 71t27.5 114q0 100 -68.5 157.5t-164.5 57.5q-38 0 -75 -11t-71.5 -33.5 t-56 -64.5t-21.5 -98h-315q0 106 51 189.5t133 131.5t174.5 72.5t186.5 24.5q75 0 146.5 -12.5t141.5 -43t122.5 -75t85 -114t32.5 -155.5q0 -138 -87 -230t-228 -114q160 -25 253 -115.5t93 -250.5q0 -95 -34.5 -171.5t-91 -124.5t-132.5 -80.5t-153.5 -45.5t-160.5 -13 q-91 0 -168.5 13.5t-148 45.5t-121 81.5t-83 126t-38.5 174.5z" />
<glyph unicode="4" d="M57 322v266l613 893h354v-951h227v-208h-227v-322h-287v322h-680zM270 528h471l4 715z" />
<glyph unicode="5" d="M115 385h305q3 -95 62.5 -146t154.5 -51q120 0 181 88.5t61 221.5q0 124 -58 206t-172 82q-79 0 -137.5 -43t-71.5 -122h-303l33 858l938 2v-219h-666l-22 -439q116 174 321 174q136 0 239 -66t155.5 -176t52.5 -247q0 -261 -144.5 -399t-392.5 -138q-87 0 -161.5 12 t-145 41.5t-120 75.5t-79.5 118.5t-30 166.5z" />
<glyph unicode="6" d="M98 731q0 125 18.5 236t62 213.5t109.5 176t168.5 117.5t231.5 44q100 0 185 -23.5t151.5 -70.5t104.5 -125.5t38 -180.5h-295q0 100 -51.5 149.5t-142.5 49.5q-71 0 -125 -37.5t-84.5 -93t-49.5 -132.5t-25 -141t-7 -133q118 207 369 207q129 0 232.5 -58.5t164.5 -170 t61 -256.5q0 -156 -71.5 -277.5t-193.5 -186.5t-271 -65q-128 0 -228.5 41t-165.5 110t-107.5 167.5t-60.5 206.5t-18 233zM420 483q0 -127 69.5 -211t188.5 -84q121 0 186.5 85t65.5 216q0 130 -63 213.5t-183 83.5q-70 0 -122.5 -24t-82.5 -67t-44.5 -96t-14.5 -116z" />
<glyph unicode="7" d="M98 1251v230h1051v-240l-541 -1241h-352l594 1251h-752z" />
<glyph unicode="8" d="M80 399q0 160 97.5 253.5t256.5 125.5q-25 1 -59 10.5t-79.5 34t-83 60t-63.5 96t-26 135.5q0 87 31.5 157t82.5 115.5t120.5 75.5t141 43t148.5 13q74 0 145 -12t140.5 -41.5t121 -73t83.5 -112.5t32 -155q0 -139 -84.5 -227t-222.5 -119q27 -2 62 -11t87 -35t93.5 -64 t71.5 -105t30 -151q0 -95 -32 -171.5t-84.5 -126t-124.5 -82.5t-148.5 -47t-159.5 -14t-160.5 12.5t-154.5 43.5t-134 78.5t-92.5 123t-35.5 170.5zM371 432q0 -120 77.5 -188t192.5 -68t196 67.5t81 186.5q0 121 -80.5 185.5t-198.5 64.5q-114 0 -191 -65t-77 -183z M403 1096q0 -108 67.5 -162.5t174.5 -54.5q101 0 170.5 56.5t69.5 158.5q0 106 -68 168.5t-170 62.5q-104 0 -174 -60.5t-70 -168.5z" />
<glyph unicode="9" d="M82 1022q0 151 73 265t195.5 172.5t274.5 58.5q573 0 573 -746q0 -805 -592 -805q-240 0 -381 106t-141 292h307q0 -2 1.5 -15.5t3.5 -22t6 -24t11 -27t17.5 -25.5t26.5 -24t36.5 -19t49.5 -13.5t63 -4.5q58 0 104.5 20t77 49.5t53 78.5t34 91.5t18.5 104t9 101t3 96.5 q-61 -97 -142 -139.5t-210 -42.5q-205 0 -338 130.5t-133 342.5zM369 1030q0 -123 66.5 -202.5t182.5 -79.5q121 0 193 77t72 205q0 123 -68.5 200t-185.5 77q-126 0 -193 -74.5t-67 -202.5z" />
<glyph unicode=":" horiz-adv-x="643" d="M176 0v262h293v-262h-293zM176 768v262h293v-262h-293z" />
<glyph unicode=";" horiz-adv-x="643" d="M78 -244l123 506h311l-215 -506h-219zM180 768v262h293v-262h-293z" />
<glyph unicode="&#x3c;" horiz-adv-x="1361" d="M143 416v235l1076 422v-244l-801 -297l801 -294v-246z" />
<glyph unicode="=" horiz-adv-x="1361" d="M143 195v225h1076v-225h-1076zM143 645v227h1076v-227h-1076z" />
<glyph unicode="&#x3e;" horiz-adv-x="1359" d="M143 -8v246l801 294l-801 297v244l1074 -422v-235z" />
<glyph unicode="?" horiz-adv-x="1110" d="M170 1270v213q165 28 287 28q83 0 155 -10.5t143.5 -37.5t122 -69.5t82 -112t31.5 -159.5q0 -36 -8.5 -70.5t-18.5 -61.5t-33 -58.5t-38 -50t-48.5 -49.5t-48.5 -44t-54.5 -44.5t-51.5 -41.5q-65 -52 -85.5 -85.5t-20.5 -106.5v-100h-250v141q0 44 5 69.5t23 53.5 q22 34 64.5 76.5t83 80t79 78.5t62 88.5t23.5 94.5q0 59 -25 102t-68 65.5t-91.5 33t-104.5 10.5q-96 0 -215 -33zM311 0v262h291v-262h-291z" />
<glyph unicode="@" horiz-adv-x="1628" d="M45 723q0 172 66.5 321.5t180 252.5t266.5 162t323 59q140 0 266.5 -41.5t223.5 -118.5t154.5 -195.5t57.5 -263.5q0 -75 -18 -151t-55.5 -146t-88.5 -124t-122 -86t-152 -32q-82 0 -129.5 52t-38.5 131q-100 -191 -289 -191q-89 0 -153 45.5t-94.5 117.5t-30.5 159 q0 86 30.5 173.5t83 159t132 117t169.5 45.5q83 0 144.5 -37t85.5 -112l33 115h184q-2 -6 -49 -157.5t-77 -262t-30 -150.5q0 -38 22.5 -59t59.5 -21q61 0 113 46t83 113t48.5 136t17.5 123q0 98 -30.5 180.5t-84.5 141.5t-127 100.5t-158 61.5t-179 20q-198 0 -360.5 -86 t-258.5 -243.5t-96 -356.5q0 -194 92.5 -342t248.5 -224.5t349 -76.5q296 0 565 201l62 -84q-159 -115 -308 -170.5t-329 -55.5q-164 0 -311 54t-256 151t-172.5 239.5t-63.5 309.5zM629 655q0 -44 10.5 -80t39.5 -63t73 -27q53 0 101 49t77.5 119t47 140t17.5 118 q0 53 -34 89t-87 36q-54 0 -102.5 -41.5t-78.5 -102t-47 -124t-17 -113.5z" />
<glyph unicode="A" horiz-adv-x="1552" d="M-10 0l600 1481h362l611 -1481h-355l-127 340h-647l-127 -340h-317zM512 557h485l-237 694z" />
<glyph unicode="B" horiz-adv-x="1435" d="M170 0v1481h514q206 0 291 -19q143 -33 229 -123t86 -233q0 -258 -295 -334q348 -64 348 -358q0 -81 -25.5 -147t-70.5 -110t-101.5 -75.5t-125.5 -49t-133.5 -25t-134.5 -7.5h-582zM481 221h236q62 0 110.5 9t93 31t69 66t24.5 109q0 64 -21.5 108t-62 67t-87 32.5 t-108.5 9.5h-254v-432zM481 864h205q47 0 84.5 4t76.5 17t65 34.5t42.5 58.5t16.5 87q0 55 -22.5 95t-62 61t-83.5 30t-96 9h-226v-396z" />
<glyph unicode="C" horiz-adv-x="1472" d="M90 729q0 169 45 310.5t132 246.5t223 164t309 59q91 0 174 -16t158.5 -52t131.5 -89t90 -132.5t36 -177.5h-332q-12 109 -80.5 167.5t-177.5 58.5q-83 0 -149.5 -34.5t-108 -89.5t-69.5 -129t-39 -147t-11 -149q0 -75 11 -144t38 -137t67.5 -118t104.5 -80.5t145 -30.5 q111 0 184.5 58.5t90.5 168.5h334q-11 -98 -49 -177t-95 -131.5t-133 -88t-159.5 -51t-178.5 -15.5q-175 0 -308.5 54.5t-217 155t-125 237.5t-41.5 309z" />
<glyph unicode="D" horiz-adv-x="1597" d="M170 0v1481h514q148 0 269 -22.5t226 -76t176 -136.5t111.5 -209t40.5 -289q0 -127 -22 -230.5t-61.5 -180.5t-99.5 -135.5t-131.5 -96.5t-162 -61.5t-186 -33.5t-209.5 -10h-465zM492 227h151q275 0 405 124t130 392q0 272 -128 391t-395 119h-163v-1026z" />
<glyph unicode="E" horiz-adv-x="1273" d="M170 0v1481h1001v-230h-686v-385h650v-227h-650v-410h707v-229h-1022z" />
<glyph unicode="F" horiz-adv-x="1204" d="M170 0v1481h977v-230h-662v-395h623v-227h-623v-629h-315z" />
<glyph unicode="G" horiz-adv-x="1570" d="M90 737q0 231 89 406.5t260 274t403 98.5q120 0 219 -25.5t178.5 -79.5t128 -144.5t59.5 -213.5h-325q-17 113 -89.5 168t-189.5 55q-86 0 -155 -31t-113.5 -82t-74 -121t-42 -143.5t-12.5 -153.5q0 -112 26.5 -207.5t79 -171.5t141 -119.5t204.5 -43.5q143 0 247 30v349 h-313v219h619v-746q-299 -82 -570 -82q-362 0 -566 201t-204 563z" />
<glyph unicode="H" horiz-adv-x="1624" d="M170 0v1481h322v-607h641v607h321v-1481h-321v633h-641v-633h-322z" />
<glyph unicode="I" horiz-adv-x="661" d="M170 0v1481h322v-1481h-322z" />
<glyph unicode="J" horiz-adv-x="1183" d="M12 375q0 37 2 57h330v-51q0 -78 47 -126t125 -48q59 0 99 21.5t60 61t28 83t8 100.5v1008h321v-1006q0 -252 -133 -377t-389 -125q-76 0 -147 14.5t-135.5 46t-112 77.5t-75.5 114t-28 150z" />
<glyph unicode="K" horiz-adv-x="1476" d="M170 0v1481h322v-1481h-322zM496 813l532 668h389l-581 -656l649 -825h-402z" />
<glyph unicode="L" horiz-adv-x="1216" d="M170 0v1481h322v-1248h692v-233h-1014z" />
<glyph unicode="M" horiz-adv-x="2082" d="M170 0v1481h492l387 -1162l372 1162h492v-1481h-299v1288l-443 -1288h-282l-443 1290v-1290h-276z" />
<glyph unicode="N" horiz-adv-x="1636" d="M170 0v1481h451l569 -1223v1223h276v-1481h-450l-570 1221v-1221h-276z" />
<glyph unicode="O" horiz-adv-x="1595" d="M90 737q0 170 45 311.5t132 247t223.5 164t310.5 58.5q175 0 310.5 -58t221 -162.5t129 -245t43.5 -311.5q0 -167 -45.5 -307t-132.5 -244.5t-223 -162.5t-309 -58q-174 0 -309.5 56.5t-221.5 159.5t-130 242.5t-44 309.5zM414 748q0 -82 10 -154.5t36.5 -145t68 -124.5 t110 -84.5t156.5 -32.5t157 32t111.5 84t70 124.5t38 145.5t10.5 155q0 80 -11 152.5t-39.5 143.5t-71 123t-111 83.5t-154.5 31.5q-85 0 -152 -32.5t-109 -84.5t-70 -123t-39 -143.5t-11 -150.5z" />
<glyph unicode="P" horiz-adv-x="1361" d="M170 0v1481h549q130 0 225.5 -16t175.5 -70q189 -129 189 -375q0 -135 -67.5 -241t-190.5 -158q-113 -46 -281 -46h-278v-575h-322zM492 803h165q53 0 96.5 5t88 20t74 40t48.5 67.5t19 98.5q0 53 -17 93t-44.5 63.5t-68.5 38t-82 19.5t-91 5h-188v-450z" />
<glyph unicode="Q" horiz-adv-x="1595" d="M90 737q0 170 44.5 311.5t131 247t222.5 164t309 58.5q219 0 380 -92.5t243.5 -257.5t82.5 -382q0 -192 -64 -338.5t-210 -252.5q161 22 350 22v-217q-36 0 -122 0.5t-133.5 0.5t-118 -1.5t-128.5 -5.5q-32 -2 -95.5 -7t-113.5 -7.5t-96 -2.5q-168 0 -299.5 58 t-214.5 161t-125.5 240.5t-42.5 300.5zM414 748q0 -81 10 -153.5t36.5 -145t68 -124t110 -84t156.5 -32.5t157 32t111.5 83.5t70 123.5t38 145t10.5 155q0 80 -11 152.5t-39.5 143.5t-71 123t-111 83.5t-154.5 31.5q-85 0 -152.5 -32t-109.5 -84t-69.5 -123.5t-38.5 -143.5 t-11 -151z" />
<glyph unicode="R" horiz-adv-x="1452" d="M170 0v1481h567q77 0 124 -2t112 -13.5t119 -33.5q237 -100 237 -326q0 -151 -89 -239t-245 -119v-3q127 -8 190 -58.5t89 -166.5q4 -19 8 -42.5t7.5 -55t6.5 -49.5q3 -24 10 -91.5t12 -102t18 -87t32 -92.5h-336q-24 71 -39 188q-5 39 -11 111.5t-7 81.5q-7 74 -19 116 t-38.5 73.5t-71 43t-117.5 11.5h-240v-625h-319zM489 842h183q46 0 79.5 2t77.5 8.5t74 20.5t57.5 36.5t41.5 59t14 84.5q0 52 -20.5 90t-51 59t-76 33.5t-85.5 16t-89 3.5h-205v-413z" />
<glyph unicode="S" horiz-adv-x="1388" d="M92 455h322q3 -120 72.5 -186t199.5 -66q69 0 130.5 21.5t105 71.5t43.5 120q0 57 -33.5 92.5t-93.5 60.5q-46 19 -139.5 45t-116.5 33q-58 18 -95 30.5t-90 35t-87 43.5t-72 53.5t-60 68.5t-36.5 85t-14.5 106q0 96 34.5 172.5t91 125.5t134 82t159 46.5t169.5 13.5 q114 0 206.5 -21.5t169 -69t119 -133t43.5 -204.5h-321q-19 213 -242 213q-97 0 -167 -50.5t-70 -143.5q0 -63 49 -103q35 -29 219 -92q241 -78 252 -82q81 -31 133.5 -60t99 -73t68.5 -105.5t22 -144.5q0 -98 -36.5 -178t-96.5 -133t-140.5 -89t-166.5 -51.5t-176 -15.5 q-99 0 -183.5 16t-159.5 52t-128 91t-84 137t-33 186z" />
<glyph unicode="T" horiz-adv-x="1271" d="M12 1245v236h1248v-236h-463v-1245h-322v1245h-463z" />
<glyph unicode="U" horiz-adv-x="1628" d="M164 625v856h330v-873q0 -73 8 -130t30 -110t57.5 -88t93 -56t134.5 -21q76 0 134.5 22t94.5 58.5t58.5 90.5t31.5 112.5t9 129.5v865h319v-865q0 -322 -165.5 -485.5t-489.5 -163.5q-416 0 -565 258q-50 88 -65 178.5t-15 221.5z" />
<glyph unicode="V" horiz-adv-x="1445" d="M-8 1481h346l391 -1213l406 1213h319l-547 -1481h-377z" />
<glyph unicode="W" horiz-adv-x="2273" d="M8 1481h338l287 -1209l328 1209h389l319 -1209l281 1209h315l-403 -1481h-387l-330 1210l-336 -1210h-387z" />
<glyph unicode="X" horiz-adv-x="1515" d="M-8 0l563 772l-530 709h405l338 -520l328 520h370l-514 -707l572 -774h-402l-383 580l-370 -580h-377z" />
<glyph unicode="Y" horiz-adv-x="1409" d="M-31 1483h375l373 -686l377 686h346l-574 -908v-575h-321v575z" />
<glyph unicode="Z" horiz-adv-x="1290" d="M41 0v262l784 987h-735v232h1131v-242l-820 -1008h848v-231h-1208z" />
<glyph unicode="[" horiz-adv-x="649" d="M137 -311v1792h475v-166h-247v-1458h247v-168h-475z" />
<glyph unicode="\" horiz-adv-x="579" d="M-47 1518h211l463 -1549h-213z" />
<glyph unicode="]" horiz-adv-x="649" d="M37 -143h248v1458h-248v166h475v-1792h-475v168z" />
<glyph unicode="^" horiz-adv-x="1361" d="M211 602l364 879h211l365 -879h-246l-225 600l-221 -600h-248z" />
<glyph unicode="_" horiz-adv-x="1034" d="M4 -154h1026v-102h-1026v102z" />
<glyph unicode="`" horiz-adv-x="653" d="M-35 1505h336l205 -297h-201z" />
<glyph unicode="a" horiz-adv-x="1171" d="M61 295q0 67 21.5 120.5t56 89.5t86.5 62.5t103 41t115.5 23t114.5 11t110 2.5h84v39q0 36 -3.5 64.5t-13.5 58t-26.5 48.5t-45 31.5t-67.5 12.5q-160 0 -160 -162h-305q1 73 29 131t72 94t105.5 59.5t123.5 32.5t131 9q90 0 155 -9t123.5 -35t94 -70t56.5 -115.5 t21 -171.5v-308q0 -225 17 -354h-283q-21 61 -24 141q-61 -89 -139 -125t-191 -36q-104 0 -183.5 32.5t-128.5 105t-49 177.5zM356 311q0 -68 49 -110.5t119 -42.5q69 0 116.5 27.5t70.5 77t32 101t9 117.5v19q-14 0 -39 1t-39 1q-43 0 -82.5 -4t-84 -16.5t-76.5 -33 t-53.5 -56t-21.5 -81.5z" />
<glyph unicode="b" horiz-adv-x="1294" d="M137 0q8 94 8 276v1205h299v-592q130 168 332 168q93 0 168 -27.5t126.5 -75.5t86 -115.5t50.5 -144.5t16 -164q0 -112 -28 -209t-82.5 -174.5t-145.5 -122t-209 -44.5q-103 0 -176.5 37.5t-143.5 119.5l-6 -137h-295zM436 520q0 -62 11 -118.5t35.5 -110.5t72 -86.5 t113.5 -32.5q58 0 102.5 21.5t71.5 55.5t44 82t23 95t6 100q0 63 -10.5 118.5t-34.5 108.5t-71 84t-113 31q-69 0 -120 -31t-78 -83t-39.5 -110.5t-12.5 -123.5z" />
<glyph unicode="c" horiz-adv-x="1148" d="M72 508q0 256 145 405.5t401 149.5q204 0 333 -94.5t147 -290.5h-297q-3 94 -49 150.5t-136 56.5q-233 0 -233 -363q0 -52 4.5 -97.5t19.5 -97t39 -87.5t66 -60t98 -24q184 0 191 225h305v-10q0 -101 -43 -179t-115 -124t-158.5 -69.5t-181.5 -23.5q-254 0 -395 140 t-141 393z" />
<glyph unicode="d" horiz-adv-x="1292" d="M72 514q0 80 15.5 156t50 147t85 124t127 84.5t168.5 31.5q109 0 189 -36.5t145 -119.5v580h299v-1205q0 -184 8 -276h-301l-8 137q-71 -84 -143.5 -120.5t-178.5 -36.5q-92 0 -168 28t-129 77t-89 117t-53 146t-17 166zM377 526q0 -54 6 -100.5t22.5 -94.5t42.5 -82 t70.5 -55.5t102.5 -21.5q53 0 95 22t68 57t43.5 82t24 93t6.5 94q0 65 -13.5 123.5t-41.5 110.5t-79.5 83t-119.5 31q-66 0 -112.5 -31t-70.5 -84t-34 -108.5t-10 -118.5z" />
<glyph unicode="e" horiz-adv-x="1179" d="M72 500q0 263 136.5 412t397.5 149q158 0 278.5 -68t178.5 -207q29 -68 37 -140.5t8 -186.5h-746v-9q0 -56 12 -104q13 -52 40.5 -96t75 -69t110.5 -25q183 0 207 180h291q-13 -97 -59 -168.5t-116 -112t-151 -59.5t-176 -19q-251 0 -387.5 136.5t-136.5 386.5zM369 631 h450q0 119 -55 186.5t-160 67.5q-108 0 -171.5 -71t-63.5 -183z" />
<glyph unicode="f" horiz-adv-x="792" d="M27 838v196h200v86q0 182 84.5 275.5t270.5 93.5q86 0 196 -10v-197q-70 4 -98 4q-51 0 -83 -11t-47 -35.5t-19.5 -51t-4.5 -70.5v-84h238v-196h-238v-838h-299v838h-200z" />
<glyph unicode="g" horiz-adv-x="1292" d="M72 537q0 108 29 201t84 164.5t143.5 112t199.5 40.5q227 0 344 -181v158h289q-1 -46 -3.5 -148t-2.5 -139v-552q0 -309 -129 -456t-414 -147q-57 0 -110 6t-109.5 19t-102.5 38t-83.5 59t-58.5 85.5t-21 114.5v16h283q1 -84 58.5 -120.5t145.5 -36.5q71 0 119 20.5 t73.5 60.5t36.5 86t13 111v144q-118 -173 -330 -173q-111 0 -199 40.5t-143 111.5t-83.5 164t-28.5 201zM383 537q0 -63 11.5 -118t36.5 -104.5t73 -78.5t114 -29q67 0 116.5 30t75.5 81.5t38 108t12 120.5q0 60 -12.5 115t-38.5 104t-73.5 78.5t-110.5 29.5q-67 0 -116 -30 t-75.5 -80.5t-38.5 -107t-12 -119.5z" />
<glyph unicode="h" horiz-adv-x="1292" d="M141 0v1481h299v-598q67 86 147 127t185 41q188 0 283.5 -98t95.5 -285v-668h-297v551q0 43 -2 72.5t-8 67.5t-19 63t-34 48t-55 34.5t-79 11.5q-53 0 -93.5 -23t-63.5 -56.5t-37 -78t-18.5 -81.5t-4.5 -74v-535h-299z" />
<glyph unicode="i" horiz-adv-x="581" d="M135 1243v238h311v-238h-311zM141 0v1034h299v-1034h-299z" />
<glyph unicode="j" horiz-adv-x="581" d="M-37 -184q9 0 24 -2t23 -2q131 0 131 163v1059h299v-1128q0 -93 -20.5 -152t-66.5 -91.5t-106 -44t-153 -11.5q-41 0 -131 4v205zM135 1243v238h311v-238h-311z" />
<glyph unicode="k" horiz-adv-x="1261" d="M141 0v1481h299v-1481h-299zM440 580l400 454h360l-422 -440l467 -594h-381z" />
<glyph unicode="l" horiz-adv-x="581" d="M141 0v1481h299v-1481h-299z" />
<glyph unicode="m" horiz-adv-x="1986" d="M133 1032h293l8 -162q113 179 346 179q247 0 326 -199q115 199 369 199q190 0 280 -108t90 -300v-641h-299v575q0 48 -3.5 83t-15 73t-32 62t-57 39.5t-86.5 15.5q-63 0 -106.5 -23t-64.5 -65.5t-29.5 -88.5t-8.5 -106v-565h-299v573q0 58 -7 101.5t-26 85.5t-59 65 t-99 23t-102 -23t-66.5 -63.5t-34 -87.5t-10.5 -103v-571h-299v688q0 110 -8 344z" />
<glyph unicode="n" horiz-adv-x="1292" d="M133 1032h297l4 -158q71 91 149.5 133t190.5 42q187 0 282 -97.5t95 -283.5v-668h-299v547q0 52 -2.5 87t-13.5 79.5t-31 71t-57.5 45t-90.5 18.5q-54 0 -94.5 -23.5t-63 -58t-37 -81.5t-18.5 -85.5t-4 -79.5v-520h-299v829q0 110 -8 203z" />
<glyph unicode="o" horiz-adv-x="1265" d="M72 520q0 254 155.5 397.5t411.5 143.5q257 0 406 -142.5t149 -398.5q0 -255 -152.5 -400t-410.5 -145q-260 0 -409.5 143t-149.5 402zM383 518q0 -53 6.5 -101t23.5 -97.5t43.5 -85t71.5 -58t103 -22.5q71 0 122.5 33t78.5 88.5t39 115.5t12 127q0 68 -12 128t-39 115 t-78.5 87.5t-122.5 32.5q-72 0 -123 -32.5t-77 -88t-37 -114.5t-11 -128z" />
<glyph unicode="p" horiz-adv-x="1300" d="M141 1032h293l4 -158q122 181 342 181q112 0 199.5 -41.5t141 -113.5t81 -164.5t27.5 -200.5q0 -88 -17.5 -168t-54.5 -151t-91 -123.5t-131.5 -82.5t-170.5 -30q-104 0 -176.5 35.5t-138.5 117.5v-522h-299v1167q0 60 -9 254zM442 512q0 -48 6 -93.5t22 -93t41 -83 t66 -58t93 -22.5q70 0 121.5 33t78.5 88t39.5 115t12.5 126q0 61 -12 118t-37.5 109.5t-73.5 84.5t-113 32q-55 0 -98 -22t-70 -57.5t-44.5 -83.5t-24.5 -95t-7 -98z" />
<glyph unicode="q" horiz-adv-x="1298" d="M72 526q0 103 26.5 196t78.5 168.5t138.5 120t196.5 44.5q115 0 198.5 -43t147.5 -138l4 158h297q-8 -102 -8 -254v-1167h-299v522q-66 -82 -140 -117.5t-180 -35.5q-116 0 -205 41t-144 115t-83 172.5t-28 217.5zM379 524q0 -67 11.5 -126t37 -114.5t76.5 -88.5t121 -33 q52 0 93.5 22.5t66.5 58t41.5 83t23 93.5t6.5 93q0 64 -12.5 123t-39 113.5t-76.5 87t-118 32.5q-53 0 -94.5 -21.5t-66.5 -55.5t-41.5 -80.5t-22.5 -92t-6 -94.5z" />
<glyph unicode="r" horiz-adv-x="815" d="M133 1032h289l8 -190q51 101 129 148.5t191 47.5q31 0 49 -2v-260q-49 6 -90 6q-269 0 -269 -295v-487h-299v780q0 40 -4 124t-4 128z" />
<glyph unicode="s" horiz-adv-x="1099" d="M76 330h301q3 -92 44.5 -138.5t131.5 -46.5q67 0 118.5 37t51.5 101q0 71 -98 114q-49 20 -99 31q-20 5 -57.5 14t-54.5 13q-54 14 -92.5 27t-82.5 36.5t-71 52.5t-45.5 73.5t-18.5 100.5q0 88 40.5 152t108.5 98t141 49t153 15q71 0 132.5 -10t118.5 -34.5t98 -62 t67 -95.5t30 -132h-293q-3 76 -43.5 121t-113.5 45q-62 0 -109 -29t-47 -86q0 -71 96 -108q51 -20 103 -31q68 -15 116 -27q55 -13 95.5 -26.5t86 -38t74 -54t47.5 -75.5t19 -103q0 -77 -29.5 -138t-77 -98t-112.5 -61t-130 -33.5t-136 -9.5q-463 0 -463 357z" />
<glyph unicode="t" horiz-adv-x="788" d="M18 838v196h199v172l291 119v-291h244v-196h-244v-471q0 -43 1.5 -66t9.5 -48.5t23 -37t42.5 -19.5t68.5 -8q18 0 50.5 4t46.5 5v-195q-115 -16 -213 -16q-82 0 -138 11.5t-99 41.5t-63 85t-20 138v576h-199z" />
<glyph unicode="u" horiz-adv-x="1290" d="M141 365v667h299v-549q0 -37 1 -62t5 -59.5t11.5 -57.5t21.5 -48t34 -40t50.5 -24.5t69.5 -9.5q221 0 221 316v534h299v-651q0 -252 6 -381h-299l-4 158q-71 -91 -148.5 -132.5t-189.5 -41.5q-377 0 -377 381z" />
<glyph unicode="v" horiz-adv-x="1161" d="M2 1032h317l271 -799l278 799h291l-416 -1032h-323z" />
<glyph unicode="w" horiz-adv-x="1894" d="M14 1032h324l213 -784l254 784h338l237 -784l219 784h281l-354 -1032h-322l-246 782l-260 -782h-319z" />
<glyph unicode="x" horiz-adv-x="1146" d="M2 0l385 535l-367 497h371l193 -332l196 332h322l-352 -497l395 -535h-369l-227 377l-225 -377h-322z" />
<glyph unicode="y" horiz-adv-x="1173" d="M0 1032h336l276 -772l267 772h295l-586 -1421h-285l164 383z" />
<glyph unicode="z" horiz-adv-x="1003" d="M59 0v203l541 626h-520v203h848v-211l-527 -622h547v-199h-889z" />
<glyph unicode="{" horiz-adv-x="796" d="M31 508v154q88 8 142.5 40.5t75.5 79.5t28 106t7.5 123t4.5 128t28 122.5t71 105t140 77t228 37.5v-146q-78 -5 -128 -32t-72 -69.5t-31.5 -95.5t-10.5 -112t-3 -118t-16 -113.5t-43 -98.5t-90.5 -74t-152.5 -38q106 -14 182 -68q48 -35 76.5 -85t36 -102.5t11.5 -110.5 t3 -111t10 -102t32 -85.5t70.5 -59.5t125.5 -26v-147q-117 7 -203 32t-135.5 62.5t-79.5 84.5t-40 100.5t-12.5 108t-2 110t-3.5 103t-21.5 89t-51.5 67.5q-62 48 -176 64z" />
<glyph unicode="|" horiz-adv-x="540" d="M154 -438v2050h233v-2050h-233z" />
<glyph unicode="}" horiz-adv-x="796" d="M41 -166q99 6 154 48t69.5 104.5t16 137t6.5 150.5t27 140.5t90.5 111t185.5 58.5q-59 6 -97.5 20.5t-84.5 48.5q-55 40 -84 99t-35 119.5t-7 126t-6.5 122.5t-25 104t-71.5 76.5t-138 34.5v146q106 -5 186.5 -26t130 -52t83.5 -72t47.5 -86.5t21 -96.5t6 -100t0.5 -98 t6 -90.5t21.5 -77.5t48.5 -59q67 -50 174 -61v-156q-71 -8 -120 -32t-74 -53.5t-38 -78t-15.5 -88t-3.5 -100.5q0 -60 -2 -91.5t-11.5 -87t-26.5 -86.5t-51.5 -72t-84 -63.5t-125 -41.5t-173.5 -25v147z" />
<glyph unicode="~" horiz-adv-x="1363" d="M123 352q6 66 25.5 127.5t53.5 115.5t90 87t126 33q57 0 133 -21t137.5 -45.5t136.5 -45.5t131 -21q110 0 131 135h154q-6 -68 -25 -129.5t-52.5 -116t-90 -87t-127.5 -32.5q-67 0 -173 34t-206.5 67.5t-156.5 33.5q-57 0 -91.5 -38t-42.5 -97h-153z" />
<glyph unicode="&#xa1;" horiz-adv-x="694" d="M174 -440l55 1071h234l57 -1071h-346zM201 778v262h291v-262h-291z" />
<glyph unicode="&#xa2;" d="M141 508q0 256 145.5 405.5t401.5 149.5q26 0 72 -4l63 219l125 -33l-59 -209q121 -38 193.5 -127t84.5 -231h-297q-3 91 -43 143l-190 -661q24 -4 43 -4q183 0 190 225h306v-10q0 -101 -43 -179t-115 -124t-158.5 -69.5t-181.5 -23.5q-41 0 -92 7l-66 -228l-125 35 l64 219q-153 53 -235.5 181t-82.5 319zM453 522q0 -199 69 -291l189 652q-8 2 -25 2q-233 0 -233 -363z" />
<glyph unicode="&#xa3;" d="M53 719v192h178q2 135 30.5 242t89 190.5t162.5 129t241 45.5q112 0 197.5 -21.5t151.5 -68.5t101 -128t37 -194h-297q-3 219 -194 219q-33 0 -60 -6.5t-48 -18t-37.5 -28t-28 -36.5t-20 -43t-13 -48t-8 -51.5t-4 -53t-1.5 -53t0 -51.5v-25h310v-192h-310v-520h650v-199 h-1088v199h139v520h-178z" />
<glyph unicode="&#xa4;" d="M129 373l135 135q-69 112 -69 240q0 121 69 241l-135 133l139 140l135 -136q125 72 238 72q116 0 244 -72l133 134l137 -138l-133 -135q70 -118 70 -242q0 -119 -70 -237l135 -133l-139 -142l-135 136q-115 -70 -238 -70q-118 0 -239 70l-138 -136zM401 745 q0 -99 71 -169t171 -70t171 70.5t71 168.5q0 100 -70.5 173t-171.5 73t-171.5 -72t-70.5 -174z" />
<glyph unicode="&#xa5;" horiz-adv-x="1288" d="M-8 1481h366l301 -652l308 652h329l-409 -742h256v-157h-348v-119h348v-156h-348v-307h-316v307h-346v156h346v119h-346v157h262z" />
<glyph unicode="&#xa6;" horiz-adv-x="540" d="M154 -182v512h233v-512h-233zM154 842v514h233v-514h-233z" />
<glyph unicode="&#xa7;" horiz-adv-x="1298" d="M205 719q0 103 57 167.5t164 117.5q-180 80 -180 241q0 64 25.5 113t65 78.5t94.5 48.5t107.5 26t110.5 7q118 0 316 -35v-191q-141 43 -252 43q-39 0 -73.5 -7.5t-63.5 -32.5t-29 -64q0 -33 29.5 -59t77 -45.5t104.5 -38.5t114 -44.5t104.5 -57.5t77 -83t29.5 -115 q0 -175 -198 -270q95 -44 141.5 -98.5t46.5 -147.5q0 -70 -28.5 -124.5t-73 -87t-105.5 -54t-120 -29.5t-123 -8q-214 0 -367 45v189q133 -47 270 -47q42 0 73.5 3t73.5 13.5t65.5 37t23.5 66.5q0 36 -30.5 64t-80 47.5t-109 38.5t-118.5 43.5t-108.5 55.5t-80 80.5 t-30.5 113.5zM479 770q0 -38 16.5 -67.5t56 -53t60 -33t71.5 -28.5l15 -6q115 85 115 168q0 19 -6 36.5t-14 31t-24.5 27.5t-27.5 22.5t-34 21t-32.5 17t-35 16t-31.5 14.5q-57 -37 -93 -76t-36 -90z" />
<glyph unicode="&#xa8;" horiz-adv-x="653" d="M-51 1247v240h270v-240h-270zM432 1247v240h273v-240h-273z" />
<glyph unicode="&#xa9;" horiz-adv-x="1630" d="M41 743q0 157 61 300.5t165 247.5t247 165.5t301 61.5t301 -61.5t247 -165t165 -247t61 -301.5t-61.5 -301t-165.5 -247t-247 -165t-300 -61q-209 0 -387.5 104t-282.5 282.5t-104 387.5zM156 743q0 -134 52 -256.5t140 -210.5t210.5 -140t256.5 -52q178 0 330 88.5 t241 240.5t89 330q0 133 -52 255t-140.5 211t-211 141.5t-256.5 52.5q-180 0 -332 -88.5t-239.5 -240t-87.5 -331.5zM428 739q0 99 22.5 180.5t68.5 145.5t123 99.5t179 35.5q140 0 234.5 -68t97.5 -202h-180q-6 62 -47.5 95.5t-104.5 33.5q-50 0 -88.5 -20.5t-61 -52.5 t-37 -76t-19.5 -85.5t-5 -87.5q0 -58 9.5 -109t32 -98.5t66.5 -75.5t105 -28q66 0 106.5 34.5t49.5 100.5h180q-5 -94 -53 -157t-120.5 -90t-166.5 -27q-197 0 -294 124t-97 328z" />
<glyph unicode="&#xaa;" horiz-adv-x="745" d="M51 1063q0 50 20.5 89t54 62t77 39.5t90 21.5t92 7.5t84.5 -2.5q-1 34 -3.5 52t-11 38t-28 28.5t-51.5 8.5q-42 0 -70.5 -24t-25.5 -66h-197q0 31 19.5 71.5t43.5 63.5q74 66 230 66q75 0 128.5 -15.5t83 -38.5t46.5 -60.5t21.5 -71.5t4.5 -81q0 -42 -3 -114t-3 -101 q0 -57 15 -153h-191q-1 13 -4 35.5t-4 35.5q-44 -47 -88 -65.5t-109 -18.5q-96 0 -158.5 49.5t-62.5 143.5zM246 1075q0 -39 27 -62.5t67 -23.5q127 0 127 178q-122 0 -169 -21q-51 -24 -52 -71z" />
<glyph unicode="&#xab;" horiz-adv-x="1140" d="M86 526l238 398h243l-223 -402l223 -397h-241zM571 526l240 398h242l-224 -402l226 -397h-244z" />
<glyph unicode="&#xac;" horiz-adv-x="1361" d="M143 645v227h1076v-677h-236v450h-840z" />
<glyph unicode="&#xad;" horiz-adv-x="665" d="M53 444v197h559v-197h-559z" />
<glyph unicode="&#xae;" horiz-adv-x="935" d="M82 1130q0 160 113.5 274t273.5 114q159 0 272 -114t113 -274t-112.5 -273.5t-272.5 -113.5t-273.5 113.5t-113.5 273.5zM156 1130q0 -129 92 -222t221 -93t221 93t92 222t-92 221.5t-221 92.5t-221 -92.5t-92 -221.5zM307 924v417h187q67 0 104 -21.5t37 -84.5 q0 -84 -94 -100q32 -5 50.5 -20t25.5 -38t9.5 -47t6.5 -54.5t12 -51.5h-102q-6 17 -8.5 51t-5 58t-18 43.5t-44.5 19.5h-66v-172h-94zM401 1159h60q38 0 58 12t20 48q0 35 -21.5 46t-60.5 11h-56v-117z" />
<glyph unicode="&#xaf;" horiz-adv-x="653" d="M-16 1288v142h686v-142h-686z" />
<glyph unicode="&#xb0;" horiz-adv-x="831" d="M80 1180q0 140 98.5 239t237.5 99q138 0 237 -100t99 -238t-99 -236t-237 -98t-237 98t-99 236zM262 1180q0 -63 45.5 -107.5t108.5 -44.5t108 44.5t45 107.5t-45 108t-108 45t-108.5 -45t-45.5 -108z" />
<glyph unicode="&#xb1;" horiz-adv-x="1361" d="M143 -59v227h1076v-227h-1076zM143 567v226h422v333h234v-333h420v-226h-420v-321h-234v321h-422z" />
<glyph unicode="&#xb2;" horiz-adv-x="817" d="M63 645v158q4 3 39 28.5t51 37.5t55 42t61.5 49t59 50.5t58.5 54.5t48.5 53t41 53.5t25 49.5t10.5 47q0 46 -31 73t-78 27q-56 0 -85 -32t-29 -91h-213q1 73 28.5 127t75 85t105 46t127.5 15q48 0 92 -8t85 -26t71.5 -45.5t48.5 -69t18 -93.5q0 -125 -141 -266 q-41 -43 -127 -113q-39 -31 -121 -96h395v-156h-670z" />
<glyph unicode="&#xb3;" horiz-adv-x="817" d="M47 897h207q3 -123 139 -123q62 0 107 31.5t45 89.5q0 117 -180 117q-22 0 -72 -4v147q46 -4 59 -4q180 0 180 117q0 50 -41 77t-94 27q-121 0 -127 -117h-207q1 71 30.5 123.5t78.5 82t107 43.5t124 14q58 0 114 -12.5t107 -39t82 -74t31 -110.5q0 -131 -153 -195 q168 -53 168 -206q0 -56 -22 -100t-57.5 -72t-83 -46.5t-95.5 -26t-99 -7.5q-72 0 -130.5 13t-108 42.5t-78.5 83.5t-31 129z" />
<glyph unicode="&#xb4;" horiz-adv-x="653" d="M147 1208l213 297h330l-336 -297h-207z" />
<glyph unicode="&#xb6;" horiz-adv-x="1290" d="M57 1042q0 112 40.5 197t113.5 137.5t169.5 78.5t213.5 26h526v-1481h-223v1296h-207v-1296h-223v633q-196 17 -303 127t-107 282z" />
<glyph unicode="&#xb7;" horiz-adv-x="643" d="M176 492v260h293v-260h-293z" />
<glyph unicode="&#xb8;" horiz-adv-x="653" d="M74 -381l22 82q100 -49 189 -49q108 0 108 80q0 41 -30 59.5t-74 18.5q-19 0 -62 -13l-41 27l97 192h84l-62 -137q50 8 78 8q71 0 120.5 -38t49.5 -109q0 -48 -24 -82t-65 -51t-81.5 -24t-85.5 -7q-116 0 -223 43z" />
<glyph unicode="&#xb9;" horiz-adv-x="817" d="M150 1178v168q79 26 125.5 52.5t109.5 82.5h176v-852h-207v645q-92 -61 -204 -96z" />
<glyph unicode="&#xba;" horiz-adv-x="811" d="M61 1192q0 155 94.5 240.5t250.5 85.5q155 0 249.5 -85.5t94.5 -238.5q0 -156 -93 -240t-251 -84q-157 0 -251 84t-94 238zM266 1194q0 -38 6.5 -71t21.5 -63.5t43.5 -48.5t68.5 -18t68.5 18t43 48.5t21 63.5t6.5 71t-6.5 70.5t-21 63t-43 48t-68.5 17.5t-68.5 -17.5 t-43.5 -48t-21.5 -63t-6.5 -70.5z" />
<glyph unicode="&#xbb;" horiz-adv-x="1140" d="M86 125l223 401l-223 398h242l239 -402l-237 -397h-244zM571 924h244l240 -402l-238 -397h-244l224 401z" />
<glyph unicode="&#xbc;" horiz-adv-x="1986" d="M156 1176v170q79 26 124 52.5t109 82.5h178v-854h-209v647q-100 -66 -202 -98zM477 -55l842 1601h188l-837 -1601h-193zM1202 174v170l371 512h235v-539h138v-143h-138v-174h-196v174h-410zM1364 317h252v347z" />
<glyph unicode="&#xbd;" horiz-adv-x="1986" d="M156 1176v170q79 26 124 52.5t109 82.5h178v-854h-209v647q-100 -66 -202 -98zM477 -55l842 1601h188l-837 -1601h-193zM1227 0v158q6 4 19 14q58 42 95.5 70.5t107.5 87.5t112.5 103.5t77 98t34.5 93.5q0 48 -28.5 73t-77.5 25q-56 0 -85.5 -32t-29.5 -91h-213 q1 73 28.5 127t74.5 85.5t105.5 46.5t127.5 15q48 0 92 -8t85 -26t71.5 -45t48.5 -68.5t18 -93.5q0 -125 -143 -268q-41 -43 -127 -113q-25 -20 -68.5 -53.5t-52.5 -40.5h397v-158h-669z" />
<glyph unicode="&#xbe;" horiz-adv-x="1986" d="M51 897h209q3 -123 139 -123q62 0 106 30.5t44 88.5q0 119 -180 119q-20 0 -70 -4v147q46 -4 59 -4q179 0 179 117q0 50 -40.5 77t-93.5 27q-121 0 -127 -117h-208q1 71 30.5 123.5t79.5 82t108 43.5t124 14q58 0 113.5 -12.5t106 -39t81 -74t30.5 -110.5 q0 -131 -153 -195q170 -54 170 -208q0 -69 -33 -120.5t-87.5 -78.5t-114 -40t-124.5 -13q-71 0 -130 13.5t-108.5 43.5t-78.5 84t-31 129zM479 -55l840 1601h190l-839 -1601h-191zM1202 174v170l373 512h233v-539h140v-143h-140v-174h-196v174h-410zM1364 317h252v347z" />
<glyph unicode="&#xbf;" horiz-adv-x="1110" d="M98 -86q0 36 8 70.5t19 61.5t33 58t38 51t48 49.5t49 44t54.5 45t51.5 42.5q65 52 86 86t21 106v101h252v-142q0 -31 -1 -46t-7.5 -35t-20.5 -41q-27 -39 -85 -96t-105.5 -101t-85 -105t-37.5 -118q0 -59 25.5 -102t69 -65.5t92 -33t104.5 -10.5q91 0 213 35v-215 q-151 -29 -287 -29q-84 0 -156 10t-144 37t-122.5 69.5t-81.5 112t-31 160.5zM487 778v262h293v-262h-293z" />
<glyph unicode="&#xc0;" horiz-adv-x="1552" d="M-10 0l600 1481h362l611 -1481h-355l-127 340h-647l-127 -340h-317zM426 1886h336l205 -297h-201zM512 557h485l-237 694z" />
<glyph unicode="&#xc1;" horiz-adv-x="1552" d="M-10 0l600 1481h362l611 -1481h-355l-127 340h-647l-127 -340h-317zM512 557h485l-237 694zM612 1589l213 297h330l-336 -297h-207z" />
<glyph unicode="&#xc2;" horiz-adv-x="1552" d="M-10 0l600 1481h362l611 -1481h-355l-127 340h-647l-127 -340h-317zM420 1589l231 299h279l229 -299h-207l-161 178l-164 -178h-207zM512 557h485l-237 694z" />
<glyph unicode="&#xc3;" horiz-adv-x="1552" d="M-10 0l600 1481h362l611 -1481h-355l-127 340h-647l-127 -340h-317zM397 1610q9 106 81 179t177 73q56 0 160.5 -36t153.5 -36q64 0 78 78h137q-11 -102 -78.5 -177t-167.5 -75q-53 0 -156 33.5t-155 33.5q-77 0 -99 -73h-131zM512 557h485l-237 694z" />
<glyph unicode="&#xc4;" horiz-adv-x="1552" d="M-10 0l600 1481h362l611 -1481h-355l-127 340h-647l-127 -340h-317zM412 1628v240h270v-240h-270zM512 557h485l-237 694zM895 1628v240h272v-240h-272z" />
<glyph unicode="&#xc5;" horiz-adv-x="1552" d="M-10 0l600 1481h362l611 -1481h-355l-127 340h-647l-127 -340h-317zM512 557h485l-237 694zM573 1751q0 88 62 150.5t151 62.5q88 0 150.5 -62t62.5 -151t-62 -151t-151 -62t-151 62t-62 151zM674 1751q0 -47 33.5 -80t80.5 -33q46 0 78.5 33.5t32.5 79.5t-32.5 79.5 t-78.5 33.5t-80 -33.5t-34 -79.5z" />
<glyph unicode="&#xc6;" horiz-adv-x="2000" d="M-14 0l723 1481h1189v-232h-694l51 -383h605v-229h-576l53 -406h582v-231h-864l-47 336h-547l-156 -336h-319zM553 553h432l-94 717l-4 -2z" />
<glyph unicode="&#xc7;" horiz-adv-x="1472" d="M90 729q0 169 46 310.5t133 246.5t223.5 164t308.5 59q91 0 173.5 -16t157.5 -52t130.5 -89t88.5 -132t35 -176h-325q-10 109 -80.5 168.5t-181.5 59.5q-84 0 -151 -35t-108.5 -90.5t-69.5 -130t-39 -148t-11 -149.5q0 -75 11 -144.5t38 -138t67.5 -119t105.5 -81.5 t146 -31q113 0 188.5 59.5t90.5 169.5h328q-11 -97 -48 -174.5t-92.5 -130t-130 -88t-157 -51.5t-176.5 -17l-43 -94q50 8 77 8q71 0 121.5 -38t50.5 -109q0 -48 -24 -82t-65 -51t-81.5 -24t-85.5 -7q-116 0 -223 43l21 82q100 -49 190 -49q107 0 107 80q0 41 -29.5 59.5 t-73.5 18.5q-18 0 -61 -13l-41 27l76 153q-308 23 -462.5 222.5t-154.5 529.5z" />
<glyph unicode="&#xc8;" horiz-adv-x="1273" d="M170 0v1481h1001v-230h-686v-385h650v-227h-650v-410h707v-229h-1022zM348 1886h336l205 -297h-201z" />
<glyph unicode="&#xc9;" horiz-adv-x="1273" d="M170 0v1481h1001v-230h-686v-385h650v-227h-650v-410h707v-229h-1022zM498 1589l213 297h329l-335 -297h-207z" />
<glyph unicode="&#xca;" horiz-adv-x="1273" d="M170 0v1481h1001v-230h-686v-385h650v-227h-650v-410h707v-229h-1022zM324 1589l231 299h279l229 -299h-207l-162 178l-164 -178h-206z" />
<glyph unicode="&#xcb;" horiz-adv-x="1273" d="M170 0v1481h1001v-230h-686v-385h650v-227h-650v-410h707v-229h-1022zM299 1628v240h270v-240h-270zM782 1628v240h273v-240h-273z" />
<glyph unicode="&#xcc;" horiz-adv-x="661" d="M-27 1886h336l205 -297h-201zM172 0v1481h322v-1481h-322z" />
<glyph unicode="&#xcd;" horiz-adv-x="661" d="M158 1589l213 297h329l-335 -297h-207zM170 0v1481h322v-1481h-322z" />
<glyph unicode="&#xce;" horiz-adv-x="661" d="M-31 1589l232 299h278l230 -299h-207l-162 178l-164 -178h-207zM172 0v1481h322v-1481h-322z" />
<glyph unicode="&#xcf;" horiz-adv-x="661" d="M-41 1628v240h270v-240h-270zM172 0v1481h322v-1481h-322zM442 1628v240h273v-240h-273z" />
<glyph unicode="&#xd0;" horiz-adv-x="1597" d="M39 721v176h131v584h512q154 0 238 -13q187 -27 321 -128t200 -252.5t66 -339.5q0 -314 -148.5 -504t-453.5 -230q-105 -14 -272 -14h-463v721h-131zM492 227h151q163 0 229 49q84 18 145.5 63.5t95.5 110.5t49.5 137.5t15.5 157.5q0 320 -201 445q-65 40 -141 51.5 t-181 11.5h-163v-356h344v-176h-344v-494z" />
<glyph unicode="&#xd1;" horiz-adv-x="1636" d="M170 0v1481h451l569 -1223v1223h276v-1481h-450l-570 1221v-1221h-276zM422 1610q11 106 82.5 179t175.5 73q56 0 160.5 -36t152.5 -36q68 0 78 78h137q-11 -103 -78 -177.5t-167 -74.5q-53 0 -156.5 33.5t-155.5 33.5q-76 0 -98 -73h-131z" />
<glyph unicode="&#xd2;" horiz-adv-x="1595" d="M90 737q0 170 45 311.5t132 247t223.5 164t310.5 58.5q175 0 310.5 -58t221 -162.5t129 -245t43.5 -311.5q0 -167 -45.5 -307t-132.5 -244.5t-223 -162.5t-309 -58q-174 0 -309.5 56.5t-221.5 159.5t-130 242.5t-44 309.5zM414 748q0 -82 10 -154.5t36.5 -145t68 -124.5 t110 -84.5t156.5 -32.5t157 32t111.5 84t70 124.5t38 145.5t10.5 155q0 80 -11 152.5t-39.5 143.5t-71 123t-111 83.5t-154.5 31.5q-85 0 -152 -32.5t-109 -84.5t-70 -123t-39 -143.5t-11 -150.5zM442 1886h336l205 -297h-201z" />
<glyph unicode="&#xd3;" horiz-adv-x="1595" d="M90 737q0 170 45 311.5t132 247t223.5 164t310.5 58.5q175 0 310.5 -58t221 -162.5t129 -245t43.5 -311.5q0 -167 -45.5 -307t-132.5 -244.5t-223 -162.5t-309 -58q-174 0 -309.5 56.5t-221.5 159.5t-130 242.5t-44 309.5zM414 748q0 -82 10 -154.5t36.5 -145t68 -124.5 t110 -84.5t156.5 -32.5t157 32t111.5 84t70 124.5t38 145.5t10.5 155q0 80 -11 152.5t-39.5 143.5t-71 123t-111 83.5t-154.5 31.5q-85 0 -152 -32.5t-109 -84.5t-70 -123t-39 -143.5t-11 -150.5zM616 1589l213 297h330l-336 -297h-207z" />
<glyph unicode="&#xd4;" horiz-adv-x="1595" d="M90 737q0 170 45 311.5t132 247t223.5 164t310.5 58.5q175 0 310.5 -58t221 -162.5t129 -245t43.5 -311.5q0 -167 -45.5 -307t-132.5 -244.5t-223 -162.5t-309 -58q-174 0 -309.5 56.5t-221.5 159.5t-130 242.5t-44 309.5zM414 748q0 -82 10 -154.5t36.5 -145t68 -124.5 t110 -84.5t156.5 -32.5t157 32t111.5 84t70 124.5t38 145.5t10.5 155q0 80 -11 152.5t-39.5 143.5t-71 123t-111 83.5t-154.5 31.5q-85 0 -152 -32.5t-109 -84.5t-70 -123t-39 -143.5t-11 -150.5zM434 1589l232 299h278l230 -299h-207l-162 178l-164 -178h-207z" />
<glyph unicode="&#xd5;" horiz-adv-x="1595" d="M90 737q0 170 45 311.5t132 247t223.5 164t310.5 58.5q175 0 310.5 -58t221 -162.5t129 -245t43.5 -311.5q0 -167 -45.5 -307t-132.5 -244.5t-223 -162.5t-309 -58q-174 0 -309.5 56.5t-221.5 159.5t-130 242.5t-44 309.5zM403 1610q11 106 83 179t176 73q56 0 160.5 -36 t152.5 -36q64 0 78 78h137q-11 -102 -78.5 -177t-167.5 -75q-53 0 -156 33.5t-155 33.5q-76 0 -98 -73h-132zM414 748q0 -82 10 -154.5t36.5 -145t68 -124.5t110 -84.5t156.5 -32.5t157 32t111.5 84t70 124.5t38 145.5t10.5 155q0 80 -11 152.5t-39.5 143.5t-71 123 t-111 83.5t-154.5 31.5q-85 0 -152 -32.5t-109 -84.5t-70 -123t-39 -143.5t-11 -150.5z" />
<glyph unicode="&#xd6;" horiz-adv-x="1595" d="M90 737q0 170 45 311.5t132 247t223.5 164t310.5 58.5q175 0 310.5 -58t221 -162.5t129 -245t43.5 -311.5q0 -167 -45.5 -307t-132.5 -244.5t-223 -162.5t-309 -58q-174 0 -309.5 56.5t-221.5 159.5t-130 242.5t-44 309.5zM414 748q0 -82 10 -154.5t36.5 -145t68 -124.5 t110 -84.5t156.5 -32.5t157 32t111.5 84t70 124.5t38 145.5t10.5 155q0 80 -11 152.5t-39.5 143.5t-71 123t-111 83.5t-154.5 31.5q-85 0 -152 -32.5t-109 -84.5t-70 -123t-39 -143.5t-11 -150.5zM426 1628v240h270v-240h-270zM909 1628v240h273v-240h-273z" />
<glyph unicode="&#xd7;" horiz-adv-x="1363" d="M164 174l358 358l-358 359l162 162l356 -359l356 357l162 -160l-356 -359l356 -358l-160 -160l-358 359l-356 -359z" />
<glyph unicode="&#xd8;" horiz-adv-x="1595" d="M16 33l205 213q-131 201 -131 493q0 170 45.5 311.5t133 246t224 163t310.5 58.5q291 0 475 -164l190 196l113 -114l-201 -207q127 -205 127 -492q0 -167 -45.5 -306.5t-132.5 -243t-223 -161t-307 -57.5q-291 0 -471 156l-199 -207zM416 741q0 -146 39 -256l620 658 q-104 139 -276 139q-86 0 -153.5 -33t-110 -86t-70 -125t-38.5 -145t-11 -152zM526 330q104 -125 271 -125q89 0 157.5 32.5t111 85t69.5 125.5t37 145.5t10 154.5q0 113 -39 235z" />
<glyph unicode="&#xd9;" horiz-adv-x="1628" d="M164 625v856h330v-873q0 -73 8 -130t30 -110t57.5 -88t93 -56t134.5 -21q76 0 134.5 22t94.5 58.5t58.5 90.5t31.5 112.5t9 129.5v865h319v-865q0 -322 -165.5 -485.5t-489.5 -163.5q-416 0 -565 258q-50 88 -65 178.5t-15 221.5zM453 1886h335l205 -297h-200z" />
<glyph unicode="&#xda;" horiz-adv-x="1628" d="M164 625v856h330v-873q0 -73 8 -130t30 -110t57.5 -88t93 -56t134.5 -21q76 0 134.5 22t94.5 58.5t58.5 90.5t31.5 112.5t9 129.5v865h319v-865q0 -322 -165.5 -485.5t-489.5 -163.5q-416 0 -565 258q-50 88 -65 178.5t-15 221.5zM639 1589l213 297h330l-336 -297h-207z " />
<glyph unicode="&#xdb;" horiz-adv-x="1628" d="M164 625v856h330v-873q0 -73 8 -130t30 -110t57.5 -88t93 -56t134.5 -21q76 0 134.5 22t94.5 58.5t58.5 90.5t31.5 112.5t9 129.5v865h319v-865q0 -322 -165.5 -485.5t-489.5 -163.5q-416 0 -565 258q-50 88 -65 178.5t-15 221.5zM444 1589l232 299h278l230 -299h-207 l-162 178l-164 -178h-207z" />
<glyph unicode="&#xdc;" horiz-adv-x="1628" d="M164 625v856h330v-873q0 -73 8 -130t30 -110t57.5 -88t93 -56t134.5 -21q76 0 134.5 22t94.5 58.5t58.5 90.5t31.5 112.5t9 129.5v865h319v-865q0 -322 -165.5 -485.5t-489.5 -163.5q-416 0 -565 258q-50 88 -65 178.5t-15 221.5zM436 1628v240h271v-240h-271zM920 1628 v240h272v-240h-272z" />
<glyph unicode="&#xdd;" horiz-adv-x="1409" d="M-31 1483h375l373 -686l377 686h346l-574 -908v-575h-321v575zM555 1589l213 297h330l-336 -297h-207z" />
<glyph unicode="&#xde;" horiz-adv-x="1361" d="M170 0v1481h322v-224h157q79 0 128 -2t118 -9.5t124.5 -26t100.5 -48.5q189 -129 189 -374q0 -134 -67.5 -241t-190.5 -159q-108 -45 -375 -45h-184v-352h-322zM492 578h165q326 0 326 235q0 54 -17 94t-44 63.5t-68 37.5t-82 19t-92 5h-188v-454z" />
<glyph unicode="&#xdf;" horiz-adv-x="1447" d="M141 0v928q0 71 2.5 115.5t12.5 104t34.5 108.5t63.5 92q146 159 436 159q69 0 133 -9t130 -32.5t115 -59.5t79.5 -95.5t30.5 -134.5q0 -70 -32.5 -115t-88.5 -86q-52 -36 -82 -66q-35 -35 -35 -75q0 -58 68 -107q34 -24 71 -43q41 -21 84 -45q50 -27 84.5 -51.5 t70.5 -61t54.5 -85t18.5 -107.5q0 -90 -37 -160t-99.5 -112t-139 -63.5t-161.5 -21.5q-86 0 -155 16.5t-126.5 52.5t-90.5 101t-35 154h268q0 -68 37 -108.5t102 -40.5q69 0 110.5 47t41.5 116q0 62 -40 104t-108 79q-10 5 -39 21t-45 24q-43 22 -69 37t-60 40.5t-53.5 50.5 t-33 61t-13.5 77q0 65 31.5 109t89.5 88q61 49 82 71q41 45 41 86q0 81 -59 124.5t-144 43.5q-61 0 -106.5 -18t-72.5 -47.5t-43.5 -74t-22 -90t-5.5 -102.5v-999h-295z" />
<glyph unicode="&#xe0;" horiz-adv-x="1171" d="M61 295q0 67 21.5 120.5t56 89.5t86.5 62.5t103 41t115.5 23t114.5 11t110 2.5h84v39q0 36 -3.5 64.5t-13.5 58t-26.5 48.5t-45 31.5t-67.5 12.5q-160 0 -160 -162h-305q1 73 29 131t72 94t105.5 59.5t123.5 32.5t131 9q90 0 155 -9t123.5 -35t94 -70t56.5 -115.5 t21 -171.5v-308q0 -225 17 -354h-283q-21 61 -24 141q-61 -89 -139 -125t-191 -36q-104 0 -183.5 32.5t-128.5 105t-49 177.5zM229 1505h336l205 -297h-201zM356 311q0 -68 49 -110.5t119 -42.5q69 0 116.5 27.5t70.5 77t32 101t9 117.5v19q-14 0 -39 1t-39 1 q-43 0 -82.5 -4t-84 -16.5t-76.5 -33t-53.5 -56t-21.5 -81.5z" />
<glyph unicode="&#xe1;" horiz-adv-x="1171" d="M61 295q0 67 21.5 120.5t56 89.5t86.5 62.5t103 41t115.5 23t114.5 11t110 2.5h84v39q0 36 -3.5 64.5t-13.5 58t-26.5 48.5t-45 31.5t-67.5 12.5q-160 0 -160 -162h-305q1 73 29 131t72 94t105.5 59.5t123.5 32.5t131 9q90 0 155 -9t123.5 -35t94 -70t56.5 -115.5 t21 -171.5v-308q0 -225 17 -354h-283q-21 61 -24 141q-61 -89 -139 -125t-191 -36q-104 0 -183.5 32.5t-128.5 105t-49 177.5zM356 311q0 -68 49 -110.5t119 -42.5q69 0 116.5 27.5t70.5 77t32 101t9 117.5v19q-14 0 -39 1t-39 1q-43 0 -82.5 -4t-84 -16.5t-76.5 -33 t-53.5 -56t-21.5 -81.5zM412 1208l213 297h329l-336 -297h-206z" />
<glyph unicode="&#xe2;" horiz-adv-x="1171" d="M61 295q0 67 21.5 120.5t56 89.5t86.5 62.5t103 41t115.5 23t114.5 11t110 2.5h84v39q0 36 -3.5 64.5t-13.5 58t-26.5 48.5t-45 31.5t-67.5 12.5q-160 0 -160 -162h-305q1 73 29 131t72 94t105.5 59.5t123.5 32.5t131 9q90 0 155 -9t123.5 -35t94 -70t56.5 -115.5 t21 -171.5v-308q0 -225 17 -354h-283q-21 61 -24 141q-61 -89 -139 -125t-191 -36q-104 0 -183.5 32.5t-128.5 105t-49 177.5zM225 1208l232 299h278l230 -299h-207l-162 178l-164 -178h-207zM356 311q0 -68 49 -110.5t119 -42.5q69 0 116.5 27.5t70.5 77t32 101t9 117.5v19 q-14 0 -39 1t-39 1q-43 0 -82.5 -4t-84 -16.5t-76.5 -33t-53.5 -56t-21.5 -81.5z" />
<glyph unicode="&#xe3;" horiz-adv-x="1171" d="M61 295q0 67 21.5 120.5t56 89.5t86.5 62.5t103 41t115.5 23t114.5 11t110 2.5h84v39q0 36 -3.5 64.5t-13.5 58t-26.5 48.5t-45 31.5t-67.5 12.5q-160 0 -160 -162h-305q1 73 29 131t72 94t105.5 59.5t123.5 32.5t131 9q90 0 155 -9t123.5 -35t94 -70t56.5 -115.5 t21 -171.5v-308q0 -225 17 -354h-283q-21 61 -24 141q-61 -89 -139 -125t-191 -36q-104 0 -183.5 32.5t-128.5 105t-49 177.5zM203 1225q11 107 82 179.5t176 72.5q56 0 160.5 -36t152.5 -36q67 0 78 78h137q-11 -101 -79 -176.5t-167 -75.5q-52 0 -155 33.5t-156 33.5 q-77 0 -98 -73h-131zM356 311q0 -68 49 -110.5t119 -42.5q69 0 116.5 27.5t70.5 77t32 101t9 117.5v19q-14 0 -39 1t-39 1q-43 0 -82.5 -4t-84 -16.5t-76.5 -33t-53.5 -56t-21.5 -81.5z" />
<glyph unicode="&#xe4;" horiz-adv-x="1171" d="M61 295q0 67 21.5 120.5t56 89.5t86.5 62.5t103 41t115.5 23t114.5 11t110 2.5h84v39q0 36 -3.5 64.5t-13.5 58t-26.5 48.5t-45 31.5t-67.5 12.5q-160 0 -160 -162h-305q1 73 29 131t72 94t105.5 59.5t123.5 32.5t131 9q90 0 155 -9t123.5 -35t94 -70t56.5 -115.5 t21 -171.5v-308q0 -225 17 -354h-283q-21 61 -24 141q-61 -89 -139 -125t-191 -36q-104 0 -183.5 32.5t-128.5 105t-49 177.5zM215 1247v240h270v-240h-270zM356 311q0 -68 49 -110.5t119 -42.5q69 0 116.5 27.5t70.5 77t32 101t9 117.5v19q-14 0 -39 1t-39 1 q-43 0 -82.5 -4t-84 -16.5t-76.5 -33t-53.5 -56t-21.5 -81.5zM698 1247v240h273v-240h-273z" />
<glyph unicode="&#xe5;" horiz-adv-x="1171" d="M61 295q0 67 21.5 120.5t56 89.5t86.5 62.5t103 41t115.5 23t114.5 11t110 2.5h84v39q0 36 -3.5 64.5t-13.5 58t-26.5 48.5t-45 31.5t-67.5 12.5q-160 0 -160 -162h-305q1 73 29 131t72 94t105.5 59.5t123.5 32.5t131 9q90 0 155 -9t123.5 -35t94 -70t56.5 -115.5 t21 -171.5v-308q0 -225 17 -354h-283q-21 61 -24 141q-61 -89 -139 -125t-191 -36q-104 0 -183.5 32.5t-128.5 105t-49 177.5zM356 311q0 -68 49 -110.5t119 -42.5q69 0 116.5 27.5t70.5 77t32 101t9 117.5v19q-14 0 -39 1t-39 1q-43 0 -82.5 -4t-84 -16.5t-76.5 -33 t-53.5 -56t-21.5 -81.5zM389 1384q0 88 62.5 150.5t150.5 62.5q89 0 151 -62t62 -151q0 -90 -61.5 -151.5t-151.5 -61.5q-88 0 -150.5 62t-62.5 151zM489 1384q0 -47 34.5 -79.5t80.5 -32.5q47 0 79 33t32 79t-32.5 79.5t-78.5 33.5t-80.5 -33.5t-34.5 -79.5z" />
<glyph unicode="&#xe6;" horiz-adv-x="1828" d="M53 295q0 223 260 297q97 26 230 33q78 4 213 4q0 48 -2.5 80.5t-13 71t-29 61.5t-53 39t-83.5 16q-76 0 -124 -41t-48 -108h-282q0 68 28.5 123t73.5 89.5t104.5 57.5t118 32t117.5 9q130 0 212 -35t147 -129q124 170 366 170q109 0 192 -32t134.5 -85.5t84.5 -131.5 t45.5 -162.5t12.5 -186.5h-725q0 -63 10 -116t33 -102t69 -77.5t111 -28.5q93 0 144.5 50t60.5 143h283q-11 -93 -51 -163.5t-102.5 -112.5t-139.5 -62.5t-168 -20.5q-143 0 -244.5 50t-158.5 170q-66 -119 -167.5 -168t-246.5 -49q-75 0 -146 18.5t-132 55t-97.5 99 t-36.5 142.5zM350 295q0 -73 49.5 -115.5t124.5 -42.5q116 0 174 78.5t58 198.5v59h-107q-299 0 -299 -178zM1034 627h439q-2 58 -12.5 102.5t-33.5 84.5t-65 61.5t-102 21.5q-58 0 -102 -22t-69.5 -61t-38.5 -85t-16 -102z" />
<glyph unicode="&#xe7;" horiz-adv-x="1148" d="M72 508q0 255 145.5 405t400.5 150q98 0 179 -22t146 -67t105 -120t48 -174h-293q-3 93 -49.5 150t-137.5 57q-58 0 -101.5 -23t-69 -58.5t-41 -86.5t-20.5 -97.5t-5 -99.5q0 -52 5 -98t20 -98t39.5 -88.5t67 -61t99.5 -24.5q100 0 145.5 61.5t47.5 165.5h299v-8 q0 -97 -40 -174t-108 -123.5t-150.5 -71.5t-174.5 -27l-43 -96q50 8 78 8q71 0 120.5 -38t49.5 -109q0 -48 -24 -82t-65 -51t-81.5 -24t-85.5 -7q-117 0 -224 43l23 82q100 -49 188 -49q109 0 109 80q0 41 -30.5 59.5t-74.5 18.5q-18 0 -61 -13l-41 27l78 153 q-225 17 -349 155.5t-124 375.5z" />
<glyph unicode="&#xe8;" horiz-adv-x="1179" d="M72 500q0 263 136.5 412t397.5 149q158 0 278.5 -68t178.5 -207q29 -68 37 -140.5t8 -186.5h-746q-1 -61 12 -113.5t40.5 -96t75 -68.5t110.5 -25q183 0 207 180h291q-13 -97 -59 -168.5t-116 -112t-151 -59.5t-176 -19q-251 0 -387.5 136.5t-136.5 386.5zM252 1505h336 l205 -297h-201zM369 631h450q0 119 -55 186.5t-160 67.5q-108 0 -171.5 -71t-63.5 -183z" />
<glyph unicode="&#xe9;" horiz-adv-x="1179" d="M72 500q0 263 136.5 412t397.5 149q158 0 278.5 -68t178.5 -207q29 -68 37 -140.5t8 -186.5h-746q-1 -61 12 -113.5t40.5 -96t75 -68.5t110.5 -25q183 0 207 180h291q-13 -97 -59 -168.5t-116 -112t-151 -59.5t-176 -19q-251 0 -387.5 136.5t-136.5 386.5zM369 631h450 q0 119 -55 186.5t-160 67.5q-108 0 -171.5 -71t-63.5 -183zM436 1208l213 297h330l-336 -297h-207z" />
<glyph unicode="&#xea;" horiz-adv-x="1179" d="M72 500q0 263 136.5 412t397.5 149q158 0 278.5 -68t178.5 -207q29 -68 37 -140.5t8 -186.5h-746q-1 -61 12 -113.5t40.5 -96t75 -68.5t110.5 -25q183 0 207 180h291q-13 -97 -59 -168.5t-116 -112t-151 -59.5t-176 -19q-251 0 -387.5 136.5t-136.5 386.5zM242 1208 l231 299h279l229 -299h-207l-162 178l-163 -178h-207zM369 631h450q0 119 -55 186.5t-160 67.5q-108 0 -171.5 -71t-63.5 -183z" />
<glyph unicode="&#xeb;" horiz-adv-x="1179" d="M72 500q0 263 136.5 412t397.5 149q158 0 278.5 -68t178.5 -207q29 -68 37 -140.5t8 -186.5h-746q-1 -61 12 -113.5t40.5 -96t75 -68.5t110.5 -25q183 0 207 180h291q-13 -97 -59 -168.5t-116 -112t-151 -59.5t-176 -19q-251 0 -387.5 136.5t-136.5 386.5zM238 1247v240 h270v-240h-270zM369 631h450q0 119 -55 186.5t-160 67.5q-108 0 -171.5 -71t-63.5 -183zM721 1247v240h272v-240h-272z" />
<glyph unicode="&#xec;" horiz-adv-x="581" d="M-66 1505h336l205 -297h-201zM141 0v1032h299v-1032h-299z" />
<glyph unicode="&#xed;" horiz-adv-x="581" d="M119 1208l213 297h330l-336 -297h-207zM141 0v1032h299v-1032h-299z" />
<glyph unicode="&#xee;" horiz-adv-x="581" d="M-74 1208l232 299h278l230 -299h-207l-162 178l-164 -178h-207zM141 0v1032h299v-1032h-299z" />
<glyph unicode="&#xef;" horiz-adv-x="581" d="M-82 1247v240h270v-240h-270zM141 0v1032h299v-1032h-299zM401 1247v240h273v-240h-273z" />
<glyph unicode="&#xf0;" horiz-adv-x="1259" d="M72 506q0 220 135.5 360t355.5 140q181 0 297 -136q-44 131 -123.5 215.5t-210.5 151.5l-151 -113l-96 58l137 102q-77 30 -180 57l110 203q163 -38 285 -90l135 96l92 -57l-121 -86q223 -122 337 -322t114 -458q0 -114 -19.5 -210.5t-62.5 -178.5t-107.5 -139.5 t-159 -89.5t-212.5 -32q-251 0 -403 140t-152 389zM375 502q0 -67 12 -125.5t39.5 -111.5t79 -84t121.5 -31q59 0 105 22.5t73.5 58t45 85t24 98.5t6.5 104q0 65 -13.5 121t-41.5 103t-78.5 74.5t-118.5 27.5q-70 0 -121.5 -29.5t-79 -80t-40.5 -108.5t-13 -124z" />
<glyph unicode="&#xf1;" horiz-adv-x="1292" d="M133 1032h297l4 -158q71 91 149.5 133t190.5 42q187 0 282 -97.5t95 -283.5v-668h-299v547q0 52 -2.5 87t-13.5 79.5t-31 71t-57.5 45t-90.5 18.5q-54 0 -94.5 -23.5t-63 -58t-37 -81.5t-18.5 -85.5t-4 -79.5v-520h-299v829q0 110 -8 203zM272 1229q9 106 81 179t177 73 q56 0 160.5 -36t153.5 -36q63 0 78 78h137q-11 -101 -79 -176.5t-167 -75.5q-53 0 -156 34t-155 34q-78 0 -99 -74h-131z" />
<glyph unicode="&#xf2;" horiz-adv-x="1265" d="M72 520q0 254 155.5 397.5t411.5 143.5q257 0 406 -142.5t149 -398.5q0 -255 -152.5 -400t-410.5 -145q-260 0 -409.5 143t-149.5 402zM285 1505h336l204 -297h-200zM383 518q0 -53 6.5 -101t23.5 -97.5t43.5 -85t71.5 -58t103 -22.5q71 0 122.5 33t78.5 88.5t39 115.5 t12 127q0 68 -12 128t-39 115t-78.5 87.5t-122.5 32.5q-72 0 -123 -32.5t-77 -88t-37 -114.5t-11 -128z" />
<glyph unicode="&#xf3;" horiz-adv-x="1265" d="M72 520q0 254 155.5 397.5t411.5 143.5q257 0 406 -142.5t149 -398.5q0 -255 -152.5 -400t-410.5 -145q-260 0 -409.5 143t-149.5 402zM383 518q0 -53 6.5 -101t23.5 -97.5t43.5 -85t71.5 -58t103 -22.5q71 0 122.5 33t78.5 88.5t39 115.5t12 127q0 68 -12 128t-39 115 t-78.5 87.5t-122.5 32.5q-72 0 -123 -32.5t-77 -88t-37 -114.5t-11 -128zM463 1208l213 297h330l-336 -297h-207z" />
<glyph unicode="&#xf4;" horiz-adv-x="1265" d="M72 520q0 254 155.5 397.5t411.5 143.5q257 0 406 -142.5t149 -398.5q0 -255 -152.5 -400t-410.5 -145q-260 0 -409.5 143t-149.5 402zM270 1208l232 299h278l230 -299h-207l-162 178l-164 -178h-207zM383 518q0 -53 6.5 -101t23.5 -97.5t43.5 -85t71.5 -58t103 -22.5 q71 0 122.5 33t78.5 88.5t39 115.5t12 127q0 68 -12 128t-39 115t-78.5 87.5t-122.5 32.5q-72 0 -123 -32.5t-77 -88t-37 -114.5t-11 -128z" />
<glyph unicode="&#xf5;" horiz-adv-x="1265" d="M72 520q0 254 155.5 397.5t411.5 143.5q257 0 406 -142.5t149 -398.5q0 -255 -152.5 -400t-410.5 -145q-260 0 -409.5 143t-149.5 402zM248 1229q9 106 81 179t177 73q56 0 160 -36t153 -36q63 0 78 78h137q-11 -101 -79 -176.5t-167 -75.5q-53 0 -156 34t-155 34 q-77 0 -98 -74h-131zM383 518q0 -53 6.5 -101t23.5 -97.5t43.5 -85t71.5 -58t103 -22.5q71 0 122.5 33t78.5 88.5t39 115.5t12 127q0 68 -12 128t-39 115t-78.5 87.5t-122.5 32.5q-72 0 -123 -32.5t-77 -88t-37 -114.5t-11 -128z" />
<glyph unicode="&#xf6;" horiz-adv-x="1265" d="M72 520q0 254 155.5 397.5t411.5 143.5q257 0 406 -142.5t149 -398.5q0 -255 -152.5 -400t-410.5 -145q-260 0 -409.5 143t-149.5 402zM262 1247v240h270v-240h-270zM383 518q0 -53 6.5 -101t23.5 -97.5t43.5 -85t71.5 -58t103 -22.5q71 0 122.5 33t78.5 88.5t39 115.5 t12 127q0 68 -12 128t-39 115t-78.5 87.5t-122.5 32.5q-72 0 -123 -32.5t-77 -88t-37 -114.5t-11 -128zM745 1247v240h273v-240h-273z" />
<glyph unicode="&#xf7;" horiz-adv-x="1361" d="M143 420v227h1076v-227h-1076zM549 12v275h266v-275h-266zM549 776v277h266v-277h-266z" />
<glyph unicode="&#xf8;" horiz-adv-x="1265" d="M72 520q0 254 155.5 397.5t411.5 143.5q183 0 313 -74l133 162l97 -78l-131 -158q143 -143 143 -393q0 -255 -152.5 -400t-410.5 -145q-178 0 -305 68l-150 -180l-90 78l141 172q-155 143 -155 407zM383 518q0 -108 27 -188l391 475q-60 76 -170 76q-72 0 -123 -32.5 t-77 -88t-37 -114.5t-11 -128zM471 217q60 -63 160 -63q71 0 122.5 33t78.5 88.5t39 115.5t12 127q0 88 -21 168z" />
<glyph unicode="&#xf9;" horiz-adv-x="1290" d="M141 365v667h299v-549q0 -37 1 -62t5 -59.5t11.5 -57.5t21.5 -48t34 -40t50.5 -24.5t69.5 -9.5q221 0 221 316v534h299v-651q0 -252 6 -381h-299l-4 158q-71 -91 -148.5 -132.5t-189.5 -41.5q-377 0 -377 381zM289 1505h336l204 -297h-200z" />
<glyph unicode="&#xfa;" horiz-adv-x="1290" d="M141 365v667h299v-549q0 -37 1 -62t5 -59.5t11.5 -57.5t21.5 -48t34 -40t50.5 -24.5t69.5 -9.5q221 0 221 316v534h299v-651q0 -252 6 -381h-299l-4 158q-71 -91 -148.5 -132.5t-189.5 -41.5q-377 0 -377 381zM469 1208l213 297h330l-336 -297h-207z" />
<glyph unicode="&#xfb;" horiz-adv-x="1290" d="M141 365v667h299v-549q0 -37 1 -62t5 -59.5t11.5 -57.5t21.5 -48t34 -40t50.5 -24.5t69.5 -9.5q221 0 221 316v534h299v-651q0 -252 6 -381h-299l-4 158q-71 -91 -148.5 -132.5t-189.5 -41.5q-377 0 -377 381zM287 1208l231 299h279l229 -299h-207l-162 178l-163 -178 h-207z" />
<glyph unicode="&#xfc;" horiz-adv-x="1290" d="M141 365v667h299v-549q0 -37 1 -62t5 -59.5t11.5 -57.5t21.5 -48t34 -40t50.5 -24.5t69.5 -9.5q221 0 221 316v534h299v-651q0 -252 6 -381h-299l-4 158q-71 -91 -148.5 -132.5t-189.5 -41.5q-377 0 -377 381zM279 1247v240h270v-240h-270zM762 1247v240h272v-240h-272z " />
<glyph unicode="&#xfd;" horiz-adv-x="1173" d="M0 1032h336l276 -772l267 772h295l-586 -1421h-285l164 383zM428 1208l213 297h330l-336 -297h-207z" />
<glyph unicode="&#xfe;" horiz-adv-x="1300" d="M141 -389v1870h299v-596q66 90 145 131t189 41q111 0 198.5 -42.5t140.5 -115.5t80.5 -165.5t27.5 -198.5q0 -110 -28 -208t-83 -176.5t-145.5 -124.5t-206.5 -46q-104 0 -177 36t-141 119v-524h-299zM436 518q0 -49 5.5 -94.5t21.5 -93.5t40.5 -82.5t66 -57t94.5 -22.5 q71 0 122 32t77.5 87.5t38 115t11.5 127.5q0 63 -11 119t-35.5 109t-72.5 84.5t-114 31.5q-70 0 -120 -32t-75.5 -86.5t-37 -112.5t-11.5 -125z" />
<glyph unicode="&#xff;" horiz-adv-x="1173" d="M0 1032h336l276 -772l267 772h295l-586 -1421h-285l164 383zM233 1247v240h271v-240h-271zM717 1247v240h272v-240h-272z" />
<glyph unicode="&#x152;" horiz-adv-x="2023" d="M92 743q0 369 205 559.5t571 190.5q58 0 172 -6t170 -6h711v-232h-602v-383h563v-229h-563v-406h623v-231q-130 0 -389 -1t-386 -1q-48 0 -143 -4t-143 -4q-245 0 -420 81.5t-272 251.5t-97 420zM408 737q0 -113 27 -207t81 -166t143 -112.5t205 -40.5q89 0 148 12v1039 q-74 12 -148 12q-119 0 -209 -41.5t-143 -115.5t-78.5 -169t-25.5 -211z" />
<glyph unicode="&#x153;" horiz-adv-x="1994" d="M74 520q0 254 155.5 397.5t411.5 143.5q120 0 226.5 -40.5t172.5 -125.5q70 80 172.5 123t210.5 43q158 0 278.5 -68t178.5 -207q20 -48 30.5 -108.5t12.5 -105t2 -115.5h-743v-8q0 -60 13 -111t39.5 -93t73.5 -66.5t109 -24.5q91 0 147 47.5t60 132.5h291 q-11 -155 -144.5 -256t-351.5 -101q-258 0 -387 158q-67 -79 -176.5 -119.5t-222.5 -40.5q-260 0 -409.5 143t-149.5 402zM385 518q0 -53 6.5 -101t23.5 -97.5t43.5 -85t71.5 -58t103 -22.5q71 0 122.5 33t78.5 88.5t39 115.5t12 127q0 68 -12 128t-39 115t-78.5 87.5 t-122.5 32.5q-72 0 -123 -32.5t-77 -88t-37 -114.5t-11 -128zM1186 629h450q0 109 -54.5 181.5t-160.5 72.5q-111 0 -173 -71.5t-62 -182.5z" />
<glyph unicode="&#x178;" horiz-adv-x="1409" d="M-31 1483h375l373 -686l377 686h346l-574 -908v-575h-321v575zM352 1628v240h271v-240h-271zM836 1628v240h272v-240h-272z" />
<glyph unicode="&#x2c6;" horiz-adv-x="653" d="M-43 1208l231 299h279l229 -299h-207l-161 178l-164 -178h-207z" />
<glyph unicode="&#x2dc;" horiz-adv-x="655" d="M-66 1229q9 105 81.5 178.5t177.5 73.5q56 0 160 -36t153 -36q63 0 78 78h137q-11 -101 -79.5 -176.5t-166.5 -75.5q-53 0 -156 34t-155 34q-77 0 -98 -74h-132z" />
<glyph unicode="&#x2000;" horiz-adv-x="982" />
<glyph unicode="&#x2001;" horiz-adv-x="1964" />
<glyph unicode="&#x2002;" horiz-adv-x="982" />
<glyph unicode="&#x2003;" horiz-adv-x="1964" />
<glyph unicode="&#x2004;" horiz-adv-x="654" />
<glyph unicode="&#x2005;" horiz-adv-x="491" />
<glyph unicode="&#x2006;" horiz-adv-x="327" />
<glyph unicode="&#x2007;" horiz-adv-x="327" />
<glyph unicode="&#x2008;" horiz-adv-x="245" />
<glyph unicode="&#x2009;" horiz-adv-x="392" />
<glyph unicode="&#x200a;" horiz-adv-x="109" />
<glyph unicode="&#x2010;" horiz-adv-x="665" d="M53 444v197h559v-197h-559z" />
<glyph unicode="&#x2011;" horiz-adv-x="665" d="M53 444v197h559v-197h-559z" />
<glyph unicode="&#x2012;" horiz-adv-x="665" d="M53 444v197h559v-197h-559z" />
<glyph unicode="&#x2013;" horiz-adv-x="1032" d="M4 444v201h1024v-201h-1024z" />
<glyph unicode="&#x2014;" horiz-adv-x="2058" d="M270 444v201h1518v-201h-1518z" />
<glyph unicode="&#x2018;" horiz-adv-x="645" d="M123 977l190 504h209l-110 -504h-289z" />
<glyph unicode="&#x2019;" horiz-adv-x="647" d="M123 977l115 504h286l-190 -504h-211z" />
<glyph unicode="&#x201a;" horiz-adv-x="651" d="M123 -242l117 504h288l-196 -504h-209z" />
<glyph unicode="&#x201c;" horiz-adv-x="1126" d="M123 977l201 504h208l-120 -504h-289zM594 977l201 504h209l-121 -504h-289z" />
<glyph unicode="&#x201d;" horiz-adv-x="1126" d="M123 977l119 504h290l-200 -504h-209zM594 977l121 504h289l-201 -504h-209z" />
<glyph unicode="&#x201e;" horiz-adv-x="1122" d="M123 -242l117 504h288l-196 -504h-209zM594 -242l117 504h288l-196 -504h-209z" />
<glyph unicode="&#x2022;" horiz-adv-x="1036" d="M147 741q0 154 108.5 262.5t262.5 108.5t262.5 -108.5t108.5 -262.5t-108.5 -262t-262.5 -108t-262.5 108t-108.5 262z" />
<glyph unicode="&#x2026;" horiz-adv-x="2058" d="M201 0v262h293v-262h-293zM883 0v262h293v-262h-293zM1567 0v262h291v-262h-291z" />
<glyph unicode="&#x202f;" horiz-adv-x="392" />
<glyph unicode="&#x2039;" horiz-adv-x="653" d="M86 526l238 398h243l-223 -402l223 -397h-241z" />
<glyph unicode="&#x203a;" horiz-adv-x="653" d="M86 125l223 401l-223 398h242l239 -402l-237 -397h-244z" />
<glyph unicode="&#x205f;" horiz-adv-x="491" />
<glyph unicode="&#x20ac;" d="M66 494l53 192h135q0 18 -1 43.5t-1 40.5v27q0 16 2 30h-182l53 193h141q51 245 199 371.5t414 126.5q121 0 212.5 -30t143.5 -65l-66 -231q-92 100 -284 100q-289 0 -318 -272h545l-53 -193h-498q0 -16 -1 -30.5t-1 -26.5q0 -15 1 -40.5t1 -43.5h451l-54 -192h-391 q11 -154 86 -225.5t228 -71.5q171 0 288 102v-262q-107 -66 -301 -66q-152 0 -260.5 32t-179 99.5t-109 162.5t-53.5 229h-200z" />
<glyph unicode="&#x2122;" horiz-adv-x="1949" d="M139 1360v121h649v-121h-239v-619h-168v619h-242zM862 741v740h258l164 -537l164 537h254v-740h-156l4 631l-202 -631h-140l-198 631v-631h-148z" />
<glyph unicode="&#x25fc;" horiz-adv-x="1034" d="M0 0v1034h1034v-1034h-1034z" />
<glyph unicode="&#xfb01;" horiz-adv-x="1361" d="M27 838v196h200v86q0 182 84.5 275.5t270.5 93.5q86 0 196 -10v-197q-70 4 -98 4q-51 0 -83 -11t-47 -35.5t-19.5 -51t-4.5 -70.5v-84h238v-196h-238v-838h-299v838h-200zM913 1245v236h314v-236h-314zM922 0v1034h297v-1034h-297z" />
<glyph unicode="&#xfb02;" horiz-adv-x="1359" d="M27 838v196h200v86q0 182 84.5 275.5t270.5 93.5q86 0 196 -10v-197q-70 4 -98 4q-51 0 -83 -11t-47 -35.5t-19.5 -51t-4.5 -70.5v-84h238v-196h-238v-838h-299v838h-200zM922 0v1481h297v-1481h-297z" />
</font>
</defs>
</svg>
